<svg xmlns="http://www.w3.org/2000/svg" viewBox="0 0 100 125">
    <path d="m49.275,958.89c-2.0614,0.13547-4.0903,0.86511-5.8438,2.2188-4.6996,3.628-5.5655,10.394-1.9375,15.094,0.88305,1.1439,1.9439,2.0699,3.125,2.75-9.0971,0.84579-16.796,3.585-23.656,8.8438-6.1951,4.749-10.955,11.478-13.969,18.062-0.01521,0.033-0.04738,0.061-0.0625,0.094l0.03125,0.031c-0.66966,1.1739-0.4681,2.5301,0.21875,3.5625,0.71016,1.0673,1.8534,1.921,3.1562,2.5,1.4307,0.6357,3.031,0.5735,4.4688,0.125,1.4378-0.4486,2.7392-1.2824,3.4688-2.4375l3.375-5.4687c-0.04812,8.1476,3.098,16.176,10.125,21.562,1.0923,0.8373,2.2782,1.9077,3.625,2.7187v12.5c0,1.489,0.78183,2.7147,1.875,3.5313s2.4902,1.2812,3.875,1.2812,2.6126-0.4743,3.4688-1.3437c0.85614-0.8694,1.3125-2.0971,1.3125-3.4688v-9.9687c0.63041,0.094,1.2771,0.202,1.875,0.2812,0.80827,0.1072,1.4457,0.1806,2.0625,0.125,0.07452-0.01,0.17744,0.011,0.25,0,0.61755,0.056,1.2842-0.018,2.0938-0.125,0.59456-0.079,1.2167-0.188,1.8438-0.2812v9.9687c0,1.3717,0.48761,2.5994,1.3438,3.4688,0.85614,0.8694,2.0839,1.3437,3.4688,1.3437,1.3848,0,2.7506-0.4646,3.8438-1.2812s1.9062-2.0423,1.9062-3.5313v-12.5c1.3369-0.8099,2.5075-1.886,3.5938-2.7187,7.018-5.3799,10.196-13.394,10.156-21.531l3.375,5.4375c0.72953,1.1551,1.9997,1.9889,3.4375,2.4375,1.4378,0.4485,3.0693,0.5107,4.5-0.125,1.3028-0.579,2.4461-1.4327,3.1562-2.5,0.68685-1.0324,0.85716-2.3886,0.1875-3.5625l0.03125-0.031c-0.01512-0.033-0.04729-0.061-0.0625-0.094-3.0133-6.5842-7.7737-13.313-13.969-18.062-6.8756-5.2707-14.57-8.0046-23.688-8.8438,0.42741-0.24429,0.84956-0.50337,1.25-0.8125,4.6783-3.6116,5.5398-10.334,1.9688-15.031a0.85008,0.85009,0,0,0,-0.03125,-0.0625,0.85008,0.85009,0,0,0,-0.03125,-0.0625c-0.02005-0.0256-0.04226-0.0371-0.0625-0.0625-2.2779-2.8546-5.7509-4.255-9.1562-4.0312zm0.125,1.6875c2.8842-0.19212,5.7941,0.99161,7.7188,3.4375,0.004,0.005,0.0272,0.0257,0.03125,0.0312a0.85008,0.85009,0,0,0,0.03125,0.0312,0.85008,0.85009,0,0,0,0.03125,0.0312c3.053,3.9716,2.311,9.6248-1.6562,12.688-1.4635,1.1298-3.1633,1.7801-4.875,1.9062-0.03145-0.00074-0.06227,0.00071-0.09375,0-0.1892-0.004-0.37211-0.0284-0.5625-0.0312a0.85009,0.85009,0,0,0,-0.03125,0c-0.16896,0.003-0.33196-0.004-0.5,0-2.5342-0.14363-4.9795-1.328-6.6562-3.5-3.0665-3.9723-2.3473-9.6522,1.625-12.719,1.482-1.1441,3.2033-1.7595,4.9375-1.875zm0.25,19.812c0.12162,0.004,0.25323,0.00017,0.375,0,11.237,0.17327,20.114,2.7289,27.969,8.75,5.941,4.5543,10.621,11.136,13.531,17.531a0.85009,0.85009,0,0,0,0.03125,0.094c0.39481,0.6268,0.33599,1.1509-0.125,1.8437-0.46099,0.6929-1.3743,1.4026-2.4375,1.875-0.93532,0.4156-2.1875,0.413-3.3125,0.062s-2.0794-1.0528-2.5-1.7187l-4.9062-7.9063a0.85009,0.85009,0,0,0,-1.5938,0.5313c0.36224,3.3439,0.10459,6.7135-0.75,9.9062a0.85009,0.85009,0,0,0,-0.5,0.1563c-9.3946,4.5914-16.972,7.8437-25.438,7.8437-8.4652,0-16.012-3.2523-25.406-7.8437a0.85009,0.85009,0,0,0,-0.5,-0.094c-0.86921-3.2126-1.146-6.6016-0.78125-9.9687a0.85009,0.85009,0,0,0,-1.5625,-0.5313l-4.9062,7.9063c-0.4206,0.6659-1.4062,1.3677-2.5312,1.7187-1.125,0.3509-2.3459,0.3535-3.2812-0.062-1.0632-0.4724-1.9765-1.1821-2.4375-1.875-0.46099-0.6928-0.55106-1.2169-0.15625-1.8437a0.85009,0.85009,0,0,0,0.0625,-0.094c2.9101-6.3951,7.559-12.977,13.5-17.531,7.774-5.9593,16.581-8.53,27.656-8.75zm-24.938,33.031c9.0421,4.3915,16.659,7.625,25.281,7.625,8.6102,0,16.254-3.2117,25.281-7.5937-1.5345,4.2167-4.2016,8.0476-8.0938,11.031-1.3633,1.0451-2.587,2.275-3.8125,2.9063a0.85009,0.85009,0,0,0,-0.4375,0.75v12.906c0,0.8869-0.45164,1.6145-1.2188,2.1875-0.76711,0.5731-1.8358,0.9063-2.8438,0.9063-1.0079,0-1.7688-0.3235-2.2812-0.8438-0.51244-0.5204-0.8125-1.2458-0.8125-2.25v-10.938a0.85009,0.85009,0,0,0,-0.96875,-0.8437c-0.94948,0.1279-1.9467,0.2914-2.8125,0.4062-0.86577,0.1147-1.6645,0.1575-1.875,0.125a0.85009,0.85009,0,0,0,-0.25,0c-0.21047,0.032-0.97798-0.01-1.8438-0.125-0.86577-0.1148-1.863-0.2783-2.8125-0.4062a0.85009,0.85009,0,0,0,-0.96875,0.8437v10.938c0,1.0042-0.33131,1.7296-0.84375,2.25-0.51244,0.5203-1.2421,0.8438-2.25,0.8438s-2.0766-0.3332-2.8438-0.9063c-0.76711-0.573-1.2188-1.3006-1.2188-2.1875v-12.906a0.85009,0.85009,0,0,0,-0.46875,-0.75c-1.2255-0.6313-2.4492-1.8612-3.8125-2.9063-3.9007-2.9902-6.561-6.8348-8.0938-11.062z"
    color="#000" transform="translate(0 -952.362)" />
</svg>
