<svg xmlns="http://www.w3.org/2000/svg" viewBox="-324.738 -49.308 100 125">
    <path d="M-272.323,28.666c-0.007,0.006-0.784,0.604-2.334,0.604c-1.529,0-2.291-0.573-2.352-0.62 c-0.541-0.459-1.353-0.402-1.823,0.133c-0.476,0.541-0.424,1.366,0.117,1.842c0.146,0.129,1.5,1.256,4.058,1.256 c2.558,0,3.912-1.127,4.058-1.256c0.541-0.476,0.594-1.301,0.117-1.842C-270.957,28.242-271.782,28.189-272.323,28.666z"
    />
    <circle cx="-269.099" cy="1.463" r="2.361" />
    <circle cx="-280.587" cy="1.463" r="2.361" />
    <path d="M-231.207,1.605c-0.847-4.125-4.225-7.095-8.182-7.623c1.332-2.016,1.849-4.515,1.343-6.98 c-0.498-2.428-1.913-4.517-3.982-5.881c-2.069-1.364-4.545-1.841-6.974-1.343c-0.056,0.012-0.112,0.027-0.169,0.039 c-0.845-1.184-2.49-1.845-3.153-2.109c-1.759-0.702-4.228-1.314-7.163-1.784l-1.144-12.49c-0.001-0.014-0.006-0.028-0.008-0.042 c-0.139-1.601-2.309-2.197-4.655-2.597c-2.38-0.405-5.529-0.628-8.866-0.628s-6.486,0.223-8.866,0.628 c-2.346,0.399-4.516,0.995-4.655,2.597c-0.002,0.014-0.007,0.028-0.008,0.042l-1.144,12.489c-3.039,0.485-5.492,1.101-7.285,1.834 c-0.588,0.24-1.978,0.812-2.834,1.807c-0.555-0.227-1.131-0.406-1.727-0.524c-5.022-0.986-9.908,2.298-10.894,7.319 c-0.485,2.469,0.054,4.964,1.403,6.968c-3.951,0.562-7.304,3.562-8.115,7.694c-0.496,2.528,0.022,5.098,1.459,7.237 c1.437,2.139,3.621,3.59,6.149,4.086c0.748,0.147,1.505,0.204,2.258,0.173c-0.214,0.55-0.38,1.119-0.495,1.7 c-1.06,5.399,2.47,10.654,7.869,11.713c0.641,0.126,1.287,0.188,1.931,0.188c0.809,0,1.613-0.1,2.399-0.296 c1.155,3.525,2.851,6.608,5.062,9.147c4.21,4.835,10.177,7.497,16.801,7.497s12.591-2.663,16.801-7.497 c2.086-2.396,3.71-5.279,4.858-8.558c0.957,0.297,1.947,0.456,2.945,0.456c0.672,0,1.347-0.068,2.015-0.205 c5.39-1.106,8.874-6.391,7.768-11.781c-0.119-0.58-0.29-1.148-0.509-1.696c0.753,0.024,1.51-0.039,2.257-0.192 C-233.507,11.924-230.138,6.815-231.207,1.605z M-285.284-34.197c0.685,0.213,1.461,0.372,2.258,0.508 c2.38,0.405,5.529,0.628,8.866,0.628s6.487-0.223,8.866-0.628c0.798-0.136,1.574-0.295,2.259-0.508l0.87,9.501 c-1.714,0.416-5.742,1.173-12.368,1.173c-5.819,0-9.633-0.584-11.637-1.008L-285.284-34.197z M-289.078-21.393l-0.122,1.333 c-0.063,0.685,0.417,1.301,1.097,1.408c0.262,0.041,6.496,1.01,13.539,1.01c7.032,0,14.032-0.966,14.326-1.007 c0.69-0.096,1.183-0.718,1.119-1.412l-0.122-1.334c5.873,1.006,7.733,2.297,7.969,2.752c-0.206,0.384-1.745,1.53-6.628,2.505 c-4.414,0.881-10.189,1.367-16.26,1.367s-11.845-0.485-16.259-1.367c-4.872-0.973-6.414-2.116-6.626-2.502c0-0.002,0-0.004,0-0.006 C-296.803-19.098-294.944-20.387-289.078-21.393z M-265.359,16.522c-0.105-5.154-4.313-9.3-9.492-9.3 c-5.01,0-9.111,3.88-9.469,8.799c-5.811-2.101-10.198-5.407-11.518-6.468c0.371-9.883,2.146-17.618,5.288-23.05 c5.208,0.993,11.628,1.338,16.39,1.338c4.386,0,10.178-0.293,15.134-1.115c3.232,5.722,4.984,13.934,5.211,24.462 C-255.2,12.15-259.457,14.875-265.359,16.522z M-300.541,23.37c-3.987-0.782-6.593-4.662-5.811-8.649 c0.235-1.196,0.742-2.28,1.507-3.222c0.372-0.458,0.391-1.109,0.045-1.588c-0.346-0.478-0.97-0.665-1.522-0.455 c-1.228,0.468-2.56,0.581-3.852,0.327c-1.844-0.362-3.437-1.42-4.485-2.98c-1.048-1.56-1.426-3.435-1.064-5.279 c0.747-3.807,4.451-6.297,8.259-5.549c0.063,0.012,0.125,0.027,0.187,0.042l0.055,0.013c0.612,0.14,1.239-0.174,1.49-0.751 c0.251-0.576,0.055-1.25-0.466-1.602c-2.226-1.504-3.329-4.179-2.812-6.814c0.708-3.609,4.221-5.969,7.83-5.26 c0.578,0.113,1.131,0.3,1.652,0.556c0.591,1.667,3.028,2.881,6.32,3.749c-3.526,6.529-5.317,15.82-5.317,27.669 c0,3.487,0.376,6.745,1.101,9.735C-298.44,23.552-299.501,23.574-300.541,23.37z M-274.851,39.858 c-12.796,0-21.064-10.316-21.064-26.282c0-0.266,0.006-0.522,0.008-0.785c2.364,1.715,6.583,4.393,11.808,6.084 c0.977,4.206,4.745,7.341,9.248,7.341c4.339,0,7.996-2.911,9.13-6.886c5.384-1.336,9.578-3.572,11.921-5.027 C-254.048,29.852-262.252,39.858-274.851,39.858z M-239.241,10.437c-1.29,0.265-2.623,0.163-3.855-0.293 c-0.554-0.206-1.176-0.013-1.518,0.468c-0.342,0.481-0.318,1.132,0.058,1.587c0.773,0.935,1.29,2.015,1.535,3.208 c0.396,1.928,0.017,3.895-1.066,5.537c-1.083,1.643-2.742,2.766-4.67,3.162c-1.228,0.253-2.488,0.188-3.674-0.183 c0.826-3.155,1.254-6.622,1.254-10.347c0-11.668-1.737-20.857-5.158-27.371c3.697-0.834,6.568-2.044,7.423-3.757 c0.145-0.04,0.288-0.084,0.435-0.114c1.745-0.358,3.525-0.016,5.013,0.965s2.504,2.482,2.862,4.227 c0.54,2.631-0.541,5.315-2.753,6.838c-0.518,0.357-0.708,1.032-0.452,1.607c0.256,0.574,0.884,0.884,1.497,0.737l0.049-0.012 c0.064-0.015,0.127-0.031,0.191-0.044c3.801-0.78,7.527,1.677,8.307,5.477C-232.984,5.93-235.441,9.657-239.241,10.437z"
    />
</svg>
