<svg xmlns="http://www.w3.org/2000/svg" viewBox="0 0 64 80">
    <path d="M3.17,10.366,5.064,9.273A3,3,0,0,0,6,9.816V12H8V9.816a3,3,0,0,0,.936-.543l1.894,1.093,1-1.732L9.945,7.545a2.728,2.728,0,0,0,0-1.09L11.83,5.366l-1-1.732L8.936,4.727A3,3,0,0,0,8,4.184V2H6V4.184a3,3,0,0,0-.936.543L3.17,3.634l-1,1.732L4.055,6.455a2.728,2.728,0,0,0,0,1.09L2.17,8.634ZM7,6A1,1,0,1,1,6,7,1,1,0,0,1,7,6Z"
    />
    <path d="M20.884,7.771,19.7,6.157A24.96,24.96,0,0,0,16.568,8.9l1.437,1.393A22.741,22.741,0,0,1,20.884,7.771Z"
    />
    <path d="M35.222,4.293l.361-1.967a20.038,20.038,0,0,0-4.191-.317l.06,2A17.615,17.615,0,0,1,35.222,4.293Z"
    />
    <path d="M13.541,16.542a28.048,28.048,0,0,1,2.009-3.294L13.92,12.09a29.977,29.977,0,0,0-2.153,3.528Z"
    />
    <path d="M49.924,15.562a29.48,29.48,0,0,1,1.69,3.477l1.851-.756a31.534,31.534,0,0,0-1.8-3.714Z"
    />
    <path d="M52.85,22.709a32.876,32.876,0,0,1,.787,3.8l1.979-.289a34.82,34.82,0,0,0-.835-4.03Z"
    />
    <path d="M52.383,41.86l1.9.619a34.44,34.44,0,0,0,1.038-3.984l-1.962-.389A32.543,32.543,0,0,1,52.383,41.86Z"
    />
    <path d="M43.308,5.468a21.767,21.767,0,0,0-3.7-1.957l-.758,1.851A19.753,19.753,0,0,1,42.209,7.14Z"
    />
    <path d="M53.982,30.377c.012.373.018.748.018,1.123,0,.922-.037,1.852-.109,2.761l1.993.16c.077-.963.116-1.945.116-2.921,0-.4-.006-.793-.019-1.188Z"
    />
    <path d="M8.23,27.4A36.8,36.8,0,0,0,8,31.5c0,.79.026,1.59.077,2.378l2-.129C10.024,33,10,32.247,10,31.5a34.448,34.448,0,0,1,.218-3.879Z"
    />
    <path d="M49.364,11.127a26.88,26.88,0,0,0-2.789-3.073l-1.37,1.457a24.815,24.815,0,0,1,2.58,2.843Z"
    />
    <path d="M27.709,4.523,27.23,2.582A20.638,20.638,0,0,0,23.284,4l.863,1.805A18.648,18.648,0,0,1,27.709,4.523Z"
    />
    <path d="M29.863,58.871l-.24,1.986A19.838,19.838,0,0,0,32,61c.611,0,1.224-.028,1.824-.083l-.184-1.992A17.943,17.943,0,0,1,29.863,58.871Z"
    />
    <path d="M11.007,45.816a30.893,30.893,0,0,0,1.947,3.644l1.7-1.061a28.892,28.892,0,0,1-1.82-3.407Z"
    />
    <path d="M11.983,20.085,10.105,19.4a33.869,33.869,0,0,0-1.176,3.947l1.947.455A31.72,31.72,0,0,1,11.983,20.085Z"
    />
    <path d="M50.957,45.457a28.77,28.77,0,0,1-1.88,3.374l1.676,1.09a30.7,30.7,0,0,0,2.011-3.609Z"
    />
    <path d="M43.99,54.553,45.252,56.1a25.706,25.706,0,0,0,3-2.883L46.75,51.9A23.619,23.619,0,0,1,43.99,54.553Z"
    />
    <path d="M16.918,51.512l-1.525,1.3a26.052,26.052,0,0,0,2.931,2.945l1.3-1.522A23.862,23.862,0,0,1,16.918,51.512Z"
    />
    <path d="M10.544,37.6l-1.967.357a34.679,34.679,0,0,0,.973,4l1.911-.59A32.758,32.758,0,0,1,10.544,37.6Z"
    />
    <path d="M27,13a5,5,0,0,0,10,0V11a5,5,0,0,0-10,0Zm2-2a3,3,0,0,1,6,0v2a3,3,0,0,1-6,0Z"
    />
    <path d="M42.4,42.8a.986.986,0,0,0,.779.183,1,1,0,0,0,.665-.446l5.673-8.914a4.975,4.975,0,0,0,.068-5.258l-3.563-5.937A5.023,5.023,0,0,0,41.735,20H22.265a5.023,5.023,0,0,0-4.287,2.428l-3.563,5.937a4.975,4.975,0,0,0,.068,5.258l5.673,8.914a1,1,0,0,0,.665.446A.988.988,0,0,0,21.6,42.8l1.821-1.366-4.4,19.344A1,1,0,0,0,20,62h6a1,1,0,0,0,.974-.771L30.792,45h2.416l3.818,16.229A1,1,0,0,0,38,62h6a1,1,0,0,0,.975-1.222l-4.4-19.344ZM42.747,60H38.792L34.974,43.771A1,1,0,0,0,34,43H30a1,1,0,0,0-.974.771L25.208,60H21.253l4.721-20.774A1.018,1.018,0,0,0,26,38.987V27a1,1,0,0,0-1-1H22a1,1,0,0,0-.895.553l-2,4a1,1,0,0,0,.047.977l4.513,7.221-2.4,1.8-5.093-8a2.984,2.984,0,0,1-.042-3.154l3.563-5.938A3.017,3.017,0,0,1,22.265,22h19.47a3.017,3.017,0,0,1,2.573,1.457L47.871,29.4a2.984,2.984,0,0,1-.042,3.154l-5.093,8-2.4-1.8,4.513-7.221a1,1,0,0,0,.047-.977l-2-4A1,1,0,0,0,42,26H39a1,1,0,0,0-1,1V38.987a1.018,1.018,0,0,0,.026.239ZM24,35.514l-2.855-4.569L22.618,28H24Zm16,0V28h1.382l1.473,2.945Z"
    />
    <path d="M60.33,11a2.962,2.962,0,0,0-.055-.545L62.16,9.366l-1-1.732L59.266,8.727a3,3,0,0,0-.936-.543V6h-2V8.184a3,3,0,0,0-.936.543L53.5,7.634l-1,1.732,1.885,1.089a2.728,2.728,0,0,0,0,1.09L52.5,12.634l1,1.732,1.894-1.093a3,3,0,0,0,.936.543V16h2V13.816a3,3,0,0,0,.936-.543l1.894,1.093,1-1.732-1.885-1.089A2.962,2.962,0,0,0,60.33,11Zm-3,1a1,1,0,1,1,1-1A1,1,0,0,1,57.33,12Z"
    />
    <path d="M60.5,52.634l-1.894,1.093a3,3,0,0,0-.936-.543V51h-2v2.184a3,3,0,0,0-.936.543L52.84,52.634l-1,1.732,1.885,1.089a2.728,2.728,0,0,0,0,1.09L51.84,57.634l1,1.732,1.894-1.093a3,3,0,0,0,.936.543V61h2V58.816a3,3,0,0,0,.936-.543L60.5,59.366l1-1.732-1.885-1.089a2.728,2.728,0,0,0,0-1.09L61.5,54.366ZM56.67,57a1,1,0,1,1,1-1A1,1,0,0,1,56.67,57Z"
    />
    <circle cx="58" cy="45" r="2" />
    <circle cx="4" cy="20" r="2" />
    <circle cx="48" cy="5" r="2" />
    <circle cx="7" cy="52" r="2" />
</svg>
