<?xml version="1.0" encoding="utf-8"?>
<!-- Generator: Adobe Illustrator 23.1.0, SVG Export Plug-In . SVG Version: 6.00 Build 0)  -->
<svg version="1.1" id="Laag_1" xmlns="http://www.w3.org/2000/svg" xmlns:xlink="http://www.w3.org/1999/xlink" x="0px" y="0px"
	 viewBox="0 0 112 105.7" style="enable-background:new 0 0 112 105.7;" xml:space="preserve">
<style type="text/css">
	.st0{fill:#99C551;}
</style>
<g id="Afgeronde_rechthoek_1">
	<g>
		<path class="st0" d="M57.1,2H55c-6.6,0-12,5.4-12,12v77.8c0,6.6,5.4,12,12,12h2.2c6.6,0,12-5.4,12-12V14C69.1,7.4,63.8,2,57.1,2z"
			/>
	</g>
</g>
<g id="Afgeronde_rechthoek_1_kopiëren">
	<g>
		<path class="st0" d="M95,39.9H17.3c-6.6,0-12,5.4-12,12v2.2c0,6.6,5.4,12,12,12H95c6.6,0,12-5.4,12-12v-2.2
			C107,45.3,101.7,39.9,95,39.9z"/>
	</g>
</g>
</svg>
