<?xml version="1.0" encoding="utf-8"?>
<!-- Generator: Adobe Illustrator 24.0.0, SVG Export Plug-In . SVG Version: 6.00 Build 0)  -->
<svg version="1.1" id="Laag_1" xmlns="http://www.w3.org/2000/svg" xmlns:xlink="http://www.w3.org/1999/xlink" x="0px" y="0px"
	 viewBox="0 0 112 105.7" style="enable-background:new 0 0 112 105.7;" xml:space="preserve">
<style type="text/css">
	.st0{fill:#FD4041;}
	.st1{fill:#C31C1B;}
</style>
<g>
	<path class="st0" d="M68.5,52.7c-1.6,0.6-3.2,1.3-4.8,1.9c-0.7,0.3-1.2,0.7-0.9,1.6c0.3,0.8,1,0.7,1.7,0.6c1.6-0.4,3-1.4,4.7-1.7
		c1.2,0.2,1.3,1.3,1.5,2.1c0.3,1.5,1.2,2.2,2.6,2.3c2,0.2,4,0.9,5.9,1.6c4.5,1.7,8.8,3.7,11,8.4c0.9,1.8,0.8,2-1.2,2
		c-9.2,0-18.3,0-27.5,0c-1,0-1.7-0.3-2.4-1c-4.3-4.4-8.7-8.7-13.1-13.1c-4.1-4.1-8.3-8.1-12.3-12.3c-0.9-1-2.7-1.6-2.5-3.2
		c0.1-1.5,1.9-2,2.9-3c3.7-3.8,7.5-7.5,11.3-11.3c1.5-1.5,1.8-1.5,2.9,0.5c0.8,1.5,1.8,2.9,3,4.2c3.3,3.4,7.1,5.8,11.9,6.6
		c1.3,0.2,1.6,1,0.9,2.1c-0.7,0-1.5,0-2.2,0.1c-1.4,0.1-2.3,0.8-2.2,2.2c0.1,1.4,0.8,2.4,2.5,2.4c1.4,0,2.4-0.8,3.6-1.2
		c0.7,1,1.3,2,1.2,3.3l-0.1,0.1c0,0-0.1-0.1-0.1-0.1c-0.2,0.1-0.4,0.2-0.5,0.2L66.1,48c0,0-0.2,0-0.2,0c-0.3,0.1-0.6,0.2-0.8,0.4
		c-1,0.8-2.2,1-3.3,1.5c-0.7,0.3-1.2,0.8-0.9,1.6c0.3,0.9,1.1,0.8,1.7,0.6c1.6-0.5,3.1-1.4,4.8-1.8C69.2,50.5,68.7,51.6,68.5,52.7z"
		/>
	<path class="st1" d="M64,40.9c0.8-1,0.5-1.9-0.9-2.1c-4.8-0.8-8.6-3.2-11.9-6.6c-1.2-1.3-2.2-2.7-3-4.2c-1.1-1.9-1.4-2-2.9-0.5
		C41.5,31.3,37.7,35,34,38.8c-1,1-2.7,1.5-2.9,3C31,43.3,32.7,44,33.6,45c4,4.1,8.2,8.2,12.3,12.3c4.4,4.4,8.7,8.7,13.1,13.1
		c0.7,0.7,1.4,1,2.4,1c9.2,0,18.3,0,27.5,0c2,0,2.1-0.2,1.2-2c-2.2-4.7-6.5-6.7-11-8.4c-1.9-0.7-3.8-1.3-5.9-1.6
		c-1.4-0.2-2.3-0.8-2.6-2.3c-0.2-0.8-0.3-1.9-1.5-2.1c1.9-1.4,2.1-1.4,2.6,0.7c0.4,1.5,1.3,2.1,2.8,2.4c4.8,1,9.4,2.7,13.2,5.9
		c2.1,1.7,3.6,3.9,4.3,6.5c0.2,0.6,0.4,1.1,0.9,1.5c1.3,1.2,1.2,2.6,0.7,4.1c-0.5,1.4-1.7,1.6-3,1.6c-10.8,0-21.5,0-32.3,0.1
		c-0.9,0-1.6-0.2-2.3-0.9C46.4,67,36.5,57.2,26.6,47.4c-2.4-2.4-1.8-4.9,1.5-5.9c0.6-0.2,1.1-0.5,1.5-0.9c5-4.9,10-9.7,15-14.6
		c1.8-1.7,3.4-1.5,4.5,0.6c3.2,5.8,7.9,9.6,14.5,10.7c1.9,0.3,2.5,1.7,2.5,2.9C66.3,42.2,64.9,41,64,40.9z M74.8,76.2
		C74.8,76.2,74.8,76.2,74.8,76.2c5.3,0,10.7,0,16-0.1c1.5,0,2.2-1.1,1.6-2.5c-0.4-1-1.3-0.8-2.1-0.8c-9.8,0-19.7,0.1-29.5,0.1
		c-1.1,0-1.8-0.3-2.6-1.1C53,66.9,47.8,61.8,42.6,56.6c-4.3-4.3-8.6-8.5-12.9-12.8c-1.1-1.1-2.4-0.9-2.9,0.5c-0.4,1.1,0.4,1.6,1,2.2
		c9.4,9.3,18.8,18.6,28.2,27.9c1.3,1.3,2.5,1.9,4.3,1.8C65.2,76.2,70,76.2,74.8,76.2z"/>
	<path class="st1" d="M32.5,72.9c-2.5,0-5,0-7.4,0c-0.5,0-1.4,0.4-1.4-0.7c0-1,0.7-0.8,1.3-0.8c5.1,0,10.2,0,15.2,0
		c0.5,0,1.2-0.2,1.2,0.7c0,1.1-0.7,0.8-1.3,0.8C37.6,72.9,35,72.9,32.5,72.9z"/>
	<path class="st0" d="M40.9,77.6c-2.5,0-5.1,0-7.6,0c-0.6,0-1.3,0.2-1.3-0.8c0-1,0.7-0.8,1.3-0.8c5.1,0,10.1,0,15.2,0
		c0.6,0,1.3-0.2,1.3,0.8c0,1-0.7,0.8-1.3,0.8C46,77.6,43.4,77.6,40.9,77.6z"/>
	<path class="st1" d="M27.4,66.9c2.5,0,5.1,0,7.6,0c0.5,0,1.1-0.2,1.1,0.7c0,0.9-0.6,0.7-1.2,0.7c-5.1,0-10.3,0-15.4,0
		c-0.5,0-1.2,0.3-1.2-0.6c-0.1-1,0.7-0.8,1.3-0.8C22.2,66.9,24.8,66.9,27.4,66.9z"/>
	<path class="st1" d="M66.9,47.6c0.1-1.3-0.5-2.3-1.2-3.3c1.1-1.3,1.8-0.9,2.2,0.6c0.1,0.2,0.1,0.5,0.2,0.7
		C68.9,47,68.6,47.7,66.9,47.6z"/>
	<path class="st1" d="M68.5,52.7c0.2-1.1,0.7-2.2-1.1-2.4c0.6-0.3,1.3-0.7,1.9-1C70.7,51.9,70.7,51.9,68.5,52.7z"/>
	<path class="st0" d="M64.6,42.9c-1.2,0.5-1.9,1.3-2.9,0.8c-0.3-0.2-0.4-0.6-0.2-0.8C62.3,42.1,63.2,42.5,64.6,42.9z"/>
	<path class="st1" d="M65.1,48.4c0.3-0.1,0.6-0.2,0.8-0.4C65.8,48.4,65.4,48.4,65.1,48.4z"/>
	<path class="st1" d="M66.2,47.9c0.2-0.1,0.4-0.2,0.5-0.2C66.6,47.7,66.4,47.8,66.2,47.9z"/>
</g>
</svg>
