<?xml version="1.0" encoding="utf-8"?>
<!-- Generator: Adobe Illustrator 23.1.0, SVG Export Plug-In . SVG Version: 6.00 Build 0)  -->
<svg version="1.1" id="Laag_1" xmlns="http://www.w3.org/2000/svg" xmlns:xlink="http://www.w3.org/1999/xlink" x="0px" y="0px"
	 viewBox="0 0 112 105.7" style="enable-background:new 0 0 112 105.7;" xml:space="preserve">
<style type="text/css">
	.st0{fill:#CEE8E8;}
	.st1{fill:#FDCE10;}
	.st2{fill:#D1D2D4;}
	.st3{fill:#FFFFFF;}
	.st4{fill:#E9EAEB;}
	.st5{fill:#D4A84C;}
	.st6{fill:#A6A8AC;}
	.st7{fill:#E52526;}
	.st8{fill:#58C1D7;}
	.st9{fill:#25AEBB;}
	.st10{fill:#108289;}
	.st11{fill:#12A0A8;}
	.st12{fill:#FEFFFF;}
	.st13{fill:#C2E4EC;}
	.st14{fill:#63A230;}
	.st15{fill:#98C450;}
</style>
<g>
	<path class="st0" d="M990.4,92.7c0.8,0.2,1.6,0.1,2.4,0.1c1.1,0,1.8,0.5,2,1.5c0.2,1-0.2,1.8-1.2,2.2c-1.5,0.5-0.9,1.8-0.9,2.8
		c0.1,2,0.2,2,2.2,1.6c5.8-1.1,10.9,0.7,15.5,4.3c3.1,2.5,5.5,5.5,7.1,9.1c2.2,4.7,3.1,9.5,2.5,14.7c-0.4,3.6-1.6,7-3.4,10.1
		c-0.5,0.8-1.1,1.5-1.7,2.1c-0.6,0.6-0.8,1.3-0.6,2.1c0.7,3,1,6,0.9,9c-0.2,3.8-0.9,7.6-2.4,11.1c-2,4.7-4.9,8.7-8.8,12
		c-1.5,1.3-3,2-5.1,1.9c-8.5-0.1-17,0-25.5,0c-0.9,0-1.7-0.2-2.6,0c-2.7,0.5-4.5-0.9-6.3-2.6c-3.5-3.2-6.2-6.9-8-11.3
		c-1.3-3.4-2.1-6.9-2.4-10.5c-0.2-3.4,0.2-6.6,0.9-9.8c0.7-3,2-5.9,3.7-8.6c1.2-2,2.6-3.9,4.2-5.5c3.4-3.4,7.3-6.2,11.9-7.6
		c1.2-0.4,1.8-0.9,1.8-2.4c-0.1-4.8-0.2-9.7,0-14.5c0.1-1.9-0.3-3.8,0.1-5.7c0.2-0.9,0-1.7-1-2.2c-0.9-0.4-1.4-1.3-1-2.4
		c0.3-1,1.1-1.4,2.1-1.4c0.7,0,1.4,0.1,2.1-0.1C982.8,92.7,986.6,92.7,990.4,92.7z M984.7,134.3c-6.6,0-13.2,0-19.8,0
		c-0.9,0-1.5,0.3-1.9,1c-3.6,5.4-5.1,11.4-4.5,17.9c0.6,6.9,3.5,12.7,8.5,17.6c1.7,1.7,3.5,2.9,6.1,2.5c1.1-0.2,2.2-0.1,3.3-0.1
		c6.5,0.1,13-0.1,19.4,0.2c2.8,0.1,4.8-0.8,6.7-2.7c6.6-6.6,9.3-14.6,8.1-23.8c-0.5-4.1-2.1-7.9-4.4-11.4c-0.5-0.7-1-1-1.9-1
		C997.8,134.3,991.3,134.3,984.7,134.3z M1013.7,127.1c0-4.2-0.8-7.6-2.4-10.7c-2.4-4.5-5.8-8-11-9.1c-2.4-0.5-4.8-0.3-7,1
		c-0.4,0.2-0.6,0.5-0.6,1c0,3.5,0,7,0,10.5c0,0.5,0.2,0.8,0.8,1c1.7,0.6,3.4,1.2,5,2c5.2,2.7,9.3,6.7,12.4,11.6c0.4,0.7,0.6,0.6,1,0
		C1013.2,132.1,1013.6,129.3,1013.7,127.1z"/>
	<path class="st1" d="M990.4,92.7c-3.8,0-7.6,0-11.4,0c0-3.3,0-6.6,0-9.9c0-1.1,0.4-2,1.3-2.6c0.5,0.4,0.9-0.4,1.3-0.2
		c1.6,0.7,3.2,0.3,4.8,0.2c0.4,0,0.6,0.1,0.9,0.3c0.6,0.4,0.9,1.7,2.1,1c0.1,0,0.4,0.3,0.5,0.5c0.2,0.3,0.2,0.6,0.5,0.7
		C990.3,86,990.4,89.4,990.4,92.7z M989.6,82.3c-0.5,0.6-0.3,1-0.1,1.5C989.8,83.4,989.8,82.9,989.6,82.3z"/>
	<path class="st0" d="M990.5,82.7c-0.4-0.1-0.4-0.5-0.5-0.7c-0.1-0.2-0.4-0.5-0.5-0.5c-1.2,0.7-1.5-0.6-2.1-1
		c-0.3-0.2-0.5-0.3-0.9-0.3c-1.6,0.2-3.2,0.5-4.8-0.2c-0.4-0.2-0.8,0.6-1.3,0.2c0.3-0.5,0.9-0.8,1.4-0.8c2.2,0,4.3-0.4,6.5,0.2
		C989.6,80.1,990.5,81.1,990.5,82.7z"/>
	<path class="st1" d="M984.7,134.3c6.6,0,13.1,0,19.7,0c0.9,0,1.5,0.3,1.9,1c2.3,3.5,3.8,7.3,4.4,11.4c1.2,9.2-1.5,17.2-8.1,23.8
		c-1.9,1.9-3.9,2.9-6.7,2.7c-6.5-0.2-12.9-0.1-19.4-0.2c-1.1,0-2.2,0-3.3,0.1c-2.6,0.4-4.4-0.8-6.1-2.5c-5-4.8-7.9-10.6-8.5-17.6
		c-0.6-6.5,0.9-12.4,4.5-17.9c0.5-0.7,1-1,1.9-1C971.5,134.3,978.1,134.3,984.7,134.3z"/>
	<path class="st0" d="M989.6,82.3c0.2,0.6,0.2,1.1-0.1,1.5C989.3,83.3,989.1,82.8,989.6,82.3z"/>
</g>
<g>
	<path class="st2" d="M1082,155.3c-0.7,1-1.6,1.8-2,3c-0.5,1.2-0.2,1.9,0.5,2.8c0.1,2.1,1.5,3.3,3.2,4.4c-0.8,0.3-1-0.5-1.5-0.2
		c1,1.7,1,1.7,2.9,1.1c3.5-1.2,7.1-2.5,10.6-3.7c2.2-0.8,4.3-1.7,6.6-2.4c1.6-0.5,3.2-1.2,4.8-1.6c1.7-0.4,2.8-2,4.6-2
		c0,0,0.1,0,0.1-0.1c1.4-0.9,3.1-0.8,4.5-1.8c0.1-0.1,0.3,0,0.4,0.1c0.5,0.4,1.1,0.6,1.7,0.2c0.6-0.4,0.9-0.9,0.9-1.9
		c0.1,0.6,0.1,1,0.3,1.2c0.4,0.5,0.9,1,1.6,1c0.4,0,0.9-0.1,1-0.6c0.1-0.2-0.1-0.5,0.3-0.5c0.2,0,0.3,0.2,0.3,0.4
		c0.1,0.4,0.5,0.7,0.6,0.3c0.4-1.3,0.8-0.4,1.2-0.1c0.3,0.2,0.6,0.4,1,0.1c-0.2-0.2-0.3-0.4-0.5-0.5c-0.8-0.7-0.7-1.2,0.2-1.7
		c0.6-0.4,1.3-0.5,2-0.7c4.6-1.6,9.2-3.2,13.8-4.8c0.8-0.3,1.4-0.2,1.8,0.5c0.2,1.1-0.2,2.1-0.5,3.1c-0.2,0-0.2-0.3-0.5-0.2
		c-1.7,0.6-3.4,1.3-5.2,1.9c-3.2,1-6.3,2.1-9.4,3.3c-0.9,0.3-1.9,0.5-2.2,1.7c-0.1,0.2-0.3,0.3-0.5,0.2c-1.1-0.4-2.2,0.6-3.4,0.1
		c-0.1,0-0.3,0-0.3,0c-0.9,0.8-2.2,0.7-3.2,1.2c-1.7,0.7-3.4,1.3-5.1,1.9c-2.1,0.8-4.2,1.4-6.2,2.1c-2.1,0.8-4.2,1.4-6.3,2.3
		c-4.6,1.8-9.3,3.3-14,4.8c-1,0.3-1.2,0.8-1.2,1.7c0,0.7,0,1.4-0.8,2.1c0.5-1.1,0.3-2.1,0.3-3.3c-0.3,0.7-0.5,1-0.7,1.6
		c-0.3-0.6-0.4-1.2-1-1.1c-0.2-0.5-0.2-1.1-0.2-1.7c0.3-0.2,0.1-0.4-0.1-0.5l0-0.1l0.1,0c0-0.2,0-0.5-0.3-0.6l0,0
		c0-0.2-0.1-0.3-0.2-0.3l0,0c0-0.2,0-0.4-0.3-0.5l0,0c0.9-0.7,0.8-1.3-0.1-1.9c-0.5-0.4-0.8,0.1-1.2,0c-0.4-0.4-0.6-0.9-1.1-1.2
		c-0.3-0.8-0.4-1.7-1.2-2.2c-0.5-1.1-1.3-2-1.7-3.2c-0.1,1.5-0.7,2.9-0.9,4.3c-0.8,0.3-1.8,0.3-2.3,1.2c-1.4,2.6-1.3,5.3-0.3,8
		c0.5,1.3,1.4,2,2.3,2.9c1.2,1.2,2.4,2.1,4.1,1.7c-0.3,1.2-1.5,0.6-2.2,1.1c-0.2,0-0.3,0-0.5,0c0-0.3-0.1-0.4-0.4-0.5
		c-3.5-1.8-5.5-4.9-6.3-8.7c-0.4-1.9-1.5-3.4-2.3-5.1c-1.9-3.8-1.6-7.4,1.5-10.5c0.5-0.5,0.9-1.1,1.4-1.7c1.4-2,1.3-3.9-0.1-5.9
		c-0.6-0.8-1-1.7-1.3-2.7c0.5-0.1,0.8,0.5,1.3,0.5c3-0.2,6.1,0.5,9-0.5c0.2,2.4,0.5,4.7,0.7,7.1c0.1,0.8,0,1.7-0.7,2.3
		c-0.6-0.5-1-1.7-2.1-0.5c-0.4,0.4-0.7,0.6,0.1,0.8c0.5,0.1,0.4,0.6,0.3,0.9c0,0.6,0.2,1,0.7,1.2c-0.3,0.8-0.3,1.5-0.2,2.5
		c0.4-1.2,0.7-2.3,1.6-3C1080.6,155,1081.2,155.4,1082,155.3z M1075.8,151c-0.7-0.1-1.3,0-1.5,0.8c-0.2,0.8,0.3,1.1,1,1.4
		c0.4,0.2,1,0.3,0.9,1c-0.2,0.6-0.7,0.5-1.2,0.3c-0.2-0.1-0.4-0.1-0.5,0.1c-0.1,0.3,0.1,0.4,0.4,0.5c0.8,0.4,1.5,0.3,2-0.5
		c0.5-0.8,0-1.4-0.7-1.8c-0.2-0.1-0.4-0.1-0.5-0.2c-0.2-0.2-0.5-0.3-0.4-0.6c0.1-0.4,0.4-0.4,0.8-0.4c0.3,0,0.7,0.4,0.7-0.1
		C1076.6,150.8,1076.1,151,1075.8,151z M1073.8,153.7c-0.2-0.4,0.3-1.4-0.4-1.4c-0.7,0-0.3,0.9-0.3,1.4c0,0.4-0.4,1.2,0.4,1.2
		C1074,154.9,1073.7,154.1,1073.8,153.7z"/>
	<path class="st2" d="M1063,154.1c1.1-1.8,2.6-3.3,3.9-5c0.5-0.6,0.2-1.4,0-2.1c-0.8-2.2-1.5-4.5-1.8-6.9c-0.1-0.9-0.1-1.7-0.1-2.6
		c0-0.4,0.2-0.8,0.7-0.8c0.4,0,0.4,0.4,0.5,0.7c0.2,1.2,0.3,2.3,0.5,3.5c0.3,1.7,1.2,3.1,2,4.6c1.7,3.3,0.8,5.6-1.3,7.9
		c-2.4,2.6-2.9,6.2-1.3,9.5c1,2.1,2.3,4,3.1,6.2c0.2,0.6,0.5,1.1,0.4,1.7c0,0.4-0.2,0.6-0.5,0.7c-0.3,0.1-0.5-0.1-0.6-0.4
		c-1.3-3.4-4.3-6-4.8-9.8c0-0.2-0.2-0.3-0.4-0.3c0-0.2,0-0.5,0-0.7c0.3-0.2,0.3-0.5,0-0.7C1063,157.7,1063,155.9,1063,154.1z"/>
	<path class="st3" d="M1063,159.6c0.3,0.2,0.3,0.5,0,0.7C1063,160.1,1063,159.8,1063,159.6z"/>
	<path class="st4" d="M1143,147.6c-0.4-0.7-1-0.8-1.8-0.5c-4.6,1.6-9.2,3.2-13.8,4.8c-0.7,0.2-1.4,0.3-2,0.7c-0.9,0.6-1,1.1-0.2,1.7
		c0.2,0.1,0.3,0.3,0.5,0.5c-0.4,0.3-0.7,0.1-1-0.1c-0.4-0.3-0.8-1.2-1.2,0.1c-0.1,0.4-0.5,0.1-0.6-0.3c0-0.2-0.1-0.4-0.3-0.4
		c-0.4,0-0.3,0.3-0.3,0.5c-0.1,0.5-0.6,0.6-1,0.6c-0.7,0-1.2-0.4-1.6-1c-0.2-0.2-0.2-0.6-0.3-1.2c0,1-0.3,1.5-0.9,1.9
		c-0.7,0.4-1.2,0.2-1.7-0.2c-0.1-0.1-0.3-0.2-0.4-0.1c-1.4,1-3.1,0.9-4.5,1.8c0,0-0.1,0.1-0.1,0.1c-1.8,0-3,1.6-4.6,2
		c-1.7,0.4-3.2,1.1-4.8,1.6c-2.2,0.7-4.4,1.6-6.6,2.4c-3.5,1.3-7.1,2.5-10.6,3.7c-1.9,0.6-1.9,0.6-2.9-1.1c0.5-0.2,0.7,0.5,1.5,0.2
		c-1.7-1.1-3.1-2.3-3.2-4.4c2.7-0.7,5.1-1.9,7.7-2.9c4.9-1.9,9.7-3.9,14.6-5.8c0.2-0.1,0.5-0.1,0.7-0.1c0,0,0.1,0.1,0.1,0.1
		c0,0-0.1-0.1-0.1-0.1c0.5-0.5,1.3-0.6,1.9-0.9c0.1,0.1,0.1,0.3,0.2,0.3c0.3,0,0.2-0.2,0.3-0.4c0.5-0.5,1.2-0.6,1.9-0.7
		c0.1,0.2,0.2,0.2,0.3,0c0,0,0.1,0,0.1,0c0.6,0.5,1.3,0.6,1.9-0.1c0.2-0.2,0.5-0.3,0.7-0.4c1.6-0.6,3.3-1.1,4.9-1.7
		c2.6-0.9,5.2-1.8,7.8-2.7c2-0.7,4-1.3,6-2c2.9-1,5.6-2.2,8.5-3c0.5-0.1,0.9-0.4,0.9-1C1141.7,141.6,1142.8,144.4,1143,147.6z"/>
	<path class="st5" d="M1143,147.6c-0.2-3.2-1.3-6-4-7.9c-0.5-0.6-1.4-0.6-2-0.9c2.3-1.2,4.8-2,7.2-3c6.5-2.6,12.9-5.2,19.4-7.7
		c2.2-0.9,4.4-0.1,5.8,1.9c-1,0.1-1.6,0.6-1.6,1.7c-0.3-0.1-0.5-0.1-0.8-0.3c-0.4-0.2-1.1-0.1-1.1-0.7c0.1-0.7,0.7-0.3,1.1-0.4
		c0.2,0,0.3,0,0.3-0.2c0-0.3-0.2-0.3-0.4-0.4c-0.8-0.2-1.6-0.2-2,0.5c-0.4,0.8,0.2,1.4,1,1.7c0.4,0.2,1.1,0.2,0.9,0.9
		c-0.2,0.5-0.8,0.4-1.3,0.2c-0.2-0.1-0.5-0.2-0.6,0.1c-0.2,0.3,0.1,0.5,0.4,0.6c0.6,0.3,1.2,0.3,1.7,0c0.9-0.4,0.6-1.3,0.7-2
		c0.7-0.1,0.7,0.4,0.8,0.9c0.1,1.3,0.4,1.4,1.5,1c-1-1.2-0.9-1.9,0.4-2.3c0.9,1.6,1.6,3.1,1.7,5c0.1,2.4-1.1,4.3-3.3,5.2
		c-4.9,1.9-9.7,3.9-14.6,5.9c-3.7,1.5-7.4,3-11.1,4.4c-0.3,0.1-0.6,0.2-0.9,0.2c-0.2-0.5,0.4-0.8,0.4-1.3
		C1142.7,149.7,1143.1,148.7,1143,147.6z M1164.3,132.4C1164.3,132.4,1164.3,132.4,1164.3,132.4c0-0.2,0-0.4,0-0.6
		c0-0.3,0.2-0.8-0.3-0.9c-0.6,0-0.4,0.5-0.4,0.8c0,0.4,0,0.9,0,1.3c0,0.3,0,0.6,0.4,0.6c0.5,0,0.4-0.4,0.4-0.7
		C1164.3,132.8,1164.3,132.6,1164.3,132.4z"/>
	<path class="st4" d="M1079.5,143.3c-3,1-6,0.2-9,0.5c-0.5,0-0.8-0.6-1.3-0.5c-1.3-2.1-1.7-4.5-1.9-6.9c-0.4-4,0.4-7.7,2.7-11.1
		c2-3,1.9-6.3,1.5-9.7c-0.3-2.8-1-5.5-0.8-8.4c0-0.8,0.1-1.4,1.1-1c0.2,0.1,0.4,0.1,0.6,0.1c2.3,0.1,2.7,0.7,2.7,3
		c0,1.3,0.7,2.6,1,3.9c0.5,2.1,1,4.3,1.2,6.4c0.1,1.9-0.4,3.8-0.8,5.6c-0.3,1.7-0.7,3.4-0.8,5.2c-0.2,2.2,0.7,4.1,1.7,6
		C1078.6,138.5,1079.1,140.9,1079.5,143.3z"/>
	<path class="st6" d="M1142.5,150.7c-0.1,0.5-0.6,0.7-0.4,1.3c0,0,0,0,0,0c-0.2,0-0.4,0-0.5,0.2c-3.3,1.6-6.8,2.8-10.3,4.2
		c-16.4,6.6-32.8,13.1-49.2,19.7c-0.6,0.2-1.1,0.3-1.7,0.4c0,0-0.1,0-0.1,0c0.4-0.3,0.7-0.6,1.1-0.9c0.7-0.5,0.8-1.2,1-1.9
		c0.2-0.8-0.3-1.7,0.2-2.5c0.7-0.1,0.8,0.5,1,1.1c0.2-0.5,0.4-0.9,0.7-1.6c0,1.3,0.1,2.2-0.3,3.3c0.8-0.7,0.8-1.4,0.8-2.1
		c0-0.9,0.3-1.4,1.2-1.7c4.7-1.5,9.4-3.1,14-4.8c2.1-0.8,4.2-1.5,6.3-2.3c2-0.8,4.2-1.4,6.2-2.1c1.7-0.6,3.5-1.2,5.1-1.9
		c1.1-0.5,2.3-0.4,3.2-1.2c0.1-0.1,0.3-0.1,0.3,0c1.1,0.5,2.2-0.6,3.4-0.1c0.2,0.1,0.4-0.1,0.5-0.2c0.3-1.1,1.3-1.3,2.2-1.7
		c3.1-1.1,6.2-2.3,9.4-3.3c1.8-0.6,3.5-1.3,5.2-1.9C1142.3,150.4,1142.3,150.7,1142.5,150.7z M1083.7,174.1c-0.1,0-0.1-0.1-0.2-0.1
		c0,0-0.1,0-0.1,0c0,0,0,0.1,0.1,0.1C1083.5,174.1,1083.6,174.1,1083.7,174.1z"/>
	<path class="st7" d="M1082.6,171c-0.4,0.8,0.1,1.7-0.2,2.5c-0.2,0.7-0.3,1.5-1,1.9c-0.4-0.1,0.1-0.8-0.5-0.8
		c-0.8,0.1-0.7,1-1.2,1.4c-0.2,0.2,0.4,0.1,0.6,0.3c0,0,0.1,0,0.1,0c-0.3,0.3-0.7,0.5-1,0.8c-1.8,0.4-3-0.5-4.1-1.7
		c-0.9-0.9-1.8-1.6-2.3-2.9c-1-2.7-1.1-5.4,0.3-8c0.5-0.9,1.5-0.9,2.3-1.2c0.4-0.1,0.8-0.2,1.1-0.1c1,0.1,1.8,0.6,2.6,1.2
		c0.5,0.2,0.7,0.8,1.1,1.2c0.4,0.6,0.9,1.3,1.3,1.9c0,0,0,0,0,0c0.1,0.2,0.2,0.3,0.3,0.5c0,0,0,0,0,0c0.1,0.1,0.1,0.2,0.2,0.3
		c0,0,0,0,0,0c0,0.2,0,0.5,0.3,0.6l-0.1,0c0,0,0,0.1,0,0.1c0,0.2,0.1,0.3,0.1,0.5C1082.4,169.9,1082.4,170.5,1082.6,171z
		 M1073.9,172.4c-0.3,0.8,0.1,1.6,0.6,1.6c1-0.1,1.4,0.5,1.7,1.1c0.5,0.9,1.2,0.8,2,0.5c-1.4,0.1-1.5-1.3-2.3-1.8
		C1075.3,173.3,1074,173.8,1073.9,172.4z M1076.7,167c0.7-1.3,0.6-1.5-0.5-1.5c-0.4,0-0.6-0.3-0.7-0.5c-0.1-0.3-0.2-0.6-0.5-0.4
		c-0.3,0.2-0.8,0.4-0.8,0.9c0,0.3,0.2,0.5,0.6,0.5C1075.5,166,1076.3,166.1,1076.7,167z M1078.9,171.9c-0.4,1.5-1.8,0.5-2.6,1.1
		C1078.2,173.8,1079.1,173.5,1078.9,171.9z M1079.4,169.9c0.2-1.8-0.4-2.7-1.8-2.8C1078.7,167.7,1079.1,168.7,1079.4,169.9z
		 M1078.7,164.9c-0.2,0.1-0.5,0.2-0.5,0.5c0.1,0.7,0.6,1.1,1.2,1.3c0.1,0.1,0.3-0.1,0.3-0.3C1079.5,165.9,1079.5,165.2,1078.7,164.9
		z M1081.6,169.6c-0.3-0.2,0.2-1-0.5-1.1c-0.4,0-0.5,0.3-0.5,0.7c0.1,0.5,0.2,1,0.7,1.1C1081.5,170.3,1081.7,169.9,1081.6,169.6z
		 M1074.9,170.2c0.1,0,0.2,0,0.3,0.1c0.2-0.9,0.5-1.7,0.7-2.6C1075.2,168.4,1074.8,169.2,1074.9,170.2z M1074.4,167.2
		c-1,0.6-0.8,1.6-0.8,2.5C1074.2,169,1073.9,168,1074.4,167.2z M1078.7,174.4c1.1,0.3,1.8-0.2,2.2-1.2
		C1080.3,173.8,1079.5,174.1,1078.7,174.4z M1077.1,171.4c-0.6-0.9,0.1-2-0.4-3C1077.2,169.3,1075.7,170.6,1077.1,171.4z"/>
	<path class="st2" d="M1136.9,138.7c0.7,0.4,1.5,0.3,2,0.9c-0.1,0.6-0.4,0.8-0.9,1c-2.9,0.7-5.7,2-8.5,3c-2,0.7-4,1.3-6,2
		c-2.6,0.9-5.2,1.8-7.8,2.7c-1.6,0.6-3.3,1.1-4.9,1.7c-0.3,0.1-0.6,0.2-0.7,0.4c-0.6,0.7-1.2,0.6-1.9,0.1c0.1-0.5,0.5-0.5,0.9-0.7
		c8.8-3.5,17.6-7.1,26.4-10.6C1136,139,1136.5,138.9,1136.9,138.7z"/>
	<path class="st4" d="M1077.6,109.8c0.4,1.9,0.5,2.1,1.9,2c-0.3-0.4-1-0.5-0.9-1.2c0.1-0.6,0-1.2,0.8-1.1c0-0.5-0.5-0.3-0.6-0.5
		c-0.2-0.2-0.2-0.4,0-0.5c0.3-0.2,1.6,0.6,1.5,0.9c-0.6,1.2,0.2,2.3,0.3,3.4c0.4,3,0.3,6-0.7,8.9c-0.6,1.7-1.1,3.5-1.2,5.3
		c-0.1,1.1,0.2,2.3,0.3,3.4c0.1,0.5,0.3,1.1-0.4,1.3c-0.7,0.1-0.8-0.5-0.9-1c-0.5-2.8-0.4-5.6,0.1-8.4c0.6-3.7,1-7.3,0-11
		c-0.1-0.2-0.1-0.4-0.1-0.6C1077.6,110.5,1077.6,110.1,1077.6,109.8z"/>
	<path class="st2" d="M1081.7,152.4c0.4-2.7,0.3-5.4-0.7-8c-0.2-0.6-1-1.6,0-2c0.8-0.4,1.2,0.8,1.5,1.4c1.3,2.8,1.4,5.7,0.8,8.7
		c0,0.2-0.1,0.4-0.1,0.6C1082.7,152.9,1082.4,152.3,1081.7,152.4z"/>
	<path class="st2" d="M1170.3,131.2c-1.3,0.4-1.4,1.1-0.4,2.3c-1.2,0.4-1.4,0.2-1.5-1c-0.1-0.5,0-1-0.8-0.9l0,0
		c0-1.1,0.6-1.6,1.6-1.7C1169.4,130.5,1170.3,130.5,1170.3,131.2z"/>
	<path class="st4" d="M1078.6,155c-0.5-0.2-0.8-0.6-0.7-1.2c0-0.3,0.1-0.8-0.3-0.9c-0.8-0.2-0.5-0.3-0.1-0.8c1.1-1.1,1.5,0,2.1,0.5
		c0,0.1,0,0.1,0,0.2c-1.1,0.2-1.2,0.4-0.7,1.7C1078.8,154.8,1078.8,154.9,1078.6,155z"/>
	<path class="st4" d="M1081.7,152.4c0.7-0.2,1,0.5,1.5,0.7c0,0.9-0.6,1.5-1.2,2.1c-0.8,0.1-1.4-0.3-2-0.8c0.2-0.1,0.3-0.3,0.5-0.4
		c1,0.6,1.7,0.5,1.9-0.3c0.1-0.6-0.5-0.7-0.6-1.2C1081.7,152.5,1081.7,152.5,1081.7,152.4z"/>
	<path class="st2" d="M1081.7,152.6c0.1,0.5,0.8,0.6,0.6,1.2c-0.2,0.8-0.8,0.9-1.9,0.3C1080.7,153.5,1081,152.8,1081.7,152.6z"/>
	<path class="st2" d="M1078.8,154.6c-0.5-1.3-0.4-1.6,0.7-1.7C1079.5,153.5,1079.3,154.1,1078.8,154.6z"/>
	<path class="st2" d="M1105.9,151.2c0,0.2,0,0.4-0.3,0.4c-0.1,0-0.1-0.2-0.2-0.3C1105.6,151.2,1105.7,151.2,1105.9,151.2z"/>
	<path class="st5" d="M1141.6,152.2c0.1-0.2,0.3-0.2,0.5-0.2C1142,152.2,1141.8,152.2,1141.6,152.2z"/>
	<path class="st2" d="M1108.1,150.5c-0.1,0.2-0.2,0.2-0.3,0C1107.9,150.5,1108,150.5,1108.1,150.5z"/>
	<path class="st4" d="M1075.8,151c0.2,0.1,0.8-0.2,0.8,0.4c0,0.6-0.5,0.1-0.7,0.1c-0.3,0-0.7,0-0.8,0.4c-0.1,0.3,0.2,0.5,0.4,0.6
		c0.2,0.1,0.4,0.1,0.5,0.2c0.7,0.4,1.1,1,0.7,1.8c-0.4,0.8-1.2,0.9-2,0.5c-0.2-0.1-0.5-0.2-0.4-0.5c0.1-0.2,0.3-0.2,0.5-0.1
		c0.5,0.2,1,0.3,1.2-0.3c0.2-0.6-0.5-0.8-0.9-1c-0.6-0.3-1.2-0.6-1-1.4C1074.5,151,1075.1,150.9,1075.8,151z"/>
	<path class="st3" d="M1076.7,163.3c-0.4-0.1-0.8,0-1.1,0.1c0.2-1.4,0.7-2.8,0.9-4.3c0.5,1.1,1.2,2.1,1.7,3.2
		C1077.5,162.4,1076.8,162.5,1076.7,163.3z"/>
	<path class="st4" d="M1076.7,163.3c0.2-0.8,0.9-0.9,1.5-1.1c0.8,0.5,0.9,1.4,1.2,2.2C1078.5,163.8,1077.7,163.3,1076.7,163.3z"/>
	<path class="st4" d="M1081.6,167.5c-0.4-0.6-0.9-1.3-1.3-1.9c0.4,0.1,0.7-0.3,1.2,0C1082.4,166.3,1082.5,166.8,1081.6,167.5z"/>
	<path class="st4" d="M1073.8,153.7c-0.1,0.4,0.2,1.2-0.3,1.2c-0.8,0-0.4-0.8-0.4-1.2c0-0.5-0.4-1.4,0.3-1.4
		C1074.2,152.3,1073.6,153.2,1073.8,153.7z"/>
	<path class="st4" d="M1081.9,168c-0.1-0.2-0.2-0.3-0.3-0.5C1081.9,167.6,1081.9,167.8,1081.9,168z"/>
	<path class="st4" d="M1082.4,168.8c-0.3-0.1-0.3-0.4-0.3-0.6C1082.4,168.3,1082.4,168.6,1082.4,168.8z"/>
	<path class="st4" d="M1082.4,169.4c0-0.2-0.1-0.3-0.1-0.5C1082.6,169,1082.8,169.1,1082.4,169.4z"/>
	<path class="st4" d="M1082.1,168.3c-0.1-0.1-0.1-0.2-0.2-0.3C1082.1,168,1082.1,168.1,1082.1,168.3z"/>
	<path class="st2" d="M1103.5,152.1c0,0,0.1,0.1,0.1,0.1C1103.5,152.2,1103.5,152.2,1103.5,152.1
		C1103.5,152.2,1103.5,152.1,1103.5,152.1z"/>
	<path class="st2" d="M1167.6,131.6c0,0.7,0.2,1.6-0.7,2c-0.6,0.3-1.2,0.3-1.7,0c-0.2-0.1-0.5-0.3-0.4-0.6c0.1-0.3,0.4-0.2,0.6-0.1
		c0.5,0.2,1.1,0.4,1.3-0.2c0.2-0.6-0.5-0.7-0.9-0.9c-0.8-0.4-1.4-0.9-1-1.7c0.4-0.8,1.2-0.7,2-0.5c0.2,0,0.4,0.1,0.4,0.4
		c0,0.2-0.2,0.2-0.3,0.2c-0.4,0.1-1.1-0.3-1.1,0.4c0,0.6,0.7,0.5,1.1,0.7C1167.1,131.4,1167.4,131.5,1167.6,131.6
		C1167.7,131.6,1167.6,131.6,1167.6,131.6z"/>
	<path class="st2" d="M1164.3,132.4c0,0.2,0,0.4,0,0.6c0,0.3,0.1,0.7-0.4,0.7c-0.4,0-0.4-0.4-0.4-0.6c0-0.4,0-0.9,0-1.3
		c0-0.3-0.2-0.8,0.4-0.8c0.5,0,0.3,0.6,0.3,0.9C1164.3,132,1164.3,132.2,1164.3,132.4C1164.3,132.4,1164.3,132.4,1164.3,132.4z"/>
	<path class="st5" d="M1080.3,176.4c-0.2-0.2-0.8-0.1-0.6-0.3c0.5-0.4,0.4-1.3,1.2-1.4c0.6,0,0.1,0.7,0.5,0.8
		C1081.1,175.8,1080.7,176.1,1080.3,176.4z"/>
	<path class="st2" d="M1083.7,174.1c-0.1,0-0.2,0.1-0.2,0.1c0,0,0-0.1-0.1-0.1c0,0,0.1,0,0.1,0C1083.6,174,1083.6,174,1083.7,174.1z
		"/>
	<path class="st5" d="M1073.9,172.4c0.1,1.4,1.4,0.8,2.1,1.3c0.8,0.6,0.9,2,2.3,1.8c-0.8,0.3-1.5,0.4-2-0.5
		c-0.3-0.6-0.7-1.2-1.7-1.1C1074,174,1073.6,173.2,1073.9,172.4z"/>
	<path class="st5" d="M1076.7,167c-0.4-0.9-1.2-1-1.9-1c-0.4,0-0.6-0.2-0.6-0.5c0-0.5,0.5-0.7,0.8-0.9c0.3-0.2,0.4,0.1,0.5,0.4
		c0.1,0.3,0.2,0.5,0.7,0.5C1077.3,165.5,1077.4,165.7,1076.7,167z"/>
	<path class="st5" d="M1078.9,171.9c0.2,1.6-0.8,1.9-2.6,1.1C1077.1,172.4,1078.5,173.4,1078.9,171.9z"/>
	<path class="st5" d="M1079.4,169.9c-0.2-1.2-0.6-2.2-1.8-2.8C1079,167.2,1079.6,168.1,1079.4,169.9z"/>
	<path class="st5" d="M1078.7,164.9c0.8,0.3,0.8,1,0.9,1.6c0.1,0.2-0.1,0.3-0.3,0.3c-0.6-0.3-1.1-0.7-1.2-1.3
		C1078.2,165.1,1078.5,165,1078.7,164.9z"/>
	<path class="st5" d="M1081.6,169.6c0.1,0.4,0,0.7-0.2,0.7c-0.6-0.1-0.7-0.6-0.7-1.1c-0.1-0.3,0.1-0.7,0.5-0.7
		C1081.8,168.6,1081.2,169.4,1081.6,169.6z"/>
	<path class="st5" d="M1074.9,170.2c-0.1-1,0.3-1.8,1-2.5c-0.2,0.9-0.5,1.7-0.7,2.6C1075.1,170.2,1075,170.2,1074.9,170.2z"/>
	<path class="st5" d="M1074.4,167.2c-0.5,0.8-0.2,1.8-0.8,2.5C1073.6,168.8,1073.4,167.8,1074.4,167.2z"/>
	<path class="st5" d="M1078.7,174.4c0.8-0.4,1.5-0.7,2.2-1.2C1080.5,174.2,1079.9,174.8,1078.7,174.4z"/>
	<path class="st5" d="M1077.1,171.4c-1.4-0.8,0.1-2-0.4-3C1077.2,169.3,1076.5,170.5,1077.1,171.4z"/>
</g>
<g>
	<path class="st8" d="M4.5,52.2c0-0.1,0-0.2,0-0.2c0.5-0.3,0.4-0.8,0.5-1.3c0.5-2.6,1.5-5,2.8-7.2C12.3,35.8,19.1,31,27.4,28
		c0.1-0.1,0.2-0.2,0.3-0.2c0,0,0,0,0,0c1.8-0.3,3.5-1,5.3-1.4c0.4-0.1,0.8-0.1,1.2-0.2c4.6-0.8,9.2-1.1,13.8-0.4
		c9.9,1.5,18.8,5.5,27.2,10.7c2.4,1.5,4.7,3.1,7.1,4.7c2.9,2.4,5.9,4.8,8.6,7.4c1.2,1.5,2.7,2.8,3.6,4.6c-1.8,1.3-3.9,2-5.9,2.8
		c0-0.4,0.1-0.7,0.1-1.1c0-2.7-1.9-5.2-4.3-5.8c-2.8-0.7-5.5,0.5-6.8,3c-1.3,2.4-0.9,4.8,1.2,7.3c-0.4,0.1-0.8,0.2-1.1,0.3
		c-1.6-3.1-4.1-4.5-6.9-3.9c-2.9,0.7-4.6,2.9-4.7,6.2c-1.9,0.3-3.8,0.3-5.7,0.8c-1.7-0.7-3.3-0.6-5,0.2c-2,0-3.9,0-5.9,0
		c-1.3,0-1.3,0-0.7-1.1c1.3-2.6,2-5.3,1.7-8.3c-0.4-3.6-1.8-6.7-4.1-9.4c-1.8-2.2-3.8-4.1-6.3-5.4c0,0-0.1,0-0.1,0l0.1,0.1
		c0,0.3,0.3,0.6,0.4,0.8c1.7,2.3,3.4,4.5,4.8,7c2.4,4.5,3.1,9.2,1.2,14.1c-0.3,0.7-0.8,1.4-0.9,2.2c-0.1,0-0.3,0.1-0.4,0.1
		c-3.1-0.3-6.2-0.6-9.2-1c-1.6-0.2-3.3-0.2-4.8-0.9c2.4-1.3,4.4-3.2,5.5-5.8c1.6-3.8,0.7-8.6-2-11.4c-3.4-3.4-7.9-4.4-12.3-2.6
		c-3.7,1.5-6.4,5.6-6.4,9.7c0,2.5,0.8,4.6,2.1,6.6c-0.2,0-0.3,0-0.5-0.1c-4-1.4-7.9-3.1-11.6-5.1C5.3,52.4,4.9,52.2,4.5,52.2z
		 M71.8,54.1c3.2,0,6-2.6,6-5.9c0.1-3.2-2.7-6-5.9-6c-3.2,0-6,2.7-6,5.9C65.9,51.3,68.6,54.1,71.8,54.1z M58,47.2
		c3.3,0,5.9-2.7,5.9-6c0-3.2-2.7-5.8-5.9-5.8c-3.2,0-6,2.8-6,5.9C52.1,44.6,54.8,47.2,58,47.2z M58,60.8c3.2,0,6-2.7,5.9-6
		c0-3.2-2.7-5.9-6-5.9c-3.2,0-6,2.7-5.9,5.9C52,58.1,54.8,60.9,58,60.8z"/>
	<path class="st9" d="M60.2,62.8c1.9-0.5,3.8-0.5,5.7-0.8c0.1,0.4,0.2,0.8,0.4,1.3c1.2,4.1,6.2,5.5,9.4,2.7c2-1.7,2.3-3.9,1.8-6.3
		c0.4-0.1,0.8-0.2,1.1-0.3c0.4,0.2,0.7,0.4,1.1,0.5c2.1,1.1,4.1,1.1,6.1-0.1c1.5-0.9,2.2-2.3,2.7-3.8c2.1-0.8,4.1-1.5,5.9-2.8
		c0.1,0,0.1,0,0.2,0c0.1,0.9,0.4,1.9,0,2.8c-0.5,1.2-1,2.3-1.8,3.3c-0.7,0.9-1.6,1.6-2,2.7c-0.3,0-0.5,0.2-0.7,0.4
		c-2.9,2.9-6.1,5.6-9.6,7.9c-0.7,0.5-1.6,0.8-2.1,1.6c-0.4,0-0.7,0.2-1.1,0.5c-4.1,2.5-8.4,4.8-12.8,6.7c-1.4,0.6-2.8,0.9-4,1.7
		c-1.3,0.1-2.5,0.7-3.8,1c-0.2,0-0.3,0-0.5,0.1c-7,2-14.1,2.4-21.2,1.1c-0.6-0.1-1.2-0.4-1.9-0.1c-0.5-0.3-1.1-0.5-1.6-0.7
		c-8.1-2.3-15-6.6-20.5-13.1c-0.6-0.7-0.6-1.1,0.2-1.7c1.7-1.3,3-3.1,3.7-5.2c0.2-0.6,0.6-1.1,0.4-1.9c-2.8,1.4-5.6,1.3-8.5,0.4
		c-0.8-0.2-1.2-0.7-1.5-1.5c-0.4-1.1-0.3-2.3-1-3.3c0-1.3,0-2.6,0-3.8c0.5,0,0.8,0.1,1.2,0.3c3.7,2,7.6,3.7,11.6,5.1
		c0.1,0.1,0.3,0.1,0.5,0.1c0.1,0.1,0.3,0.2,0.4,0.3c0,0.2,0.1,0.3,0.3,0.3c0,0.1,0.1,0.1,0.1,0.1c0.4,0.8,1.2,1.3,1.9,1.8
		c3,2,6.2,2.5,9.6,1.2c0.3-0.1,0.6-0.1,1-0.2c1.5,0.7,3.2,0.7,4.8,0.9c3.1,0.4,6.2,0.7,9.2,1c-0.3,1.1-1,1.8-1.7,2.7
		c-1,1.5-2.5,2.7-3.4,4.2c0,0,0,0,0,0l0,0c0.4,0,0.7-0.2,1-0.4c2.2-1.4,4.4-3,6-5.1c0.3-0.4,0.8-0.8,0.7-1.2
		c-0.2-0.5-0.8-0.2-1.3-0.3c-0.3-0.1-0.6-0.1-0.9-0.1c0.1-0.8,0.6-1.5,0.9-2.2c1.9-4.9,1.2-9.5-1.2-14.1c-1.4-2.5-3-4.8-4.8-7
		c-0.2-0.3-0.4-0.5-0.4-0.8l0,0c2.5,1.3,4.6,3.2,6.3,5.4c2.2,2.7,3.6,5.9,4.1,9.4c0.4,3-0.4,5.7-1.7,8.3C48.1,63,48.1,63,49.4,63
		c2,0,3.9,0,5.9,0c-0.5,0.4-1,0.8-1.4,1.3c-2.1,2.2-2.3,5.3-0.4,7.7c1.7,2.2,5,2.8,7.5,1.4c2.5-1.4,3.6-4.5,2.6-7.2
		C62.8,64.6,61.6,63.6,60.2,62.8z"/>
	<path class="st10" d="M109.3,67.8c-3.2-0.3-6.4-0.4-9.6-1.2c-3.3-0.9-6.4-2.1-8.9-4.7c0.4-1.1,1.3-1.8,2-2.7c0.8-1,1.3-2.2,1.8-3.3
		c0.4-0.9,0.2-1.9,0-2.8c0.2,0,0.3-0.1,0.5-0.1c4.3-2.3,8.5-5,12.1-8.3c0.6-0.6,1.2-1.2,2-1.4c0,0.3,0,0.6,0,1
		c-0.2,0-0.3,0.2-0.4,0.4c-1.1,3.8-3.6,6.5-6.7,8.8c-0.7,0.5-2.1,1-2,1.7c0.1,0.8,1.3,1.2,2.1,1.8c3,2.2,5.5,4.9,6.5,8.6
		c0.1,0.2,0.1,0.5,0.4,0.5C109.3,66.7,109.3,67.3,109.3,67.8z"/>
	<path class="st10" d="M56.3,92.1c-0.3-0.5-0.8-0.4-1.3-0.5c-7.6-1.2-14.7-3.7-21-8.1c-0.3-0.2-0.5-0.4-0.8-0.6
		c0.6-0.3,1.3,0,1.9,0.1c7.2,1.2,14.2,0.9,21.2-1.1c0.2,0,0.3-0.1,0.5-0.1c0.3,3.9,3.5,7.6,7.7,9c0.6,0.2,1.3,0.4,1.9,0.6
		c0,0.6-0.8,0.2-0.9,0.6C62.5,92.1,59.4,92.1,56.3,92.1z"/>
	<path class="st9" d="M78.1,12.7c0.3,0.5,0.8,0.4,1.3,0.4c6.9,0.7,13.7,2,20.3,4c0.2,0.1,0.4,0.1,0.8,0.3c-1.1,0.3-2,0.6-2.9,0.8
		c-0.5-0.4-1.1-0.5-1.7-0.7c-6.7-1.7-13.6-2.7-20.5-2.9c-4.6-0.2-9.2,0.1-13.7,0.8c-8.2,1.2-16.1,3.7-23.4,7.7
		c-1.8,1-3.7,1.9-5.2,3.3c-1.8,0.4-3.5,1.1-5.3,1.4c1.8-2,4.1-3.3,6.3-4.7c5.5-3.4,11.4-6,17.7-7.7c4.2-1.1,8.5-1.9,12.8-2.3
		c0.4,0,0.9,0.1,1.1-0.4C69.8,12.7,74,12.7,78.1,12.7z"/>
	<path class="st11" d="M109.3,43.4c-0.9,0.2-1.4,0.9-2,1.4c-3.7,3.3-7.8,5.9-12.1,8.3c-0.1,0.1-0.3,0.1-0.5,0.1c-0.1,0-0.1,0-0.2,0
		c-0.9-1.7-2.4-3.1-3.6-4.6c2.4-2.8,5.6-4,9-4.8c3.1-0.7,6.3-1,9.5-1.2C109.3,42.9,109.3,43.1,109.3,43.4z"/>
	<path class="st12" d="M109.3,66.2c-0.3,0-0.3-0.3-0.4-0.5c-1.1-3.7-3.5-6.4-6.5-8.6c-0.8-0.6-2-1-2.1-1.8c-0.1-0.7,1.3-1.1,2-1.7
		c3.1-2.3,5.6-5,6.7-8.8c0.1-0.2,0.1-0.4,0.4-0.4C109.3,51.6,109.3,58.9,109.3,66.2z"/>
	<path class="st11" d="M33,26.4c1.5-1.5,3.4-2.4,5.2-3.3c7.3-4,15.2-6.5,23.4-7.7c4.5-0.6,9.1-1,13.7-0.8c6.9,0.3,13.8,1.2,20.5,2.9
		c0.6,0.1,1.2,0.3,1.7,0.7c-2.3,1-4.7,2-6.9,3.4c-5.8,3.7-8.3,9.1-8.5,15.8c0,1.3,0,2.6,0,3.8c-2.4-1.6-4.7-3.2-7.1-4.7
		c-8.4-5.2-17.3-9.3-27.2-10.7c-4.6-0.7-9.2-0.4-13.8,0.4C33.8,26.3,33.4,26.3,33,26.4z"/>
	<path class="st12" d="M18.2,58c-0.1-0.1-0.3-0.2-0.4-0.3c-1.2-2-2.1-4.2-2.1-6.6c0.1-4.2,2.7-8.2,6.4-9.7c4.4-1.8,9-0.8,12.3,2.6
		c2.8,2.8,3.6,7.6,2,11.4c-1.1,2.7-3,4.5-5.5,5.8c-0.3,0.1-0.6,0.1-1,0.2c-3.7-1.1-7.4-1.8-11.1-3c-0.1,0-0.3,0.1-0.5,0.1
		c-0.1,0-0.1,0-0.1-0.1C18.5,58.1,18.3,58,18.2,58z M20.4,51.2c0,3.4,2.7,6.1,6.1,6.1c3.4,0,6.2-2.7,6.2-6.1c0-3.3-2.8-6.1-6.2-6.1
		C23.1,45.1,20.4,47.9,20.4,51.2z"/>
	<path class="st13" d="M71.8,54.1c-3.2,0-5.9-2.8-5.9-6c0-3.2,2.8-5.9,6-5.9c3.2,0,5.9,2.9,5.9,6C77.8,51.5,75,54.2,71.8,54.1z
		 M72,43.8c-2.5,0-4.5,1.9-4.6,4.4c0,2.5,2,4.5,4.5,4.5c2.4,0,4.4-2,4.4-4.4C76.3,45.7,74.4,43.8,72,43.8z"/>
	<path class="st13" d="M58,47.2c-3.3,0-6-2.6-6-5.9c0-3.2,2.7-5.9,6-5.9c3.2,0,5.9,2.7,5.9,5.8C64,44.4,61.3,47.2,58,47.2z
		 M53.6,41.2c-0.1,2.5,1.8,4.5,4.3,4.6c2.4,0.1,4.5-1.9,4.6-4.4c0.1-2.4-1.9-4.5-4.3-4.6C55.7,36.7,53.6,38.7,53.6,41.2z"/>
	<path class="st13" d="M58,60.8c-3.2,0-6-2.7-6-5.9c0-3.2,2.7-6,5.9-5.9c3.3,0,6,2.7,6,5.9C64,58.1,61.3,60.8,58,60.8z M53.6,54.9
		c0,2.5,2.1,4.5,4.5,4.5c2.4,0,4.5-2.1,4.4-4.6c0-2.4-2.1-4.5-4.5-4.4C55.5,50.5,53.6,52.4,53.6,54.9z"/>
	<path class="st13" d="M60.2,62.8c1.4,0.8,2.6,1.8,3.2,3.4c1.1,2.7,0,5.8-2.6,7.2c-2.5,1.4-5.7,0.8-7.5-1.4
		c-1.9-2.4-1.7-5.5,0.4-7.7c0.4-0.5,1-0.8,1.4-1.3C56.9,62.3,58.5,62.1,60.2,62.8z M53.5,68.3c0,2.5,2,4.5,4.5,4.5
		c2.6,0,4.6-2,4.6-4.6c0-2.5-2.1-4.6-4.6-4.6C55.5,63.8,53.5,65.8,53.5,68.3z"/>
	<path class="st13" d="M77.5,59.7c0.5,2.4,0.1,4.6-1.8,6.3c-3.2,2.8-8.2,1.4-9.4-2.7c-0.1-0.4-0.2-0.8-0.4-1.3
		c0.1-3.3,1.8-5.6,4.7-6.2C73.5,55.2,75.9,56.6,77.5,59.7z M76,60.1c-0.8-2.1-2.7-3.3-4.9-2.9c-2.2,0.4-3.7,2.2-3.7,4.6
		c-0.1,2,1,3.1,2.6,3.9c1.6,0.9,3.8,0.4,5.2-1C76.2,63.7,76.9,61.2,76,60.1z"/>
	<path class="st13" d="M88.5,56c-0.5,1.5-1.2,2.9-2.7,3.8c-2,1.2-4.1,1.2-6.1,0.1c-0.3-0.2-0.7-0.4-1.1-0.5
		c-2.1-2.5-2.5-4.9-1.2-7.3c1.3-2.5,4-3.7,6.8-3c2.5,0.6,4.3,3.1,4.3,5.8C88.6,55.3,88.6,55.6,88.5,56z M86.7,56.8
		c0.9-1.9,0.5-3.9-1-5.2c-1.6-1.4-3.7-1.5-5.4-0.4c-3,1.9-2.8,5.6,0.4,7.7C83.1,60.2,85.7,59.2,86.7,56.8z"/>
	<path class="st10" d="M45.5,62.9c0.3,0,0.6,0,0.9,0.1c0.4,0.1,1.1-0.3,1.3,0.3c0.1,0.4-0.4,0.8-0.7,1.2c-1.6,2.2-3.8,3.7-6,5.1
		c-0.3,0.2-0.6,0.4-1,0.4l0,0c0.9-1.6,2.4-2.7,3.4-4.2c0.6-0.9,1.4-1.6,1.7-2.7C45.2,63,45.3,63,45.5,62.9z"/>
	<path class="st9" d="M27.4,28c0.1-0.1,0.2-0.2,0.3-0.2C27.6,27.8,27.5,27.9,27.4,28z"/>
	<polygon class="st9" points="40,38.8 39.9,38.7 40,38.8 	"/>
	<path class="st10" d="M78.6,71.9c3.2,2.5,6.8,3.1,10.7,2.4c-0.2,0.6-0.7,0.8-1.1,1c-5.2,3-10.9,4.5-16.8,5.2
		c-3.6,0.4-7.2,0.7-10.9,0.2c1.3-0.8,2.7-1.2,4-1.7c4.5-1.9,8.7-4.1,12.8-6.7C77.8,72.1,78.1,71.9,78.6,71.9z"/>
	<path class="st13" d="M18.6,58.4c0.2,0,0.3-0.1,0.5-0.1c3.6,1.2,7.4,1.9,11.1,3c-3.4,1.4-6.6,0.8-9.6-1.2
		C19.8,59.7,19,59.3,18.6,58.4z"/>
	<path class="st13" d="M18.2,58c0.2,0,0.3,0.1,0.3,0.3C18.3,58.3,18.2,58.2,18.2,58z"/>
	<polygon class="st10" points="40,70 39.9,70 40,70 	"/>
	<path class="st10" d="M20.4,51.2c0-3.4,2.7-6.1,6.1-6.1c3.4,0,6.1,2.7,6.2,6.1c0,3.4-2.8,6.2-6.2,6.1
		C23.1,57.3,20.4,54.6,20.4,51.2z M27.3,50c0-1.1-0.9-1.9-2-1.9c-1.1,0-1.9,0.8-1.9,1.9c0,1.1,0.8,2,1.9,2
		C26.4,52,27.3,51.2,27.3,50z"/>
	<path class="st8" d="M72,43.8c2.5,0,4.3,1.9,4.3,4.5c0,2.5-2,4.4-4.4,4.4c-2.5,0-4.5-2.1-4.5-4.5C67.4,45.7,69.4,43.7,72,43.8z"/>
	<path class="st8" d="M53.6,41.2c0.1-2.5,2.1-4.4,4.6-4.3c2.4,0.1,4.4,2.2,4.3,4.6c-0.1,2.5-2.2,4.5-4.6,4.4
		C55.4,45.7,53.5,43.6,53.6,41.2z"/>
	<path class="st8" d="M53.6,54.9c0-2.5,1.9-4.4,4.3-4.5c2.4,0,4.5,2,4.5,4.4c0,2.4-2,4.5-4.4,4.6C55.6,59.5,53.6,57.4,53.6,54.9z"/>
	<path class="st9" d="M53.5,68.3c0-2.5,2-4.5,4.5-4.6c2.5,0,4.6,2,4.6,4.6c0,2.5-2,4.6-4.6,4.6C55.4,72.9,53.5,70.9,53.5,68.3z"/>
	<path class="st9" d="M76,60.1c1,1.1,0.2,3.5-0.8,4.6c-1.3,1.4-3.5,1.9-5.2,1c-1.6-0.8-2.7-2-2.6-3.9C70.3,61.5,73.1,60.8,76,60.1z"
		/>
	<path class="st8" d="M76,60.1c-2.8,0.7-5.6,1.4-8.6,1.7c0-2.4,1.5-4.2,3.7-4.6C73.3,56.8,75.2,58,76,60.1z"/>
	<path class="st8" d="M80.7,58.9c-3.2-2.2-3.4-5.8-0.4-7.7c1.7-1.1,3.9-1,5.4,0.4c1.5,1.3,1.8,3.3,1,5.2
		C84.7,57.5,82.7,58.2,80.7,58.9z"/>
	<path class="st9" d="M80.7,58.9c2-0.7,4-1.4,6-2.1C85.7,59.2,83.1,60.2,80.7,58.9z"/>
	<path class="st12" d="M27.3,50c0,1.1-0.9,1.9-2,1.9c-1.2,0-2-0.8-1.9-2c0-1.1,0.9-1.9,1.9-1.9C26.4,48.1,27.3,48.9,27.3,50z"/>
</g>
<g>
	<path class="st14" d="M734.4,144.2c-1.8,2.7-3.5,5.4-5.3,8.1c-0.4,0.6-0.6,1.1-0.6,1.8c0,5.6,0,11.2,0,16.7c0,0.6,0,1.1,0,1.7
		c-0.2,0-0.4,0-0.4-0.1c-3.2-3.4-6.6-6.7-10-9.9c-3.1-4.6-6.1-9.2-9.2-13.9c-1.1-1.6-2.2-3.3-3.2-4.9c-0.2-0.3-0.5-0.6-0.9-0.7
		c-2.7-0.8-4.3-2.7-5.5-5c-0.3-0.6-0.2-1.2-0.3-1.8c-0.1-0.6-0.2-0.8-0.9-0.8c-4.6,0.2-7.6-1.7-9.2-6c-0.2-0.6-0.6-0.8-1-1.1
		c-2.1-1.3-4.3-5.4-3.3-8.2c0.7-1.9,1.8-3.6,3.5-4.8c0.5-0.4,0.6-0.5,0.3-1.1c-1.3-3-1.2-6,0.9-8.5c2.1-2.6,4.9-3.3,8.1-2.5
		c1.1,0.3,2.2,0.8,2.9,1.8c-0.4,1-0.8,2-2.2,1.6c-2.4-0.6-4.3,0.3-5.7,2.1c-1.3,1.7-1.4,3.6-0.7,5.6c0.3,0.8,0.3,1.2-0.5,1.7
		c-3,2.1-3,6.6-0.2,8.9c1.3,1.1,2.8,1.4,4.5,1.3c0.7,0,1.2,0,1.4,0.9c0.1,0.6,0.5,1.3,1,1.7c3.7,2.6,8.1,1.7,9.6-2.5
		c0.2-0.6,0.5-1,1.2-1.2c1.1-0.3,2.1-0.9,2.7-1.9c0.7-1.3,1.4-2,3.2-2c3.1,0,5.3-1.8,6.3-4.9c0.2-0.6,0.5-0.9,1.1-1
		c1.8-0.5,3.1-1.7,4-3.2c1.6-2.7,1-6.6-1.7-8.4c-0.2-0.1-0.5-0.2-0.4-0.5c0.1-0.4,0.5-0.1,0.7-0.1c0.8,0.2,1.6,0.2,2.1-0.7
		c1.1,0.6,1.6,0.2,2.3-0.7c1.8-2.3,4.4-2.9,7.1-2.2c2.8,0.7,4.5,2.8,5,5.7c0.1,0.8,0.1,1.1,1,0.6c3-1.4,5.9-1.2,8.6,0.7
		c2.8,1.9,3.9,4.7,3.5,8c-0.1,0.8,0.1,1.2,0.7,1.7c2.8,2.2,3.8,5.1,3.1,8.5c-0.7,3.4-2.8,5.5-6.2,6.5c-0.3-2.4-1-4.6-3.2-6
		c-0.3-0.2-0.4-0.4-0.2-0.9c1.4-2.9,0.8-6-1.4-8.4c-2.5-2.6-7-2.9-10-0.6c-0.4,0.3-0.7,0.6-1.2,0.2c-1.6-1.4-3.4-1.7-5.4-1.7
		c-2.8,0.1-4.7,1.7-6,4c-1.2,2.2-1.1,4.6,0.1,6.9c0.4,0.7,0.5,0.8-0.3,1.3c-3.4,1.7-4.3,6.7-2.9,9.4c0.9,1.8,2.4,3,4.1,4
		c0.6,0.3,0.7,0.5,0.1,1c-1.4,1.2-2.6,2.6-4,3.8c-1.1,1-2,2.4-3.4,3.1c0-3.5-0.1-7.1,0-10.6c0-0.9-0.4-1-1.1-1
		c-0.6,0-1.2-0.2-1.3,0.8c-0.2,2.4-1.4,4.4-3.5,5.7c-0.7,0.5-0.6,0.8-0.2,1.4c1.4,2.2,3,4.3,4.2,6.6c0.4,0.8,1.1,1.4,1.9,2.4
		c0-1.1,0-2,0-2.8c0,0,0.1,0,0.1-0.1c0-0.1-0.1-0.1-0.1-0.2c0-0.6,0-1.3,0-1.9c0.6,0.1,1-0.3,1.4-0.7c2-2,4-4,6-6
		c0.9-0.9,1.8-1.4,3-1.2c0,1-0.1,2-0.1,3c0,0.1,0,0.4,0,0.4c0.2,0.1,0.3,0,0.3-0.2c0.6-1,1.3-1.9,1.9-2.9c0.2,0.1,0.4,0.2,0.4,0.4
		c0.7,1.4,1.7,2.6,3.1,3.5C734.3,143.8,734.3,144,734.4,144.2z M697.5,130.4c0-0.4,0-0.8-0.4-1.1c-0.7-0.8-1.4-1.5-2.1-2.3
		c-0.3-0.3-0.6-0.8-1-0.4c-0.5,0.5,0.1,0.7,0.4,1c0.7,0.8,1.6,1.4,2.1,2.4c0.3,0.7,0.1,1-0.6,1.3c-0.7,0.2-1.1-0.1-1.3-0.7
		c-0.1-0.3-0.1-0.7,0.1-1.1c0.1-0.3,0.3-0.6-0.1-0.7c-0.3-0.1-0.7,0.1-0.8,0.4c-0.3,0.7-0.2,1.5,0.3,2.2c0.7,0.9,1.6,1.1,2.6,0.7
		C697.3,131.9,697.5,131.2,697.5,130.4z"/>
	<path class="st15" d="M726.7,102.1c-0.5,0.9-1.2,0.9-2.1,0.7c-0.2-0.1-0.6-0.3-0.7,0.1c-0.1,0.3,0.2,0.4,0.4,0.5
		c2.6,1.9,3.3,5.8,1.7,8.4c-0.9,1.5-2.2,2.7-4,3.2c-0.6,0.2-0.9,0.4-1.1,1c-0.9,3.1-3.2,4.9-6.3,4.9c-1.8,0-2.5,0.6-3.2,2
		c-0.5,1-1.6,1.6-2.7,1.9c-0.6,0.2-1,0.5-1.2,1.2c-1.5,4.2-5.9,5.2-9.6,2.5c-0.5-0.4-0.9-1.1-1-1.7c-0.2-0.9-0.7-0.9-1.4-0.9
		c-1.6,0.1-3.1-0.2-4.5-1.3c-2.9-2.3-2.8-6.8,0.2-8.9c0.7-0.5,0.8-0.9,0.5-1.7c-0.7-1.9-0.7-3.9,0.7-5.6c1.4-1.8,3.3-2.7,5.7-2.1
		c1.4,0.4,1.8-0.6,2.2-1.6c0.6-0.4,1.2-0.8,1.8-1.1c0.6-0.4,0.2-0.7,0-1.1c-1.8-4-0.1-8.1,4-9.5c2.1-0.7,4.2-0.3,6,1
		c0.6,0.4,0.9,0.6,1.6,0.1c3.9-3,9.5-0.9,10.7,3.9c0,0.2,0.1,0.3,0.1,0.5C724.2,100.4,724.7,101.7,726.7,102.1z"/>
	<path class="st15" d="M728.6,139.4c-1.3-0.2-2.2,0.3-3,1.2c-1.9,2.1-4,4-6,6c-0.4,0.4-0.8,0.7-1.4,0.7c0-0.2,0-0.3,0-0.5
		c1.5-0.7,2.3-2,3.4-3.1c1.4-1.2,2.6-2.6,4-3.8c0.6-0.5,0.5-0.7-0.1-1c-1.7-1-3.2-2.2-4.1-4c-1.4-2.7-0.4-7.6,2.9-9.4
		c0.8-0.4,0.7-0.6,0.3-1.3c-1.2-2.2-1.3-4.7-0.1-6.9c1.3-2.2,3.2-3.9,6-4c2-0.1,3.9,0.3,5.4,1.7c0.5,0.5,0.8,0.1,1.2-0.2
		c2.9-2.3,7.4-2,10,0.6c2.3,2.3,2.8,5.5,1.4,8.4c-0.2,0.4-0.1,0.7,0.2,0.9c2.2,1.4,2.9,3.6,3.2,6c-0.2,3.7-2.1,6.2-5.5,7.2
		c-0.6,0.2-0.9,0.4-1,1c-1.2,4.7-6,6.8-10,5.2c-0.3-0.1-0.6-0.2-0.9,0c-0.1-0.2-0.1-0.4-0.2-0.5c-1.3-0.9-2.3-2.1-3.1-3.5
		c-0.1-0.2-0.3-0.2-0.4-0.4c0.2-0.5,0.4-1-0.5-0.7C729.7,139.2,729.1,139.3,728.6,139.4z"/>
	<path class="st14" d="M718.1,174.4c0-3.6,0-7.2,0-10.8c0.5,0,0.8,0.4,1.1,0.7c3.1,3.1,6.2,6.1,9.3,9.2c0,0.2,0,0.4,0,0.7
		c-0.3,0.1-0.3,0.3-0.3,0.5c-3.3,0-6.6,0-9.9,0C718.2,174.6,718.2,174.5,718.1,174.4z"/>
	<path class="st15" d="M728.5,173.5c-3.1-3.1-6.2-6.1-9.3-9.2c-0.3-0.3-0.5-0.7-1.1-0.7c0-0.4-0.1-0.8-0.1-1.2
		c3.5,3.2,6.8,6.5,10,9.9c0.1,0.1,0.3,0.1,0.4,0.1C728.7,172.8,728.6,173.1,728.5,173.5z"/>
	<path class="st15" d="M728.2,174.7c0-0.2,0.1-0.5,0.3-0.5C728.7,174.5,728.6,174.7,728.2,174.7z"/>
	<path class="st15" d="M718.1,174.4c0.1,0.1,0.1,0.2,0.2,0.3C718.1,174.7,718.1,174.6,718.1,174.4z"/>
	<path class="st15" d="M697.5,130.4c0,0.8-0.2,1.5-0.9,1.7c-1,0.3-1.9,0.1-2.6-0.7c-0.5-0.6-0.5-1.4-0.3-2.2
		c0.1-0.3,0.5-0.5,0.8-0.4c0.4,0.1,0.2,0.4,0.1,0.7c-0.1,0.3-0.2,0.7-0.1,1.1c0.2,0.6,0.7,0.9,1.3,0.7c0.7-0.2,0.9-0.6,0.6-1.3
		c-0.5-1-1.4-1.6-2.1-2.4c-0.3-0.3-0.9-0.6-0.4-1c0.4-0.4,0.7,0.2,1,0.4c0.7,0.7,1.4,1.5,2.1,2.3
		C697.4,129.6,697.5,130.1,697.5,130.4z"/>
	<path class="st15" d="M728.5,142.4c0.1,0.1,0.2,0.2,0.3,0.2c0,0.2-0.1,0.3-0.3,0.2C728.4,142.8,728.5,142.5,728.5,142.4z"/>
	<path class="st15" d="M718.1,149.4c0-0.1,0-0.2,0-0.2C718.1,149.3,718.2,149.3,718.1,149.4C718.2,149.4,718.1,149.4,718.1,149.4z"
		/>
</g>
</svg>
