<?xml version="1.0" encoding="utf-8"?>
<!-- Generator: Adobe Illustrator 23.1.0, SVG Export Plug-In . SVG Version: 6.00 Build 0)  -->
<svg version="1.1" id="Laag_1" xmlns="http://www.w3.org/2000/svg" xmlns:xlink="http://www.w3.org/1999/xlink" x="0px" y="0px"
	 viewBox="0 0 112 105.7" style="enable-background:new 0 0 112 105.7;" xml:space="preserve">
<style type="text/css">
	.st0{fill:#76BA5B;}
	.st1{fill:#75BA5A;}
	.st2{fill:#FDFEFD;}
	.st3{fill:#C086BA;}
	.st4{fill:#FFFDFE;}
	.st5{fill:#FDF9FC;}
</style>
<g>
	<path class="st0" d="M66.2,17.3c0.6,1,1.7,0.8,2.6,1.2c8.4,3.7,12.5,12.8,9.7,21.5c-0.9,2.9-2.2,5.4-6,4.5c-0.8-0.2-1.7,0-2.7,0
		c0-1.1,1-1.6,1.6-2.3c3.9-5,3.6-11.8-0.9-16.3c-4.4-4.4-11.5-4.9-16.3-0.8c-3.6,3.1-6.7,6.7-10.2,10c-1.5,1.4-0.4,2,0.5,2.9
		c3.7,3.7,7.3,7.4,11,11c1.4,1.3,1.6,2.2,0.2,3.7c-3.7,4.2-5.5,9.3-5.4,14.9c0,2-0.6,2.9-2.4,3.7C39.1,75.1,29,71,25.1,62
		c-0.4-1-0.3-2.2-1.4-2.9c0-2.4,0-4.9,0-7.3C32.2,37.5,44,26.6,57.6,17.3C60.5,17.3,63.4,17.3,66.2,17.3z"/>
	<path class="st1" d="M69.5,88.3c-2.3-1.5-5.1-1.8-7.4-3.4c-1.3-0.9-1.5-1.5-0.3-2.8C70.6,73.5,79.3,64.8,88,56c1.3-1.3,2-1.2,3,0.3
		c1.4,2.1,1.8,4.6,3.1,6.8c0,3.1,0,6.2,0,9.3c-1.9,3.4-3.2,7.1-6.1,10c-3.2,3.1-7.2,4.4-11.1,6C74.4,88.3,72,88.3,69.5,88.3z"/>
	<path class="st2" d="M76.8,88.3c3.9-1.5,7.9-2.9,11.1-6c2.9-2.8,4.2-6.6,6.1-10c0,4.8-0.1,9.5,0,14.3c0,1.4-0.3,1.7-1.7,1.7
		C87.2,88.3,82,88.3,76.8,88.3z"/>
	<path class="st1" d="M73,46.6c4.3,0.2,8,1.2,11.4,3.2c1.5,0.9,2.1,1.6,0.5,3.1c-8.8,8.7-17.5,17.4-26.2,26.2
		c-1.2,1.2-1.7,1.1-2.6-0.3c-8-11.4-1-28.9,12.8-31.6C70.4,46.9,71.9,46.8,73,46.6z"/>
</g>
<g>
	<path class="st3" d="M58.9,588.4c1.8,0,3.5,0,5.3,0c2.3,1.3,5.3,2.1,6.2,4.6c1.6,4.7,5.5,5,9.3,5.9c1.1,0.2,2.1,0.5,3.2,0.7
		c1.9,0.4,2.6,1.3,2,3.3c-0.2,0.7-1.3,1.9,0.2,2.5c5,2.1,6.6,6.3,6.8,11.2c0.4,6.9,0.3,13.9,1,20.8c0.4,4-0.2,8.1,1.1,12
		c0,4.8-0.1,9.5,0,14.3c0,1.4-0.3,1.7-1.7,1.7c-20.6-0.1-41.1-0.1-61.7,0c-1.4,0-1.8-0.3-1.7-1.7c0.1-3.9,0-7.7,0-11.6
		c0.6-0.5,0.6-1.1,0.6-1.8c0.5-9.9,1-19.8,1.4-29.8c0.2-4.4,0.1-9.1,3.5-12.4c3-2.9,3.3-6,2.4-9.7c-0.6-2.5,0.5-3.6,3.1-3.7
		C47,594.6,53.5,593.2,58.9,588.4z M57.6,592.4c2.9-0.2,4,1.3,4,4c0,2,0,4.1,1.2,6c2.5-2,0.2-8.3,6.4-6
		C66.9,591.4,62.3,590,57.6,592.4c0,0.1,0,0.2-0.1,0.2C57.5,592.6,57.6,592.5,57.6,592.4z M61.6,662.8c8.7,0,17.5-0.1,26.2,0.1
		c2.8,0.1,3.9-0.6,3.7-3.7c-0.6-9.1-1-18.3-1.4-27.5c-0.2-4.5-0.5-9-0.7-13.6c-0.1-2.4-1-3.4-3.6-3.4c-16,0.1-32.1,0.1-48.1,0
		c-2.3,0-3.3,0.5-3.4,3.1c-0.7,14-1.5,28-2.4,42c-0.2,2.4,0.7,3,3,3C43.7,662.7,52.6,662.8,61.6,662.8z M55.9,595.6
		c-4.8,0.5-9.3,1-13.8,1.5c-1.5,0.2-2.6,0.5-2.4,2.4c0.4,3.6,0.8,7.2,1.4,10.8c0.4,2.4,2.4,1.3,3.8,1.5c1.2,0.1,2.6-0.2,2.1-1.7
		c-1.2-3.8,1.3-4.2,3.9-4.7c2-0.4,4.1-1.1,6.1-1.5c4.9-0.9,1.7-4.3,1.9-6.6C59.1,594.6,57.1,595.5,55.9,595.6z M76,612.1
		c1.4-0.2,3.4,0.7,4-1.1c0.9-2.7,1.3-5.5,1.8-8.3c0-0.2-0.4-0.6-0.7-0.6c-4.4-1-8.8-2-13.1-3c-1-0.2-1.4,0.7-1.5,1.4
		c-0.1,1.1,0.7,0.8,1.3,0.7c1.6-0.3,2.1,0.7,2.4,2c0.4,1.8,0.9,3.6,1.2,5.5C72,611.2,73.1,612.8,76,612.1z M59.8,612.2
		c2.4,0,4.8,0,7.3,0c0.8,0,1.8,0.2,2.1-0.5c0.8-2.3-0.6-4.2-1.2-6.3c-0.4-1.7-2-1-3.1-0.7c-4.4,1-8.8,2.1-13.2,3.1
		c-1.1,0.3-2.2,0.5-2.1,2c0.2,1.5,0.8,2.5,2.5,2.5C54.7,612.1,57.3,612.2,59.8,612.2z M85.5,612.2c0.8-0.2,2.3,0.4,2-0.9
		c-0.3-1.4-1-3.1-2.8-3.3c-1.7-0.1-1.6,1.6-1.7,2.7C82.8,612.8,84.6,611.9,85.5,612.2z M38,608.2c-1.2,1.3-2.3,2.1-1.9,3.6
		c0.1,0.5,1,0.6,1.5,0.3C39.1,611.1,38.2,609.8,38,608.2z"/>
	<path class="st4" d="M94.1,649.5c-1.4-3.9-0.8-8-1.1-12c-0.6-6.9-0.5-13.9-1-20.8c-0.3-4.9-1.8-9.1-6.8-11.2
		c-1.6-0.6-0.5-1.8-0.2-2.5c0.6-2-0.1-2.9-2-3.3c-1.1-0.2-2.1-0.5-3.2-0.7c-3.8-0.9-7.7-1.2-9.3-5.9c-0.9-2.5-3.9-3.3-6.2-4.6
		c9.3,0,18.6,0,27.9,0c1.7,0,2,0.4,2,2C94.1,610.1,94.1,629.8,94.1,649.5z"/>
	<path class="st4" d="M58.9,588.4c-5.4,4.8-11.9,6.1-18.8,6.3c-2.6,0.1-3.7,1.2-3.1,3.7c0.8,3.7,0.6,6.7-2.4,9.7
		c-3.3,3.3-3.3,8-3.5,12.4c-0.4,9.9-0.9,19.8-1.4,29.8c0,0.7,0,1.3-0.6,1.8c0-20.4,0-40.8,0-61.2c0-1.9,0.2-2.6,2.5-2.6
		C40.6,588.5,49.8,588.4,58.9,588.4z"/>
	<path class="st4" d="M61.6,662.8c-9,0-17.9-0.1-26.9,0c-2.3,0-3.1-0.6-3-3c0.9-14,1.7-28,2.4-42c0.1-2.6,1.1-3.1,3.4-3.1
		c16,0.1,32.1,0.1,48.1,0c2.7,0,3.5,1.1,3.6,3.4c0.2,4.5,0.5,9,0.7,13.6c0.5,9.2,0.8,18.3,1.4,27.5c0.2,3.1-0.9,3.7-3.7,3.7
		C79.1,662.7,70.3,662.8,61.6,662.8z M70.2,627.7c-0.1,7.7-5.4,12-11.3,9.8c-4.8-1.8-7.3-7.9-4-13.8c1.2-2.1,1.4-4-0.5-5.6
		c-1.5-1.3-3.2-1.5-4.8,0c-1.8,1.7-2.3,3.7-0.5,5.5c1.6,1.6,1.4,3.3,1.4,5.2c0.1,6.9,5.1,12.1,11.5,12c6.2-0.1,10.9-5.3,10.9-12.2
		c0-1.9,0-3.6,1.6-5.1c1.8-1.8,1.2-3.8-0.7-5.4c-1.6-1.4-3.3-1.2-4.8,0.2c-1.7,1.7-2.1,3.8-0.2,5.5
		C70.2,625.1,70.2,626.6,70.2,627.7z"/>
	<path class="st5" d="M55.9,595.6c1.1-0.2,3.1-1,2.9,1.7c-0.2,2.3,3,5.6-1.9,6.6c-2.1,0.4-4.1,1-6.1,1.5c-2.6,0.6-5.1,0.9-3.9,4.7
		c0.5,1.5-0.9,1.8-2.1,1.7c-1.4-0.2-3.4,0.9-3.8-1.5c-0.6-3.6-0.9-7.2-1.4-10.8c-0.2-1.8,0.9-2.2,2.4-2.4
		C46.6,596.7,51.1,596.2,55.9,595.6z"/>
	<path class="st5" d="M76,612.1c-2.9,0.7-4-0.9-4.4-3.5c-0.3-1.8-0.8-3.6-1.2-5.5c-0.3-1.3-0.8-2.3-2.4-2c-0.6,0.1-1.5,0.4-1.3-0.7
		c0.1-0.7,0.5-1.6,1.5-1.4c4.4,0.9,8.8,2,13.1,3c0.3,0.1,0.7,0.5,0.7,0.6c-0.5,2.8-0.9,5.6-1.8,8.3C79.5,612.9,77.4,611.9,76,612.1z
		"/>
	<path class="st5" d="M59.8,612.2c-2.5,0-5.1,0-7.6,0c-1.7,0-2.3-1-2.5-2.5c-0.2-1.5,0.9-1.7,2.1-2c4.4-1,8.8-2.2,13.2-3.1
		c1.1-0.2,2.7-1,3.1,0.7c0.5,2.1,2,4.1,1.2,6.3c-0.3,0.8-1.4,0.5-2.1,0.5C64.7,612.2,62.2,612.2,59.8,612.2z"/>
	<path class="st5" d="M57.6,592.4c4.7-2.5,9.3-1,11.6,4c-6.2-2.4-3.9,3.9-6.4,6c-1.3-1.9-1.2-4-1.2-6
		C61.5,593.7,60.4,592.2,57.6,592.4L57.6,592.4z"/>
	<path class="st5" d="M85.5,612.2c-1-0.3-2.7,0.6-2.5-1.5c0.1-1,0-2.8,1.7-2.7c1.8,0.1,2.5,1.9,2.8,3.3
		C87.8,612.6,86.3,612,85.5,612.2z"/>
	<path class="st5" d="M38,608.2c0.2,1.7,1.1,2.9-0.5,3.8c-0.5,0.3-1.3,0.2-1.5-0.3C35.7,610.3,36.8,609.4,38,608.2z"/>
	<path class="st5" d="M57.6,592.4c0,0.1-0.1,0.2-0.1,0.2C57.5,592.6,57.6,592.5,57.6,592.4C57.6,592.4,57.6,592.4,57.6,592.4z"/>
	<path class="st3" d="M70.2,627.7c0.1-1.1,0-2.6-1.4-4c-1.9-1.7-1.5-3.8,0.2-5.5c1.4-1.4,3.1-1.5,4.8-0.2c1.9,1.6,2.5,3.6,0.7,5.4
		c-1.6,1.6-1.6,3.3-1.6,5.1c0,6.9-4.7,12.1-10.9,12.2c-6.4,0.1-11.4-5.1-11.5-12c0-1.8,0.2-3.6-1.4-5.2c-1.8-1.8-1.3-3.8,0.5-5.5
		c1.6-1.5,3.3-1.3,4.8,0c1.9,1.7,1.7,3.5,0.5,5.6c-3.3,5.9-0.8,12,4,13.8C64.8,639.7,70.1,635.5,70.2,627.7z"/>
</g>
</svg>
