<?xml version="1.0" encoding="utf-8"?>
<!-- Generator: Adobe Illustrator 23.1.0, SVG Export Plug-In . SVG Version: 6.00 Build 0)  -->
<svg version="1.1" id="Laag_1" xmlns="http://www.w3.org/2000/svg" xmlns:xlink="http://www.w3.org/1999/xlink" x="0px" y="0px"
	 viewBox="0 0 112 105.7" style="enable-background:new 0 0 112 105.7;" xml:space="preserve">
<style type="text/css">
	.st0{fill:#FDEC8B;}
	.st1{fill:#FDF3B5;}
	.st2{fill:#F3EBCF;}
	.st3{fill:#FFFFFE;}
	.st4{fill:#F07E0A;}
	.st5{fill:#504D43;}
	.st6{fill:#64AFB7;}
	.st7{fill:#FEF3B4;}
	.st8{fill:#FDF9DD;}
	.st9{fill:#E5DFA6;}
	.st10{fill:#4A8890;}
	.st11{fill:#FBC806;}
	.st12{fill:#AFAEB1;}
	.st13{fill:#598F66;}
	.st14{fill:#3D654A;}
	.st15{fill:#FDFEFD;}
	.st16{fill:#FDEC89;}
	.st17{fill:#DAD072;}
	.st18{fill:#404A4C;}
	.st19{fill:#F8C705;}
	.st20{fill:#FCEC88;}
	.st21{fill:#FCFAE1;}
	.st22{fill:#DEB207;}
	.st23{fill:#E20D18;}
	.st24{fill:#FFFFFF;}
	.st25{font-family:'BebasNeue-Regular';}
	.st26{font-size:26.0513px;}
</style>
<g>
	<path class="st0" d="M92.4,22.5c0.2,0.5,0.8,0.5,1.2,0.9c0.7,0.7,0.9,1.5,0.9,2.4c0,3.8,0,7.6,0,11.4c0,0.7,0.2,1,0.9,0.9
		c0.7,0,1.3,0,2,0.1c1.5,0.3,2.5,1.5,2.5,3C99.3,41.1,98.7,41,98,41c-4.6,0-9.2,0-13.8,0c-0.4,0-0.8,0.1-0.8-0.5
		c-0.1-1.4,1.6-2.9,3.5-2.5c0.5,0.1,1-0.1,1.5-0.1c0.4,0,0.3-0.4,0.3-0.7c0-2,0-4,0-6c0-1.7,0-3.5,0-5.2c0-1.6,0.5-2.8,2.1-3.3
		c0.1,0,0.1-0.1,0.2-0.2C91.4,22.5,91.9,22.5,92.4,22.5z"/>
	<path class="st1" d="M103.6,81.9c-8,0-15.9,0-23.9,0c0-0.1,0-0.2,0-0.3c0.2,0,0.4-0.1,0.7-0.1c7.1,0,14.2,0,21.2,0c0.7,0,1.3,0,2,0
		C103.6,81.7,103.6,81.8,103.6,81.9z"/>
	<path class="st1" d="M105.2,51.4c0.1,0,0.3,0,0.4,0c0,3.3,0,6.7,0,10c-0.1,0-0.3,0-0.4,0c0-0.2,0-0.5,0-0.7
		C105.1,57.6,105.1,54.5,105.2,51.4z"/>
	<path class="st2" d="M105.2,61.4c0.1,0,0.3,0,0.4,0c0,3.2,0,6.5,0,9.7c-0.1,0-0.3,0-0.4,0c0,0-0.1,0-0.1,0c0-1.5,0.1-3,0.1-4.5
		C105.2,64.9,105.1,63.1,105.2,61.4L105.2,61.4L105.2,61.4z"/>
	<path class="st2" d="M77.8,51.4c0.1,0,0.1,0,0.2,0c0,2.1,0,4.3,0,6.4c0,1.2-0.1,2.4,0.1,3.6c-0.1,2.4,0,4.8-0.1,7.1
		c0,0.9-0.1,1.7,0.1,2.6c0,0.3-0.1,0.6-0.1,0.9c0,2.7,0,5.5,0,8.2c-0.1,0-0.1,0-0.2,0C77.8,70.6,77.8,61,77.8,51.4z"/>
	<path class="st1" d="M105.2,71.1c0.1,0,0.3,0,0.4,0c0,2.5,0,5.1,0,7.6c-0.2,0.2-0.1,0.5-0.1,0.8c0,0.2,0.1,0.5-0.2,0.6
		C105.1,77.1,105.1,74.1,105.2,71.1z"/>
	<path class="st3" d="M105.2,80.1c0.3-0.1,0.2-0.4,0.2-0.6c0-0.3-0.1-0.5,0.1-0.8c0,0.9,0,1.9,0,2.8c0,0.3,0,0.3-0.3,0.3
		c-0.5,0-1.1,0-1.6,0c0-0.1,0-0.2,0-0.3c0.1,0,0.3-0.1,0.4-0.1c0.2,0.1,0.3,0,0.4-0.2c0-0.2,0.2-0.3,0.3-0.3c0.2,0,0.3-0.1,0.3-0.3
		C105,80.5,105.1,80.3,105.2,80.1z"/>
	<path class="st3" d="M77.8,80.3c0.1,0,0.1,0,0.2,0c0.4,0.7,0.8,1.4,1.8,1.4c0,0.1,0,0.2,0,0.3c-0.1,0-0.2,0-0.3,0
		c-0.5,0-1.3,0.2-1.6-0.1C77.6,81.6,77.8,80.8,77.8,80.3z"/>
	<path class="st4" d="M78.1,61.4c-0.1-1.2,0-2.4-0.1-3.6c0-2.1,0-4.3,0-6.4c0.4-0.6,1-0.6,1.6-0.6c8.1,0.1,16.2,0.1,24.3,0
		c0.5,0,1,0.1,1.3,0.6c0,3.1,0,6.2,0,9.3c0,0.2,0,0.5,0,0.7c0,0,0,0,0,0s0,0,0,0c-0.4,0-0.7,0-1.1,0c-0.3-0.5,0-1.1-0.2-1.6
		c0-0.2,0-0.3,0-0.5c0.1-0.5,0.1-0.9-0.4-1.1c-0.3-0.2-0.7-0.2-0.9,0.2c-0.1,0.1-0.2,0.2-0.2,0.3c-0.3,0.9,0,1.8-0.2,2.7
		C94.2,61.4,86.1,61.4,78.1,61.4z M103.4,53c-0.2-0.4-0.4-0.2-0.7-0.1c-0.3,0.2-0.6,0.5-0.4,0.9c0,0.2,0,0.4,0,0.6
		c-0.2,0.4,0,0.8,0,1.2c0,0.1,0,0.3,0,0.4c-0.1,0.2,0,0.4,0.3,0.4c0.1,0,0.1,0.1,0.2,0.1c0.5,0.5,0.9,0.1,1-0.2c0.3-1,0.3-2,0-2.9
		C103.7,53.2,103.6,53.1,103.4,53z"/>
	<path class="st1" d="M83.4,40.6c0,0.6,0.4,0.5,0.8,0.5c4.6,0,9.2,0,13.8,0c0.6,0,1.2,0.1,1.8,0.2c0.5,0.3,1.1,0.1,1.6,0.1
		c0.3,0,0.4,0.1,0.5,0.4c0.2,0.7,0.1,1.5,0.2,2.2c0.1,0.3-0.1,0.9-0.7,1.1c-0.9,0.2-1.9,0.2-2.8,0.1c-0.6,0-1.2,0.1-1.8,0.1
		c-4.2,0-8.5,0-12.7,0c-0.9,0-1.8-0.1-2.7-0.1c-0.4,0-0.4-0.2-0.5-0.5c0-0.9,0.1-1.7-0.1-2.6c-0.1-0.3,0.1-0.4,0.4-0.5
		c0.2,0,0.4,0,0.7,0c0.6,0,1.3,0.2,1.3-0.8C83.3,40.6,83.4,40.6,83.4,40.6z"/>
	<path class="st4" d="M79.7,81.6c-0.9,0-1.4-0.7-1.8-1.4c0-2.7,0-5.5,0-8.2c0-0.3,0-0.6,0.1-0.9c0.7,0,1.4,0,2.1,0
		c7.4,0,14.7,0,22.1,0c0,0.3,0,0.6,0,0.9c0,2.1,0,4.3,0,6.4c0,0.9,0.5,1.3,1.2,1.1c0.6-0.2,0.5-0.8,0.5-1.3c-0.1-2.1,0-4.2,0-6.3
		c0-0.3,0-0.6,0.1-0.9c0.4,0,0.7,0,1.1,0c0,0,0.1,0,0.1,0c-0.1,3-0.1,6,0,9c-0.1,0.2-0.2,0.4-0.2,0.6c-0.2,0-0.3,0.1-0.3,0.3
		c-0.2,0.1-0.3,0.2-0.3,0.3c-0.2,0-0.3,0-0.4,0.2c-0.1,0-0.3,0.1-0.4,0.1c-0.7,0-1.3,0-2,0c-7.1,0-14.2,0-21.2,0
		C80.2,81.6,79.9,81.6,79.7,81.6z"/>
	<path class="st5" d="M105.1,71.1c-0.4,0-0.7,0-1.1,0c-0.2-2.3,0-4.6-0.1-6.9c0-0.9-0.1-1.9,0.1-2.8c0.4,0,0.7,0,1.1,0
		c0,1.8,0,3.5,0.1,5.3C105.2,68.2,105.1,69.6,105.1,71.1z"/>
	<path class="st5" d="M102.2,71.1c-7.4,0-14.7,0-22.1,0c-0.7,0-1.4,0-2.1,0c-0.2-0.9-0.1-1.7-0.1-2.6c0-2.4-0.1-4.8,0.1-7.1
		c8.1,0,16.1,0,24.2,0C102.3,64.6,102.3,67.9,102.2,71.1z"/>
	<path class="st1" d="M104.7,81c0-0.2,0.1-0.3,0.3-0.3C105,80.9,104.9,81,104.7,81z"/>
	<path class="st1" d="M104,81.6c0-0.2,0.2-0.2,0.4-0.2C104.4,81.5,104.2,81.6,104,81.6z"/>
	<path class="st2" d="M102.2,71.1c0.1-3.2,0.1-6.5,0-9.7c0.2-0.9-0.1-1.8,0.2-2.7c0.5,0.7,0.1,1.4,0.2,2.1c0,0.3-0.1,0.6,0.3,1
		c0-0.9,0-1.7,0-2.5c0-0.2-0.1-0.4,0.2-0.5c0.2,0,0.4,0.1,0.3-0.2c0-0.2-0.2-0.2-0.4-0.2c-0.2,0-0.3,0-0.5,0
		c0.2-0.4,0.5-0.4,0.9-0.2c0.5,0.2,0.5,0.7,0.4,1.1c-0.2,0.1-0.5-0.1-0.5,0.2c0,0.3,0.3,0.2,0.5,0.3c0.2,0.5-0.1,1.1,0.2,1.6
		c-0.1,0.9-0.1,1.9-0.1,2.8c0,2.3-0.1,4.6,0.1,6.9c-0.2,0.3-0.1,0.6-0.1,0.9c0,2.1-0.1,4.2,0,6.3c0,0.4,0.1,1.1-0.5,1.3
		c-0.7,0.3-1.1-0.2-1.2-1.1c0-2.1,0-4.3,0-6.4C102.3,71.7,102.2,71.4,102.2,71.1z"/>
	<path class="st3" d="M102.8,56.5c-0.1,0-0.1-0.1-0.2-0.1c0-0.2,0-0.4-0.3-0.4c0-0.1,0-0.3,0-0.4c0.5-0.4,0.2-0.8,0-1.2
		c0-0.2,0-0.4,0-0.6c0.4-0.2,0.5-0.9,1.1-0.8c0.2,0.1,0.3,0.2,0.3,0.4c-0.2,0.5,0.1,1-0.2,1.5c-0.5-0.1-0.2-0.5-0.2-0.7
		c0-0.2,0.1-0.6-0.3-0.6c-0.3,0-0.2,0.3-0.2,0.5c0,0.2,0,0.4,0,0.7c-0.1,0.6,0.2,0.5,0.6,0.4C103.8,56,103.7,56.3,102.8,56.5z"/>
	<path class="st3" d="M102.6,58.4c0.2,0,0.3,0,0.5,0c0.1,0,0.3,0,0.4,0.2c0.1,0.3-0.2,0.2-0.3,0.2c-0.3,0-0.2,0.3-0.2,0.5
		c0,0.8,0,1.6,0,2.5c-0.4-0.4-0.3-0.7-0.3-1c-0.1-0.7,0.2-1.4-0.2-2.1C102.4,58.5,102.4,58.4,102.6,58.4z"/>
	<path class="st1" d="M103.5,54.8c0.3-0.4,0-1,0.2-1.5c0.4,1,0.3,2,0,2.9c-0.1,0.4-0.5,0.7-1,0.2c0.9-0.3,1-0.5,0.7-1.4
		C103.5,55,103.5,54.9,103.5,54.8z"/>
	<path class="st1" d="M103.4,53c-0.6-0.1-0.7,0.6-1.1,0.8c-0.2-0.4,0.1-0.7,0.4-0.9C103,52.7,103.2,52.6,103.4,53z"/>
	<path class="st1" d="M102.3,54.4c0.2,0.4,0.6,0.8,0,1.2C102.3,55.2,102.1,54.8,102.3,54.4z"/>
	<path class="st3" d="M103.8,59.8c-0.2,0-0.5,0-0.5-0.3c0-0.3,0.3-0.1,0.5-0.2C103.8,59.4,103.8,59.6,103.8,59.8z"/>
	<path class="st1" d="M102.3,56c0.3,0,0.3,0.2,0.3,0.4C102.3,56.4,102.3,56.2,102.3,56z"/>
	<path class="st2" d="M103.5,54.8c0,0.1,0,0.2,0,0.3c-0.4,0.1-0.7,0.2-0.6-0.4c0-0.2,0-0.4,0-0.7c0-0.2-0.1-0.5,0.2-0.5
		c0.3,0,0.3,0.3,0.3,0.6C103.3,54.4,103,54.7,103.5,54.8z"/>
</g>
<g>
	<path class="st6" d="M31.1,76.9c0-3.3,0-6.6,0-9.9c0.2,0.1,0.3-0.1,0.4-0.2C35,67,38.5,66.9,42,66.8c0.2,0,0.5,0.1,0.7,0.1
		c11.2,0,22.5,0,33.7,0c0.8,0,1.7-0.1,2.5,0.1c0.1,0.3,0.1,0.6,0.1,0.9c0,2.5,0,5.1,0,7.6c0,1.2,0.8,2.1,1.9,2.1c1.1,0,2-0.7,2-1.9
		c0-2.8,0.1-5.7,0-8.5c0.4-0.2,0.7-0.3,1.1-0.2c0.6,0.1,1.2,0,1.8,0c0.6,0.3,0.7,0.8,0.7,1.4c0,2.4,0,4.8,0,7.2
		c0,0.9-0.2,1.6-0.5,2.4c-1.2,2.6-3.4,3.8-6.2,3.8c-12.1,0-24.1,0-36.2,0c-0.3,0-0.7,0.1-1,0.1c-0.1,0-0.1-0.1-0.2-0.1
		c0.2-0.5-0.2-0.8-0.2-1.3C42,78.9,42,77.4,42,76c0-2.7-0.1-5.4,0-8.1c0-0.6-0.2-0.7-0.7-0.7c-3.1,0-6.2,0-9.3,0
		c-0.5,0-0.7,0.2-0.7,0.7c0,3,0,6,0,9.1C31.3,76.9,31.2,76.9,31.1,76.9z"/>
	<path class="st6" d="M31.1,45.3c0-2.8,0-5.7,0-8.5c0.1,0,0.2,0,0.3,0c0,2.5,0,4.9,0,7.4c0,0.9,0.1,1,1,1c2.9,0,5.7,0,8.6,0
		c0.7,0,0.9-0.3,0.9-1c0-3,0-6,0-9c0-1,0.3-2,0.5-3c0.1-0.3,0.3-0.5,0.6-0.5c0.3,0,0.6,0,0.9,0c11.7,0,23.4,0,35,0
		c0.3,0,0.7,0,1-0.3c0.3,0.2,0.6,0.4,0.9,0.4c0.7,0.1,1.5,0.2,2.1,0.5c2.4,1.2,3.6,3.2,3.6,6c0,1.9,0,3.7,0,5.6
		c0,0.7-0.1,1.3-0.8,1.6c-0.9,0-1.8-0.1-2.6-0.1c-0.2-0.4-0.2-0.8-0.5-1.1c-0.5-0.6-1.1-0.9-1.9-0.7c-1,0.2-1.5,0.9-1.6,1.8
		c-0.4,0-0.8,0.1-1.3,0.1c-11.1,0-22.3,0-33.4,0c-0.8,0-1.6-0.1-2.4,0.1c-3.5,0-7.1,0-10.6,0C31.3,45.3,31.3,45.2,31.1,45.3z
		 M83.1,38.1c0-0.1,0-0.4-0.1-0.7c-0.2-1.1-0.9-1.7-2-1.7c-1,0-1.8,0.6-2,1.8C79,38.2,79,39,79.2,39.7c0.3,1,1.4,1.5,2.4,1.3
		C82.6,40.7,83.1,39.8,83.1,38.1z"/>
	<path class="st7" d="M34.9,21.1c0-0.1,0-0.2,0-0.3c16,0,32.1,0,48.1,0c1.5,0.6,1.4,1.9,1.4,3.2c0,0.7-0.1,1.4,0,2.1
		c0.1,0.7-0.3,1.2-1,1.5c0.3-0.4,0.7-0.7,0.7-1.3c0-1.1,0-2.2,0-3.3c0-1.6-0.4-2-2-2C66.3,21.1,50.6,21.1,34.9,21.1z"/>
	<path class="st8" d="M31.1,76.9c0.1,0,0.2,0,0.3,0c0.1,0.7,0.4,1.2,0.7,1.8c0,0.1,0,0.2,0.1,0.2c0,0.1,0.1,0.2,0.1,0.2
		c0,0.1,0,0.2,0.2,0.2c0.5,0.6,1.1,1.1,1.8,1.5c0.1,0.2,0.3,0.3,0.5,0.3c0.1,0.1,0.2,0.1,0.4,0.2c0.3,0.2,0.6,0.3,0.9,0.2
		c0.1,0,0.2,0,0.4,0c0,0.1,0,0.2,0,0.4c-1.7,0-3.3,0-5,0c-0.3,0-0.4-0.1-0.4-0.4C31.1,80,31.1,78.4,31.1,76.9z"/>
	<path class="st8" d="M31.1,45.3c0.2-0.1,0.2,0,0.3,0.1c0,6.9,0,13.9,0,20.8c0,0.2,0,0.4,0,0.6c-0.1,0.1-0.1,0.3-0.4,0.2
		C31.1,59.7,31.1,52.5,31.1,45.3z"/>
	<path class="st9" d="M36.5,82c0-0.1,0-0.2,0-0.4c2,0,4,0,5.9,0c0.1,0,0.1,0.1,0.2,0.1c0,0.1,0,0.1,0,0.2C40.6,82,38.5,82,36.5,82z"
		/>
	<path class="st7" d="M42,45.4c0.8-0.1,1.6-0.1,2.4-0.1c11.1,0,22.3,0,33.4,0c0.4,0,0.8-0.1,1.3-0.1c0,1-0.1,2-0.1,3.1
		c0,6.2,0,12.4,0,18.6c-0.8-0.1-1.7-0.1-2.5-0.1c-11.2,0-22.5,0-33.7,0c-0.2,0-0.5,0-0.7-0.1c-0.3-0.6,0-1.2,0-1.8c0-6,0-12,0-18
		C42,46.5,41.8,46,42,45.4z"/>
	<path class="st9" d="M42,45.4c-0.2,0.5,0,1.1,0,1.6c0,6,0,12,0,18c0,0.6-0.3,1.2,0,1.8c-3.5,0-7.1,0.1-10.6-0.1c0-0.2,0-0.4,0-0.6
		c0-6.9,0-13.9,0-20.8C35,45.4,38.5,45.4,42,45.4z"/>
	<path class="st10" d="M42.4,81.6c-2,0-4,0-5.9,0c-0.1,0-0.2,0-0.4,0c-0.3-0.2-0.6-0.3-0.9-0.2c-0.1-0.1-0.2-0.1-0.4-0.2
		c-0.1-0.2-0.3-0.2-0.5-0.3c-0.7-0.4-1.3-0.9-1.8-1.5c0-0.1,0-0.2-0.2-0.2c0-0.1-0.1-0.2-0.1-0.2c0-0.1,0-0.2-0.1-0.2
		c-0.3-0.6-0.6-1.1-0.7-1.8c0-3,0-6,0-9.1c0-0.6,0.2-0.7,0.7-0.7c3.1,0,6.2,0,9.3,0c0.5,0,0.7,0.2,0.7,0.7c0,2.7,0.1,5.4,0,8.1
		c0,1.4,0,2.9,0.2,4.3C42.2,80.7,42.7,81.1,42.4,81.6z"/>
	<path class="st8" d="M79,67c0-6.2,0-12.4,0-18.6c0-1,0.1-2,0.1-3.1c0.1-1,0.6-1.6,1.6-1.8c0.8-0.2,1.4,0.1,1.9,0.7
		c0.3,0.3,0.3,0.8,0.5,1.1c0,0.5,0.1,1.1,0.1,1.6c-0.1,6.7,0.3,13.5-0.2,20.2c0.1,2.8,0.1,5.7,0,8.5c0,1.2-0.9,2-2,1.9
		c-1.1,0-1.9-0.9-1.9-2.1c0-2.5,0-5.1,0-7.6C79.1,67.6,79.1,67.3,79,67z"/>
	<path class="st7" d="M83,67.1c0.5-6.7,0.1-13.5,0.2-20.2c0-0.5-0.1-1.1-0.1-1.6c0.9,0,1.8,0.1,2.6,0.1c0.7,1.4,0.4,2.8,0.4,4.2
		c0,4.8,0,9.6,0,14.4c0,1,0.1,1.9-0.3,2.9c-0.6,0-1.2,0-1.8,0C83.7,66.8,83.4,66.9,83,67.1z"/>
	<path class="st10" d="M31.7,35.6c0.7-2.1,2.8-3.7,5.2-3.9c0.8,0,1-0.3,1-1c-0.1-0.9,0.1-1.7-0.1-2.6c1.7-0.1,3.5,0,5.2,0
		c11.1,0,22.2,0,33.3,0c1.2,0,2.4,0,3.7,0c0,0,0,0.1,0.1,0.1c0,0-0.1,0-0.1,0.1c-0.1,0-0.2,0-0.2,0.1c0,0.1,0.1,0.2,0.2,0.2
		c0,0.9,0,1.8,0,2.7c-0.3,0.3-0.6,0.3-1,0.3c-11.7,0-23.4,0-35,0c-0.3,0-0.6,0-0.9,0c-0.3,0-0.6,0.2-0.6,0.5c-0.2,1-0.5,2-0.5,3
		c0,3,0,6,0,9c0,0.7-0.2,1-0.9,1c-2.9,0-5.7,0-8.6,0c-0.8,0-1-0.1-1-1c0-2.5,0-4.9,0-7.4c0-0.1,0-0.2,0-0.3
		C31.6,36.2,31.7,35.9,31.7,35.6z"/>
	<path class="st8" d="M83.1,38.1c0,1.7-0.5,2.5-1.5,2.8c-1,0.3-2.1-0.3-2.4-1.3C79,39,79,38.2,79.1,37.5c0.2-1.1,0.9-1.8,2-1.8
		c1.1,0,1.8,0.6,2,1.7C83.1,37.8,83.1,38.1,83.1,38.1z"/>
	<path class="st11" d="M79.9,28.1c-1.2,0-2.4,0-3.7,0c-11.1,0-22.2,0-33.3,0c-1.7,0-3.5-0.1-5.2,0c-0.5-0.3-1.1-0.1-1.7-0.2
		c-0.5,0-0.9,0-1.4-0.2c-0.6-0.2-1-0.7-1-1.3c0-1.3,0-2.5,0-3.8c0-0.8,0.5-1.2,1.2-1.5c15.7,0,31.5,0,47.2,0c1.5,0,1.9,0.4,2,2
		c0,1.1,0,2.2,0,3.3c0,0.6-0.4,0.9-0.7,1.3c0,0-0.1,0-0.1,0.1c-0.6,0.2-1.3,0.1-2,0.1C80.8,27.9,80.3,27.8,79.9,28.1z"/>
	<path class="st7" d="M79.9,28.1c0.4-0.3,0.9-0.2,1.3-0.2c0.7,0,1.3,0.1,2-0.1c-0.2,0.4-0.7,0.4-1.1,0.4
		C81.5,28.2,80.7,28,79.9,28.1C79.9,28.2,79.9,28.1,79.9,28.1z"/>
	<path class="st6" d="M79.9,28.6c-0.1,0-0.2-0.1-0.2-0.2c0-0.1,0.1-0.2,0.2-0.1C79.9,28.4,79.9,28.5,79.9,28.6z"/>
	<path class="st6" d="M31.7,35.6c0,0.3-0.1,0.6-0.2,0.8C31.3,36.1,31.4,35.8,31.7,35.6z"/>
	<path class="st9" d="M35.2,81.3c0.3,0,0.7,0,0.9,0.2C35.8,81.6,35.5,81.5,35.2,81.3z"/>
	<path class="st9" d="M34.3,80.9c0.2,0,0.4,0.1,0.5,0.3C34.6,81.1,34.4,81.1,34.3,80.9z"/>
	<path class="st9" d="M32.1,78.7c0.1,0,0.2,0.1,0.1,0.2C32.1,78.9,32.1,78.8,32.1,78.7z"/>
	<path class="st9" d="M32.4,79.2c0.1,0,0.2,0.1,0.2,0.2C32.4,79.3,32.4,79.3,32.4,79.2z"/>
</g>
<g>
	<path class="st12" d="M35.7,37.6c0.1,0.4,0.4,0.3,0.7,0.3c1.4-0.2,1.9,0.8,2,1.8c0.1,1.5,0,2.9,0,4.4c0,0.3-0.1,0.5-0.4,0.6
		c-0.2,0-0.4,0.1-0.5,0.3c-4.5,0-9.1,0-13.6,0c-0.9-0.1-1-0.6-0.9-1.3c0.1-1,0.1-2,0-3.1c-0.1-1.3,0.1-2.3,1.4-2.9
		C28.1,37.6,31.9,37.6,35.7,37.6z M25.1,41.4c0-0.7,0-1.3,0-2c0-0.3,0.1-0.6-0.3-0.6c-0.3,0-0.3,0.3-0.3,0.6c0,1.4,0,2.8,0,4.2
		c0,0.2,0,0.5,0.3,0.5c0.4,0,0.4-0.3,0.4-0.5C25.1,42.8,25.1,42.1,25.1,41.4z M31.3,41.3c0,0.7,0,1.5,0,2.2c0,0.2,0,0.4,0.3,0.5
		c0.3,0,0.3-0.2,0.3-0.4c0-1.5,0-2.9,0-4.4c0-0.2,0-0.4-0.3-0.4c-0.3,0-0.3,0.2-0.3,0.4C31.3,39.9,31.3,40.6,31.3,41.3z M28.4,41.4
		C28.4,41.4,28.4,41.4,28.4,41.4c0-0.7,0-1.4,0-2.1c0-0.2,0.1-0.5-0.2-0.4c-0.2,0-0.2,0.2-0.2,0.4c0,1.4,0,2.8,0,4.2
		c0,0.2,0,0.4,0.2,0.4c0.3,0,0.2-0.3,0.2-0.4C28.4,42.7,28.4,42.1,28.4,41.4z M35.1,39.1c-0.1,0-0.1,0-0.2,0c0,1.5,0,3.1,0,4.6
		c0.1,0,0.1,0,0.2,0C35.1,42.1,35.1,40.6,35.1,39.1z"/>
	<path class="st13" d="M37.5,45.7c0.9,0.4,1.9,0.1,2.9,0.2c1.3,0.1,2.3,1.1,2.4,2.3c0,0.2,0,0.4,0,0.7c0,10.2,0,20.4,0,30.6
		c0,0.3,0,0.6,0,0.9c0,0.7-0.5,1.3-1.2,1.3c-5.5,0-10.9,0-16.4,0c0,0-0.1,0-0.1,0c-0.2-1.9-0.2-3.8,0-5.7c0.5,0,1.1,0,1.6,0
		c3.7,0,7.4,0,11,0c0.3,0,0.8,0.2,0.8-0.4c0-0.7,0-1.4,0-2.1c0-5.8,0-11.6,0-17.4c0.2-0.3,0.2-0.7,0-1c0-0.2,0-0.4,0-0.6
		c0.2-0.1,0.2-0.3,0-0.4c0-0.6,0.1-1.3,0-1.9c0-0.2,0-0.3-0.3-0.3c-2.2,0-4.4,0-6.6-0.1c-2.2,0-4.4,0-6.6,0c0-1.7,0-3.3,0-5
		c0-0.6,0.2-0.8,0.8-0.8c3.6,0,7.1,0,10.7,0C36.9,45.9,37.2,45.9,37.5,45.7z M41.3,67.2C41.3,67.2,41.3,67.2,41.3,67.2
		c0-0.7,0-1.3,0-2c0-3.2,0-6.4,0-9.6c0-0.4-0.1-0.9-0.6-0.8c-0.5,0-0.5,0.4-0.6,0.8c0,0.1,0,0.2,0,0.3c0,6.3,0,12.5,0,18.8
		c0,1.4,0,2.8,0,4.2c0,0.4,0.1,0.8,0.6,0.8c0.5,0,0.5-0.4,0.5-0.7c0-0.2,0-0.4,0-0.6C41.3,74.6,41.3,70.9,41.3,67.2z M40.1,50.7
		c0,0.7,0,1.3,0,2c0,0.4,0.2,0.8,0.6,0.8c0.4,0,0.5-0.4,0.5-0.8c0-1.3,0-2.6,0-4c0-0.4-0.1-0.7-0.6-0.7c-0.5,0-0.6,0.4-0.6,0.7
		C40.1,49.4,40.1,50,40.1,50.7z"/>
	<path class="st14" d="M25.1,76c-0.3,1.9-0.2,3.8,0,5.7c-1.8,0.2-3.6,0.1-5.4,0c-0.5,0-0.9-0.4-1-0.9c-0.1-0.3-0.1-0.6-0.1-0.9
		c0-10.3,0-20.6,0-30.9c0-1.6,0.6-2.7,1.8-3c0.7-0.2,1.5-0.2,2.3-0.1c0.1,0,0.1,0,0.2,0c0.9,0.1,1,0,1-0.9c4.5,0,9.1,0,13.6,0
		c0,0.2,0,0.5,0,0.7c-0.3,0.2-0.6,0.1-0.9,0.1c-3.6,0-7.1,0-10.7,0c-0.6,0-0.8,0.2-0.8,0.8c0,1.7,0,3.3,0,5c0,0,0,0.1,0,0.1
		c-0.4,0-0.8,0-1.3,0c-1,0-1,0-1,1c0,6.7,0,13.4,0,20.1c0,0.7,0,1.4,0,2.2c0,0.6,0.2,0.8,0.8,0.8C24.1,75.8,24.6,75.8,25.1,76z"/>
	<path class="st15" d="M25.1,41.4c0,0.7,0,1.4,0,2.1c0,0.3,0,0.5-0.4,0.5c-0.3,0-0.3-0.3-0.3-0.5c0-1.4,0-2.8,0-4.2
		c0-0.2,0-0.6,0.3-0.6c0.4,0,0.3,0.3,0.3,0.6C25.1,40,25.1,40.7,25.1,41.4z"/>
	<path class="st15" d="M31.3,41.3c0-0.7,0-1.4,0-2.1c0-0.2,0-0.4,0.3-0.4c0.2,0,0.3,0.2,0.3,0.4c0,1.5,0,2.9,0,4.4
		c0,0.2,0,0.4-0.3,0.4c-0.3,0-0.3-0.3-0.3-0.5C31.3,42.7,31.3,42,31.3,41.3z"/>
	<path class="st15" d="M28.4,41.4c0,0.7,0,1.3,0,2c0,0.2,0.1,0.5-0.2,0.4c-0.2,0-0.2-0.2-0.2-0.4c0-1.4,0-2.8,0-4.2
		c0-0.2,0-0.4,0.2-0.4c0.3,0,0.2,0.3,0.2,0.4C28.4,40,28.4,40.7,28.4,41.4C28.4,41.4,28.4,41.4,28.4,41.4z"/>
	<path class="st15" d="M35.1,39.1c0,1.5,0,3.1,0,4.6c-0.1,0-0.1,0-0.2,0c0-1.5,0-3.1,0-4.6C35,39.1,35,39.1,35.1,39.1z"/>
	<path class="st16" d="M25.1,51.7c2.2,0,4.4,0,6.6,0c2.2,0,4.4,0,6.6,0.1c0,0.1,0.1,0.2,0.3,0.3c0.1,0.6,0,1.3,0,1.9
		c-0.2,0.1-0.2,0.3,0,0.4c0,0.2,0,0.4,0,0.6c-0.2,0.3-0.2,0.7,0,1c0,5.8,0,11.6,0,17.4c0,0.7,0,1.4,0,2.1c-0.3,0.1-0.7,0.2-1,0.2
		c-3.8,0-7.5,0-11.3,0c-1.1,0-1.1,0-1.1-1.1c0-7.2,0-14.4,0-21.6C25.1,52.6,24.9,52.2,25.1,51.7C25.1,51.7,25.1,51.7,25.1,51.7z"/>
	<path class="st17" d="M25.1,51.7c-0.2,0.4,0,0.8,0,1.2c0,7.2,0,14.4,0,21.6c0,1.1,0,1.1,1.1,1.1c3.8,0,7.5,0,11.3,0
		c0.4,0,0.7,0,1-0.2c0,0.6-0.5,0.4-0.8,0.4c-3.7,0-7.4,0-11,0c-0.5,0-1.1,0-1.6,0c-0.5-0.2-1-0.1-1.5-0.1c-0.6,0-0.8-0.2-0.8-0.8
		c0-0.7,0-1.4,0-2.2c0-6.7,0-13.4,0-20.1c0-1,0-1,1-1C24.3,51.7,24.7,51.7,25.1,51.7z"/>
	<path class="st15" d="M41.3,67.2c0,3.7,0,7.4,0,11.1c0,0.2,0,0.4,0,0.6c0,0.4-0.1,0.7-0.5,0.7c-0.5,0-0.6-0.4-0.6-0.8
		c0-1.4,0-2.8,0-4.2c0-6.3,0-12.5,0-18.8c0-0.1,0-0.2,0-0.3c0-0.4,0.1-0.8,0.6-0.8c0.5,0,0.6,0.4,0.6,0.8c0,3.2,0,6.4,0,9.6
		C41.3,65.8,41.3,66.5,41.3,67.2C41.3,67.2,41.3,67.2,41.3,67.2z"/>
	<path class="st15" d="M40.1,50.7c0-0.6,0-1.3,0-1.9c0-0.4,0.1-0.7,0.6-0.7c0.4,0,0.6,0.3,0.6,0.7c0,1.3,0,2.6,0,4
		c0,0.4-0.1,0.7-0.5,0.8c-0.5,0-0.6-0.4-0.6-0.8C40.1,52,40.1,51.3,40.1,50.7z"/>
	<path class="st17" d="M38.6,56c-0.2-0.3-0.2-0.7,0-1C38.8,55.3,38.8,55.7,38.6,56z"/>
	<path class="st17" d="M38.6,54.4c-0.2-0.1-0.2-0.3,0-0.4C38.7,54.1,38.7,54.2,38.6,54.4z"/>
	<path class="st17" d="M38.5,52c-0.1,0-0.2-0.1-0.3-0.3C38.5,51.7,38.6,51.8,38.5,52z"/>
</g>
<g>
	<path class="st18" d="M54.1,75.8c0-4.8,0-9.6,0-14.4c0,0,0.1,0,0.1,0c0.2,0,0.5,0,0.7,0c5.1,0,10.1,0,15.2,0c0,0.2,0.1,0.4,0.1,0.7
		c0,2.7,0,5.4,0,8.1c0,1.9,0,3.7,0,5.6c-3.5,0-7.1,0-10.6,0c-1.8,0-3.6,0-5.4,0C54.2,75.8,54.1,75.8,54.1,75.8z"/>
	<path class="st11" d="M70.2,61.5c-5.1,0-10.1,0-15.2,0c-0.2,0-0.5,0-0.7,0c0-2.3,0-4.5,0-6.8c0-0.2,0.1-0.5-0.1-0.7
		c0-0.1,0-0.2,0-0.3c0.2,0,0.2-0.1,0.3-0.3c0.4-0.7,1-1,1.8-1.1c4.9,0,9.8,0,14.7,0c1.2,0.2,2,0.9,2,1.9c0,2.4,0,4.7,0,7.1
		c-0.1,0.1-0.2,0.1-0.3,0.2c-0.3,0-0.6,0-0.8,0.1c0-0.2,0-0.4,0-0.7c0.2-0.1,0.2-0.2,0-0.3c-0.1-0.2-0.2-0.5-0.4-0.7
		c-0.1-0.1-0.2-0.1-0.2-0.2c-0.1,0.1-0.3,0.1-0.4,0c-0.1,0.1-0.2,0.1-0.2,0.2C70,60.3,70.3,60.9,70.2,61.5z M70.2,56.2
		C70.2,56.2,70.2,56.2,70.2,56.2c0,0.5,0,1,0,1.5c0,0.4,0.2,0.6,0.6,0.6c0.4,0,0.7-0.2,0.8-0.5c0.1-1,0.1-2,0-3
		c0-0.4-0.4-0.7-0.8-0.6c-0.4,0-0.6,0.3-0.6,0.8C70.2,55.4,70.2,55.8,70.2,56.2z M70,59.7c0,0,0-0.1-0.1-0.1c0,0-0.1,0-0.1,0
		C69.9,59.7,69.9,59.7,70,59.7C69.9,59.8,70,59.7,70,59.7z M70.6,53.6C70.6,53.6,70.6,53.7,70.6,53.6C70.7,53.7,70.7,53.7,70.6,53.6
		C70.7,53.6,70.7,53.6,70.6,53.6C70.7,53.6,70.6,53.6,70.6,53.6z"/>
	<path class="st19" d="M54.2,75.9c1.8,0,3.6,0,5.4,0c3.5,0,7.1,0,10.6,0c0,1.1,0,2.2,0,3.3c0,0.4,0.2,0.7,0.6,0.8
		c0.4,0.1,0.7-0.1,0.8-0.5c0.1-0.2,0.1-0.5,0.1-0.7c0-0.9,0-1.9,0.1-2.8c0.4,0,0.7,0,1.1,0c0,1.1,0,2.1,0,3.2
		c0.1,1.3-0.3,2.3-1.6,2.7c-1.7,0-3.5,0-5.2,0c-3.4,0-6.8,0-10.1,0c-0.3,0-0.5-0.1-0.7-0.2c-0.4-0.3-0.6-0.8-1.1-1.1
		c0-0.1,0-0.2,0-0.3c0.2-0.2,0.1-0.5,0.1-0.7C54.2,78.2,54.2,77,54.2,75.9z"/>
	<path class="st20" d="M71.3,81.7c0,0.1,0,0.1,0,0.2c-5.1,0-10.2,0-15.4,0c0-0.1,0-0.1,0-0.2c3.4,0,6.8,0,10.1,0
		C67.8,81.7,69.5,81.7,71.3,81.7z"/>
	<path class="st21" d="M55.9,81.7c0,0.1,0,0.1,0,0.2c-0.1,0-0.2,0-0.3,0c-0.5,0-1.2,0.2-1.4-0.1s-0.1-0.9-0.1-1.4
		c0.4,0.3,0.6,0.8,1.1,1.1C55.4,81.7,55.6,81.8,55.9,81.7z"/>
	<path class="st20" d="M54.1,53.9c0.2,0.2,0.1,0.5,0.1,0.7c0,2.3,0,4.5,0,6.8c0,0-0.1,0-0.1,0C54.1,58.9,54.1,56.4,54.1,53.9z"/>
	<path class="st20" d="M54.2,75.9c0,1.2,0,2.4,0,3.5c0,0.2,0.1,0.5-0.1,0.7c0-1.4,0-2.9,0-4.3C54.1,75.8,54.2,75.8,54.2,75.9z"/>
	<path class="st21" d="M71.8,75.8c0,0.9,0,1.9-0.1,2.8c0,0.2,0,0.5-0.1,0.7c-0.1,0.4-0.4,0.6-0.8,0.5c-0.4-0.1-0.6-0.4-0.6-0.8
		c0-1.1,0-2.2,0-3.3c0-1.9,0-3.7,0-5.6c0-2.7,0-5.4,0-8.1c0-0.2,0-0.4-0.1-0.7c0.2-0.5-0.1-1.2,0.3-1.7c0.1-0.1,0.2-0.1,0.2-0.2
		c0.1,0.1,0.3,0.1,0.4,0c0.1,0.1,0.2,0.1,0.2,0.2c0.1,0.2,0.2,0.5,0.4,0.7c0,0.1,0,0.2,0,0.3c0,0.2,0,0.4,0,0.7c0,0.3,0,0.6,0,0.9
		c0,4.1,0,8.3,0,12.4C71.7,75.2,71.7,75.5,71.8,75.8z"/>
	<path class="st22" d="M56.2,52.3c0.2-0.4,0.1-0.8,0.1-1.1c0.1,0,0.3-0.1,0.4-0.1c4.7,0,9.4,0,14.1,0c0,0.4,0,0.8,0.1,1.2
		C66,52.3,61.1,52.3,56.2,52.3z"/>
	<path class="st18" d="M71.8,75.8c0-0.3-0.1-0.7-0.1-1c0-4.1,0-8.3,0-12.4c0-0.3,0-0.6,0-0.9c0.3,0,0.6,0,0.8-0.1
		c0.1,0,0.2,0,0.3,0.1c0,4.8,0.1,9.6,0,14.4C72.5,75.8,72.1,75.8,71.8,75.8z"/>
	<path class="st21" d="M70.2,56.2c0-0.4,0-0.8,0-1.3c0-0.4,0.2-0.7,0.6-0.8c0.4,0,0.8,0.2,0.8,0.6c0.1,1,0.1,2,0,3
		c0,0.4-0.4,0.6-0.8,0.5c-0.4,0-0.6-0.3-0.6-0.6C70.2,57.2,70.2,56.7,70.2,56.2C70.2,56.2,70.2,56.2,70.2,56.2z"/>
	<path class="st19" d="M70,59.7C70,59.7,69.9,59.8,70,59.7c-0.1,0-0.1,0-0.2-0.1c0,0,0.1,0,0.1,0C70,59.6,70,59.7,70,59.7z"/>
	<path class="st19" d="M70.6,53.6C70.6,53.6,70.7,53.6,70.6,53.6C70.7,53.6,70.7,53.6,70.6,53.6C70.7,53.7,70.7,53.7,70.6,53.6
		C70.6,53.7,70.6,53.6,70.6,53.6z"/>
	<path class="st19" d="M71.8,60.8c0-0.1,0-0.2,0-0.3C72,60.6,72,60.7,71.8,60.8z"/>
	<path class="st19" d="M72.9,61.5c-0.1,0-0.2,0-0.3-0.1c0.1-0.1,0.2-0.1,0.3-0.2C72.9,61.3,72.9,61.4,72.9,61.5z"/>
	<path class="st19" d="M70.8,59.6c-0.1,0.1-0.2,0.1-0.2,0.2C70.6,59.8,70.7,59.7,70.8,59.6z"/>
	<path class="st19" d="M71.4,59.8c-0.1-0.1-0.2-0.1-0.2-0.2C71.2,59.7,71.3,59.8,71.4,59.8z"/>
	<path class="st20" d="M70.8,51.1c-4.7,0-9.4,0-14.1,0c-0.1,0-0.3,0-0.4,0.1c-0.9-0.4-1.3-1.1-1.2-2.1c0.1-0.5,0.2-0.7,0.7-0.7
		c1.2,0,2.3,0,3.5,0c3.8,0,7.6,0,11.5,0c0.4,0,0.9-0.2,1.1,0.3c0.3,0.9,0,1.7-0.6,2.1C71.1,50.9,71,51,70.8,51.1z"/>
</g>
<g id="Ovaal_3">
	<g>
		<circle class="st23" cx="15.6" cy="76.9" r="13.2"/>
	</g>
</g>
<text transform="matrix(1 0 0 1 12.798 86.3791)" class="st24 st25 st26">!</text>
</svg>
