<?xml version="1.0" encoding="utf-8"?>
<!-- Generator: Adobe Illustrator 23.1.0, SVG Export Plug-In . SVG Version: 6.00 Build 0)  -->
<svg version="1.1" id="Laag_1" xmlns="http://www.w3.org/2000/svg" xmlns:xlink="http://www.w3.org/1999/xlink" x="0px" y="0px"
	 viewBox="0 0 112 105.7" style="enable-background:new 0 0 112 105.7;" xml:space="preserve">
<style type="text/css">
	.st0{fill:#C086BA;}
	.st1{fill:#FDF9FC;}
</style>
<g>
	<path class="st0" d="M52.3,13.4c1.8,0,3.5,0,5.3,0c2.3,1.3,5.3,2.1,6.2,4.6c1.6,4.7,5.5,5,9.3,5.9c1.1,0.2,2.1,0.5,3.2,0.7
		c1.9,0.4,2.6,1.3,2,3.3c-0.2,0.7-1.3,1.9,0.2,2.5c5,2.1,6.6,6.3,6.8,11.2c0.4,6.9,0.3,13.9,1,20.8c0.4,4-0.2,8.1,1.1,12
		c0,4.8-0.1,9.5,0,14.3c0,1.4-0.3,1.7-1.7,1.7c-20.6-0.1-41.1-0.1-61.7,0c-1.4,0-1.8-0.3-1.7-1.7c0.1-3.9,0-7.7,0-11.6
		c0.6-0.5,0.6-1.1,0.6-1.8c0.5-9.9,1-19.8,1.4-29.8c0.2-4.4,0.1-9.1,3.5-12.4c3-2.9,3.3-6,2.4-9.7c-0.6-2.5,0.5-3.6,3.1-3.7
		C40.4,19.5,47,18.2,52.3,13.4z M51,17.4c2.9-0.2,4,1.3,4,4c0,2,0,4.1,1.2,6c2.5-2,0.2-8.3,6.4-6C60.3,16.4,55.7,14.9,51,17.4
		c0,0.1,0,0.2-0.1,0.2C50.9,17.5,51,17.4,51,17.4z M55,87.8c8.7,0,17.5-0.1,26.2,0.1c2.8,0.1,3.9-0.6,3.7-3.7
		c-0.6-9.1-1-18.3-1.4-27.5c-0.2-4.5-0.5-9-0.7-13.6c-0.1-2.4-1-3.4-3.6-3.4c-16,0.1-32.1,0.1-48.1,0c-2.3,0-3.3,0.5-3.4,3.1
		c-0.7,14-1.5,28-2.4,42c-0.2,2.4,0.7,3,3,3C37.1,87.7,46.1,87.8,55,87.8z M49.4,20.6c-4.8,0.5-9.3,1-13.8,1.5
		c-1.5,0.2-2.6,0.5-2.4,2.4c0.4,3.6,0.8,7.2,1.4,10.8c0.4,2.4,2.4,1.3,3.8,1.5c1.2,0.1,2.6-0.2,2.1-1.7c-1.2-3.8,1.3-4.2,3.9-4.7
		c2-0.4,4.1-1.1,6.1-1.5c4.9-0.9,1.7-4.3,1.9-6.6C52.5,19.6,50.5,20.4,49.4,20.6z M69.5,37.1c1.4-0.2,3.4,0.7,4-1.1
		c0.9-2.7,1.3-5.5,1.8-8.3c0-0.2-0.4-0.6-0.7-0.6c-4.4-1-8.8-2-13.1-3c-1-0.2-1.4,0.7-1.5,1.4c-0.1,1.1,0.7,0.8,1.3,0.7
		c1.6-0.3,2.1,0.7,2.4,2c0.4,1.8,0.9,3.6,1.2,5.5C65.5,36.2,66.5,37.8,69.5,37.1z M53.2,37.1c2.4,0,4.8,0,7.3,0
		c0.8,0,1.8,0.2,2.1-0.5c0.8-2.3-0.6-4.2-1.2-6.3c-0.4-1.7-2-1-3.1-0.7c-4.4,1-8.8,2.1-13.2,3.1c-1.1,0.3-2.2,0.5-2.1,2
		c0.2,1.5,0.8,2.5,2.5,2.5C48.2,37.1,50.7,37.1,53.2,37.1z M79,37.2c0.8-0.2,2.3,0.4,2-0.9c-0.3-1.4-1-3.1-2.8-3.3
		c-1.7-0.1-1.6,1.6-1.7,2.7C76.2,37.7,78,36.9,79,37.2z M31.4,33.1c-1.2,1.3-2.3,2.1-1.9,3.6c0.1,0.5,1,0.6,1.5,0.3
		C32.5,36,31.6,34.8,31.4,33.1z"/>
	<path class="st1" d="M52,17.4c0,0.1-0.1,0.2-0.1,0.2C52,17.5,52,17.5,52,17.4C52,17.4,52,17.4,52,17.4z"/>
	<path class="st0" d="M64.6,52.7c0.1-1.1,0-2.6-1.4-4c-1.9-1.7-1.5-3.8,0.2-5.5c1.4-1.4,3.1-1.5,4.8-0.2c1.9,1.6,2.5,3.6,0.7,5.4
		c-1.6,1.6-1.6,3.3-1.6,5.1c0,6.9-4.7,12.1-10.9,12.2c-6.4,0.1-11.4-5.1-11.5-12c0-1.8,0.2-3.6-1.4-5.2c-1.8-1.8-1.3-3.8,0.5-5.5
		c1.6-1.5,3.3-1.3,4.8,0c1.9,1.7,1.7,3.5,0.5,5.6c-3.3,5.9-0.8,12,4,13.8C59.2,64.7,64.5,60.4,64.6,52.7z"/>
</g>
</svg>
