<?xml version="1.0" encoding="utf-8"?>
<!-- Generator: Adobe Illustrator 24.0.0, SVG Export Plug-In . SVG Version: 6.00 Build 0)  -->
<svg version="1.1" id="Laag_1" xmlns="http://www.w3.org/2000/svg" xmlns:xlink="http://www.w3.org/1999/xlink" x="0px" y="0px"
	 viewBox="0 0 112 105.7" style="enable-background:new 0 0 112 105.7;" xml:space="preserve">
<style type="text/css">
	.st0{fill:#292828;}
	.st1{fill:#FDFDFD;}
	.st2{fill:#EBEBEB;}
	.st3{fill:#D39D49;}
	.st4{fill:#D1270B;}
</style>
<g>
	<path class="st0" d="M2.4,76c-0.1-4.4,1.2-6.7,4.2-8.4c26.6-15.1,53-30.3,79.6-45.5c4.8-2.7,9.6-5.4,14.4-8.3
		c1.9-1.2,4.6-0.6,6,0.7c2.1,1.9,3,4.2,2.8,7c-0.1,1-0.5,1.7-1.4,2.3c-6.1,4.2-12.1,8.5-18.2,12.8C66.1,53,42.4,69.1,19.1,85.7
		c-0.8,0.6-1.5,1.1-2.3,1.6c-3.2,2-6.6,1.7-9.4-0.9C4,83.3,2.6,79.3,2.4,76z M86.3,33.5c0.1-0.3,0-0.5-0.2-0.7c0-0.2,0-0.4-0.2-0.5
		c0-0.1-0.1-0.1-0.1-0.2c0-0.1,0-0.2-0.1-0.2c0-0.1-0.1-0.2-0.1-0.3c-0.2-0.7-0.5-1.2-1-1.7c-0.5-1-1.5-1.5-2.4-2.1
		c-1-0.5-2-1-3.1-0.4c-1.1,0.6-2.3,1.2-3.4,1.9c-16.3,9.3-32.7,18.7-49,28c-6.9,4-13.8,8-21,12.1c0.7,0,1.2,0.1,1.6,0
		c2.3-0.4,4,0.7,5.6,2.2c1.2,1.1,2.1,2.5,3,3.8c1.8,3.4,2.6,6.9,0.8,10.7c0.5-0.2,0.9-0.4,1.3-0.7c9.7-7,19.6-13.8,29.4-20.6
		C59.9,56,72.4,47.4,84.9,38.8C86.7,37.5,87.2,35.6,86.3,33.5z M87.2,37c1.7-0.7,2.8-2.2,4.4-2.9c1.6-0.7,2.8-2.1,4.3-3.1
		c3.7-2.3,7.2-5,10.8-7.5c0.8-0.6,1.4-1.2,1.5-2.3c0.1-2.6-0.7-4.7-2.8-6.3c-1-0.8-2.3-1.2-3.5-0.6c-2.3,1.1-4.5,2.3-6.6,3.7
		c-2.5,1.6-5,3-7.6,4.4c-2.2,1.3-4.5,2.4-6.7,3.7C86.1,28.4,88.1,31.8,87.2,37z M4.3,75c-0.1,1.9,0.2,3.5,0.8,5.1
		c1.2,3.1,3.5,5,6.7,5.9c1.5,0.4,3.3-0.1,3.8-1.2c0.3-0.9,0.6-1.9,0.6-2.8c-0.1-2.7-0.8-5.2-2.4-7.4c-1.3-1.7-2.7-3.4-4.8-4.2
		c-1.4-0.5-3.7,0.1-4,1.2C4.6,72.8,4,73.9,4.3,75z"/>
	<path class="st1" d="M16,75.2c-0.9-1.3-1.8-2.7-3-3.8c-1.6-1.5-3.3-2.6-5.6-2.2c-0.4,0.1-0.9,0-1.6,0c7.1-4.1,14.1-8.1,21-12.1
		c16.3-9.3,32.7-18.7,49-28c1.1-0.6,2.3-1.3,3.4-1.9c0.5,0.2,0.1,1.2,0.5,1.1c0.9-0.2,2,0.4,2.6-0.6c0.9,0.6,1.8,1.1,2.4,2.1
		c-0.5,1.8-0.4,1.9,1,1.7c0,0.1,0.1,0.2,0.1,0.3c0,0-0.1,0.1-0.1,0.1c0,0.1,0.1,0.1,0.1,0.2c0,0.1,0.1,0.1,0.1,0.2
		c-0.5,0.3-0.2,0.4,0.2,0.5c0.2,0.2,0.3,0.5,0.2,0.7c-0.3,0-0.6,0-0.9,0.2c-3.6,2.5-7.5,4.6-11.3,7c-3.8,2.3-7.5,4.6-11.2,7
		c-2.7,1.7-5.5,3.1-8.2,4.8c-2.6,1.7-5.3,3.1-7.9,4.8c-3,1.9-6.2,3.4-9.2,5.3c-3.6,2.3-7.3,4.2-11,6.4C23.1,71,19.3,72.6,16,75.2z"
		/>
	<path class="st2" d="M16,75.2c3.3-2.6,7.1-4.2,10.6-6.3c3.6-2.2,7.4-4.1,11-6.4c3-1.9,6.2-3.4,9.2-5.3c2.6-1.6,5.3-3.1,7.9-4.8
		c2.7-1.7,5.5-3.1,8.2-4.8c3.7-2.4,7.5-4.7,11.2-7c3.8-2.3,7.6-4.5,11.3-7c0.3-0.2,0.6-0.2,0.9-0.2c0.9,2.1,0.4,4.1-1.4,5.3
		C72.4,47.4,59.9,56,47.5,64.6C37.6,71.4,27.8,78.2,18,85.2c-0.4,0.3-0.8,0.5-1.3,0.7C18.6,82.1,17.8,78.6,16,75.2z"/>
	<path class="st3" d="M87.2,37c0.9-5.2-1.1-8.6-6.2-10.9c2.2-1.4,4.5-2.5,6.7-3.7c2.5-1.5,5.1-2.9,7.6-4.4c2.1-1.4,4.3-2.6,6.6-3.7
		c1.2-0.6,2.5-0.1,3.5,0.6c2.1,1.6,2.9,3.7,2.8,6.3c0,1.1-0.7,1.7-1.5,2.3c-3.6,2.5-7.1,5.2-10.8,7.5c-1.5,1-2.7,2.3-4.3,3.1
		C90,34.8,88.9,36.3,87.2,37z M87.6,23.5c-2.4,1.8-2.6,2-1.9,3.1C86.3,25.7,87.3,25,87.6,23.5z M92.2,21.2c1.5,0,2.6,0.3,3.7-0.3
		C94.8,20.8,93.6,19.6,92.2,21.2z M99.7,20.4c-0.1,0.8,0.8,1,0.6,1.6c-0.1,0.4,0.1,0.5,0.4,0.5c0.2,0,0.4,0.1,0.5-0.1
		c0.1-0.3,0.2-0.6,0-0.8C100.9,21.1,100.5,20.6,99.7,20.4z M101.3,16.9c0.6,0.3,1.2-0.2,1.7,0c0.4,0.1,0.5-0.1,0.6-0.4
		c0.1-0.2,0.1-0.4-0.1-0.6c-0.2-0.2-0.5-0.3-0.8-0.1C102.3,16.1,101.7,16.3,101.3,16.9z M93.5,23.8c-0.2-0.3-0.3-0.7-0.7-0.6
		c-0.6,0.1-1,1.5-0.7,2c0.1,0.2,0.4,0.3,0.5,0.1C92.8,24.7,93.1,24.2,93.5,23.8z M88.6,28.2c0.7,0.4,1.2-0.3,1.7-0.1
		c0.2,0.1,0.5,0.5,0.7,0c0.1-0.2,0.1-0.6-0.1-0.8c-0.3-0.3-0.6-0.4-0.9-0.1C89.5,27.5,89.1,27.8,88.6,28.2z M96,24.9
		c0.8,0,1.4,0.3,1.8-0.4c0.1-0.2,0-0.4-0.2-0.5C96.9,23.8,96.6,24.4,96,24.9z"/>
	<path class="st4" d="M4.3,75c-0.3-1.1,0.3-2.2,0.6-3.3c0.3-1.1,2.7-1.7,4-1.2c2.2,0.8,3.6,2.4,4.8,4.2c1.6,2.2,2.3,4.7,2.4,7.4
		c0,0.9-0.3,1.9-0.6,2.8c-0.4,1.2-2.3,1.7-3.8,1.2c-3.1-1-5.5-2.9-6.7-5.9C4.6,78.5,4.2,76.9,4.3,75z"/>
	<path class="st2" d="M82.2,27.7c-0.6,1.1-1.7,0.4-2.6,0.6c-0.4,0.1,0-0.8-0.5-1.1C80.3,26.6,81.3,27.2,82.2,27.7z"/>
	<path class="st2" d="M85.6,31.5c-1.4,0.2-1.5,0.1-1-1.7C85.1,30.2,85.5,30.8,85.6,31.5z"/>
	<path class="st2" d="M86.1,32.7c-0.4-0.1-0.6-0.2-0.2-0.5C86.1,32.3,86.1,32.5,86.1,32.7z"/>
	<path class="st2" d="M85.9,32c0-0.1-0.1-0.1-0.1-0.2c0,0,0-0.1,0.1-0.1C85.8,31.8,85.8,31.9,85.9,32z"/>
	<path class="st2" d="M87.6,23.5c-0.3,1.5-1.3,2.2-1.9,3.1C85.1,25.5,85.2,25.3,87.6,23.5z"/>
	<path class="st2" d="M92.2,21.2c1.4-1.5,2.6-0.3,3.7-0.3C94.8,21.4,93.7,21.2,92.2,21.2z"/>
	<path class="st2" d="M99.7,20.4c0.8,0.1,1.2,0.7,1.6,1.2c0.2,0.2,0.1,0.6,0,0.8c-0.1,0.2-0.3,0.2-0.5,0.1c-0.3-0.1-0.5-0.1-0.4-0.5
		C100.5,21.4,99.6,21.2,99.7,20.4z"/>
	<path class="st2" d="M101.3,16.9c0.4-0.6,0.9-0.8,1.4-1.1c0.3-0.2,0.6,0,0.8,0.1c0.2,0.1,0.2,0.4,0.1,0.6c-0.1,0.3-0.3,0.5-0.6,0.4
		C102.5,16.7,102,17.2,101.3,16.9z"/>
	<path class="st2" d="M93.5,23.8c-0.4,0.4-0.7,0.9-0.9,1.5c-0.1,0.2-0.3,0.1-0.5-0.1c-0.3-0.5,0.1-1.8,0.7-2
		C93.2,23.1,93.3,23.4,93.5,23.8z"/>
	<path class="st2" d="M88.6,28.2c0.6-0.4,1-0.7,1.4-1c0.3-0.2,0.6-0.1,0.9,0.1c0.2,0.2,0.2,0.6,0.1,0.8c-0.2,0.5-0.5,0-0.7,0
		C89.7,27.9,89.3,28.6,88.6,28.2z"/>
	<path class="st2" d="M96,24.9c0.6-0.6,0.9-1.1,1.6-0.9c0.2,0.1,0.3,0.3,0.2,0.5C97.4,25.2,96.8,24.9,96,24.9z"/>
</g>
</svg>
