<?xml version="1.0" encoding="utf-8"?>
<!-- Generator: Adobe Illustrator 23.1.0, SVG Export Plug-In . SVG Version: 6.00 Build 0)  -->
<svg version="1.1" id="Laag_1" xmlns="http://www.w3.org/2000/svg" xmlns:xlink="http://www.w3.org/1999/xlink" x="0px" y="0px"
	 viewBox="0 0 112 105.7" style="enable-background:new 0 0 112 105.7;" xml:space="preserve">
<style type="text/css">
	.st0{fill:#D1D2D4;}
	.st1{fill:#FFFFFF;}
	.st2{fill:#E9EAEB;}
	.st3{fill:#D4A84C;}
	.st4{fill:#A6A8AC;}
	.st5{fill:#E52526;}
</style>
<g>
	<path class="st0" d="M21,65.9c-0.7,1-1.6,1.8-2,3c-0.5,1.2-0.2,1.9,0.5,2.8c0.1,2.1,1.5,3.3,3.2,4.4c-0.8,0.3-1-0.5-1.5-0.2
		c1,1.7,1,1.7,2.9,1.1c3.5-1.2,7.1-2.5,10.6-3.7c2.2-0.8,4.3-1.7,6.6-2.4c1.6-0.5,3.2-1.2,4.8-1.6c1.7-0.4,2.8-2,4.6-2
		c0,0,0.1,0,0.1-0.1c1.4-0.9,3.1-0.8,4.5-1.8c0.1-0.1,0.3,0,0.4,0.1c0.5,0.4,1.1,0.6,1.7,0.2c0.6-0.4,0.9-0.9,0.9-1.9
		c0.1,0.6,0.1,1,0.3,1.2c0.4,0.5,0.9,1,1.6,1c0.4,0,0.9-0.1,1-0.6c0.1-0.2-0.1-0.5,0.3-0.5c0.2,0,0.3,0.2,0.3,0.4
		c0.1,0.4,0.5,0.7,0.6,0.3c0.4-1.3,0.8-0.4,1.2-0.1c0.3,0.2,0.6,0.4,1,0.1c-0.2-0.2-0.3-0.4-0.5-0.5c-0.8-0.7-0.7-1.2,0.2-1.7
		c0.6-0.4,1.3-0.5,2-0.7c4.6-1.6,9.2-3.2,13.8-4.8c0.8-0.3,1.4-0.2,1.8,0.5c0.2,1.1-0.2,2.1-0.5,3.1c-0.2,0-0.2-0.3-0.5-0.2
		c-1.7,0.6-3.4,1.3-5.2,1.9c-3.2,1-6.3,2.1-9.4,3.3c-0.9,0.3-1.9,0.5-2.2,1.7c-0.1,0.2-0.3,0.3-0.5,0.2c-1.1-0.4-2.2,0.6-3.4,0.1
		c-0.1,0-0.3,0-0.3,0c-0.9,0.8-2.2,0.7-3.2,1.2c-1.7,0.7-3.4,1.3-5.1,1.9c-2.1,0.8-4.2,1.4-6.2,2.1c-2.1,0.8-4.2,1.4-6.3,2.3
		c-4.6,1.8-9.3,3.3-14,4.8c-1,0.3-1.2,0.8-1.2,1.7c0,0.7,0,1.4-0.8,2.1c0.5-1.1,0.3-2.1,0.3-3.3c-0.3,0.7-0.5,1-0.7,1.6
		c-0.3-0.6-0.4-1.2-1-1.1c-0.2-0.5-0.2-1.1-0.2-1.7c0.3-0.2,0.1-0.4-0.1-0.5l0-0.1l0.1,0c0-0.2,0-0.5-0.3-0.6l0,0
		c0-0.2-0.1-0.3-0.2-0.3l0,0c0-0.2,0-0.4-0.3-0.5l0,0c0.9-0.7,0.8-1.3-0.1-1.9c-0.5-0.4-0.8,0.1-1.2,0c-0.4-0.4-0.6-0.9-1.1-1.2
		c-0.3-0.8-0.4-1.7-1.2-2.2c-0.5-1.1-1.3-2-1.7-3.2c-0.1,1.5-0.7,2.9-0.9,4.3c-0.8,0.3-1.8,0.3-2.3,1.2c-1.4,2.6-1.3,5.3-0.3,8
		c0.5,1.3,1.4,2,2.3,2.9c1.2,1.2,2.4,2.1,4.1,1.7c-0.3,1.2-1.5,0.6-2.2,1.1c-0.2,0-0.3,0-0.5,0c0-0.3-0.1-0.4-0.4-0.5
		c-3.5-1.8-5.5-4.9-6.3-8.7c-0.4-1.9-1.5-3.4-2.3-5.1c-1.9-3.8-1.6-7.4,1.5-10.5c0.5-0.5,0.9-1.1,1.4-1.7c1.4-2,1.3-3.9-0.1-5.9
		c-0.6-0.8-1-1.7-1.3-2.7c0.5-0.1,0.8,0.5,1.3,0.5c3-0.2,6.1,0.5,9-0.5c0.2,2.4,0.5,4.7,0.7,7.1c0.1,0.8,0,1.7-0.7,2.3
		c-0.6-0.5-1-1.7-2.1-0.5c-0.4,0.4-0.7,0.6,0.1,0.8c0.5,0.1,0.4,0.6,0.3,0.9c0,0.6,0.2,1,0.7,1.2c-0.3,0.8-0.3,1.5-0.2,2.5
		c0.4-1.2,0.7-2.3,1.6-3C19.6,65.6,20.2,66,21,65.9z M14.8,61.6c-0.7-0.1-1.3,0-1.5,0.8c-0.2,0.8,0.3,1.1,1,1.4c0.4,0.2,1,0.3,0.9,1
		c-0.2,0.6-0.7,0.5-1.2,0.3c-0.2-0.1-0.4-0.1-0.5,0.1c-0.1,0.3,0.1,0.4,0.4,0.5c0.8,0.4,1.5,0.3,2-0.5c0.5-0.8,0-1.4-0.7-1.8
		c-0.2-0.1-0.4-0.1-0.5-0.2c-0.2-0.2-0.5-0.3-0.4-0.6c0.1-0.4,0.4-0.4,0.8-0.4c0.3,0,0.7,0.4,0.7-0.1C15.6,61.4,15,61.7,14.8,61.6z
		 M12.8,64.3c-0.2-0.4,0.3-1.4-0.4-1.4c-0.7,0-0.3,0.9-0.3,1.4c0,0.4-0.4,1.2,0.4,1.2C13,65.5,12.7,64.7,12.8,64.3z"/>
	<path class="st0" d="M2,64.7c1.1-1.8,2.6-3.3,3.9-5c0.5-0.6,0.2-1.4,0-2.1c-0.8-2.2-1.5-4.5-1.8-6.9C3.9,49.9,3.9,49,4,48.2
		c0-0.4,0.2-0.8,0.7-0.8c0.4,0,0.4,0.4,0.5,0.7c0.2,1.2,0.3,2.3,0.5,3.5c0.3,1.7,1.2,3.1,2,4.6c1.7,3.3,0.8,5.6-1.3,7.9
		c-2.4,2.6-2.9,6.2-1.3,9.5c1,2.1,2.3,4,3.1,6.2c0.2,0.6,0.5,1.1,0.4,1.7c0,0.4-0.2,0.6-0.5,0.7c-0.3,0.1-0.5-0.1-0.6-0.4
		C6,78.3,3,75.7,2.4,72c0-0.2-0.2-0.3-0.4-0.3c0-0.2,0-0.5,0-0.7c0.3-0.2,0.3-0.5,0-0.7C2,68.4,2,66.5,2,64.7z"/>
	<path class="st1" d="M2,70.2c0.3,0.2,0.3,0.5,0,0.7C2,70.7,2,70.4,2,70.2z"/>
	<path class="st2" d="M81.9,58.2c-0.4-0.7-1-0.8-1.8-0.5c-4.6,1.6-9.2,3.2-13.8,4.8c-0.7,0.2-1.4,0.3-2,0.7c-0.9,0.6-1,1.1-0.2,1.7
		c0.2,0.1,0.3,0.3,0.5,0.5c-0.4,0.3-0.7,0.1-1-0.1c-0.4-0.3-0.8-1.2-1.2,0.1c-0.1,0.4-0.5,0.1-0.6-0.3c0-0.2-0.1-0.4-0.3-0.4
		c-0.4,0-0.3,0.3-0.3,0.5c-0.1,0.5-0.6,0.6-1,0.6c-0.7,0-1.2-0.4-1.6-1c-0.2-0.2-0.2-0.6-0.3-1.2c0,1-0.3,1.5-0.9,1.9
		c-0.7,0.4-1.2,0.2-1.7-0.2c-0.1-0.1-0.3-0.2-0.4-0.1c-1.4,1-3.1,0.9-4.5,1.8c0,0-0.1,0.1-0.1,0.1c-1.8,0-3,1.6-4.6,2
		c-1.7,0.4-3.2,1.1-4.8,1.6c-2.2,0.7-4.4,1.6-6.6,2.4c-3.5,1.3-7.1,2.5-10.6,3.7c-1.9,0.6-1.9,0.6-2.9-1.1c0.5-0.2,0.7,0.5,1.5,0.2
		c-1.7-1.1-3.1-2.3-3.2-4.4c2.7-0.7,5.1-1.9,7.7-2.9c4.9-1.9,9.7-3.9,14.6-5.8c0.2-0.1,0.5-0.1,0.7-0.1c0,0,0.1,0.1,0.1,0.1
		c0,0-0.1-0.1-0.1-0.1c0.5-0.5,1.3-0.6,1.9-0.9c0.1,0.1,0.1,0.3,0.2,0.3c0.3,0,0.2-0.2,0.3-0.4c0.5-0.5,1.2-0.6,1.9-0.7
		c0.1,0.2,0.2,0.2,0.3,0c0,0,0.1,0,0.1,0c0.6,0.5,1.3,0.6,1.9-0.1c0.2-0.2,0.5-0.3,0.7-0.4c1.6-0.6,3.3-1.1,4.9-1.7
		c2.6-0.9,5.2-1.8,7.8-2.7c2-0.7,4-1.3,6-2c2.9-1,5.6-2.2,8.5-3c0.5-0.1,0.9-0.4,0.9-1C80.6,52.2,81.8,55,81.9,58.2z"/>
	<path class="st3" d="M81.9,58.2c-0.2-3.2-1.3-6-4-7.9c-0.5-0.6-1.4-0.6-2-0.9c2.3-1.2,4.8-2,7.2-3c6.5-2.6,12.9-5.2,19.4-7.7
		c2.2-0.9,4.4-0.1,5.8,1.9c-1,0.1-1.6,0.6-1.6,1.7c-0.3-0.1-0.5-0.1-0.8-0.3c-0.4-0.2-1.1-0.1-1.1-0.7c0.1-0.7,0.7-0.3,1.1-0.4
		c0.2,0,0.3,0,0.3-0.2c0-0.3-0.2-0.3-0.4-0.4c-0.8-0.2-1.6-0.2-2,0.5c-0.4,0.8,0.2,1.4,1,1.7c0.4,0.2,1.1,0.2,0.9,0.9
		c-0.2,0.5-0.8,0.4-1.3,0.2c-0.2-0.1-0.5-0.2-0.6,0.1c-0.2,0.3,0.1,0.5,0.4,0.6c0.6,0.3,1.2,0.3,1.7,0c0.9-0.4,0.6-1.3,0.7-2
		c0.7-0.1,0.7,0.4,0.8,0.9c0.1,1.3,0.4,1.4,1.5,1c-1-1.2-0.9-1.9,0.4-2.3c0.9,1.6,1.6,3.1,1.7,5c0.1,2.4-1.1,4.3-3.3,5.2
		C102.8,54,97.9,56,93,57.9c-3.7,1.5-7.4,3-11.1,4.4c-0.3,0.1-0.6,0.2-0.9,0.2c-0.2-0.5,0.4-0.8,0.4-1.3
		C81.7,60.3,82.1,59.3,81.9,58.2z M103.3,43C103.3,43,103.3,43,103.3,43c0-0.2,0-0.4,0-0.6c0-0.3,0.2-0.8-0.3-0.9
		c-0.6,0-0.4,0.5-0.4,0.8c0,0.4,0,0.9,0,1.3c0,0.3,0,0.6,0.4,0.6c0.5,0,0.4-0.4,0.4-0.7C103.3,43.4,103.3,43.2,103.3,43z"/>
	<path class="st2" d="M18.5,53.9c-3,1-6,0.2-9,0.5c-0.5,0-0.8-0.6-1.3-0.5c-1.3-2.1-1.7-4.5-1.9-6.9C6,43,6.7,39.2,9,35.8
		c2-3,1.9-6.3,1.5-9.7c-0.3-2.8-1-5.5-0.8-8.4c0-0.8,0.1-1.4,1.1-1c0.2,0.1,0.4,0.1,0.6,0.1c2.3,0.1,2.7,0.7,2.7,3
		c0,1.3,0.7,2.6,1,3.9c0.5,2.1,1,4.3,1.2,6.4c0.1,1.9-0.4,3.8-0.8,5.6c-0.3,1.7-0.7,3.4-0.8,5.2c-0.2,2.2,0.7,4.1,1.7,6
		C17.5,49.2,18.1,51.5,18.5,53.9z"/>
	<path class="st4" d="M81.4,61.3c-0.1,0.5-0.6,0.7-0.4,1.3c0,0,0,0,0,0c-0.2,0-0.4,0-0.5,0.2c-3.3,1.6-6.8,2.8-10.3,4.2
		c-16.4,6.6-32.8,13.1-49.2,19.7C20.5,86.9,20,87,19.4,87c0,0-0.1,0-0.1,0c0.4-0.3,0.7-0.6,1.1-0.9c0.7-0.5,0.8-1.2,1-1.9
		c0.2-0.8-0.3-1.7,0.2-2.5c0.7-0.1,0.8,0.5,1,1.1c0.2-0.5,0.4-0.9,0.7-1.6c0,1.3,0.1,2.2-0.3,3.3c0.8-0.7,0.8-1.4,0.8-2.1
		c0-0.9,0.3-1.4,1.2-1.7c4.7-1.5,9.4-3.1,14-4.8c2.1-0.8,4.2-1.5,6.3-2.3c2-0.8,4.2-1.4,6.2-2.1c1.7-0.6,3.5-1.2,5.1-1.9
		c1.1-0.5,2.3-0.4,3.2-1.2c0.1-0.1,0.3-0.1,0.3,0c1.1,0.5,2.2-0.6,3.4-0.1c0.2,0.1,0.4-0.1,0.5-0.2c0.3-1.1,1.3-1.3,2.2-1.7
		c3.1-1.1,6.2-2.3,9.4-3.3c1.8-0.6,3.5-1.3,5.2-1.9C81.2,61,81.3,61.3,81.4,61.3z M22.7,84.7c-0.1,0-0.1-0.1-0.2-0.1
		c0,0-0.1,0-0.1,0c0,0,0,0.1,0.1,0.1C22.5,84.8,22.6,84.7,22.7,84.7z"/>
	<path class="st5" d="M21.6,81.6c-0.4,0.8,0.1,1.7-0.2,2.5c-0.2,0.7-0.3,1.5-1,1.9c-0.4-0.1,0.1-0.8-0.5-0.8c-0.8,0.1-0.7,1-1.2,1.4
		c-0.2,0.2,0.4,0.1,0.6,0.3c0,0,0.1,0,0.1,0c-0.3,0.3-0.7,0.5-1,0.8c-1.8,0.4-3-0.5-4.1-1.7c-0.9-0.9-1.8-1.6-2.3-2.9
		c-1-2.7-1.1-5.4,0.3-8c0.5-0.9,1.5-0.9,2.3-1.2c0.4-0.1,0.8-0.2,1.1-0.1c1,0.1,1.8,0.6,2.6,1.2c0.5,0.2,0.7,0.8,1.1,1.2
		c0.4,0.6,0.9,1.3,1.3,1.9c0,0,0,0,0,0c0.1,0.2,0.2,0.3,0.3,0.5c0,0,0,0,0,0c0.1,0.1,0.1,0.2,0.2,0.3c0,0,0,0,0,0
		c0,0.2,0,0.5,0.3,0.6l-0.1,0c0,0,0,0.1,0,0.1c0,0.2,0.1,0.3,0.1,0.5C21.4,80.5,21.4,81.1,21.6,81.6z M12.8,83
		c-0.3,0.8,0.1,1.6,0.6,1.6c1-0.1,1.4,0.5,1.7,1.1c0.5,0.9,1.2,0.8,2,0.5c-1.4,0.1-1.5-1.3-2.3-1.8C14.3,83.9,12.9,84.4,12.8,83z
		 M15.7,77.6c0.7-1.3,0.6-1.5-0.5-1.5c-0.4,0-0.6-0.3-0.7-0.5c-0.1-0.3-0.2-0.6-0.5-0.4c-0.3,0.2-0.8,0.4-0.8,0.9
		c0,0.3,0.2,0.5,0.6,0.5C14.5,76.6,15.2,76.7,15.7,77.6z M17.9,82.6C17.4,84,16,83,15.2,83.6C17.1,84.5,18,84.1,17.9,82.6z
		 M18.3,80.5c0.2-1.8-0.4-2.7-1.8-2.8C17.7,78.3,18.1,79.4,18.3,80.5z M17.7,75.5c-0.2,0.1-0.5,0.2-0.5,0.5c0.1,0.7,0.6,1.1,1.2,1.3
		c0.1,0.1,0.3-0.1,0.3-0.3C18.4,76.5,18.5,75.8,17.7,75.5z M20.5,80.2c-0.3-0.2,0.2-1-0.5-1.1c-0.4,0-0.5,0.3-0.5,0.7
		c0.1,0.5,0.2,1,0.7,1.1C20.5,80.9,20.6,80.6,20.5,80.2z M13.9,80.8c0.1,0,0.2,0,0.3,0.1c0.2-0.9,0.5-1.7,0.7-2.6
		C14.2,79,13.8,79.9,13.9,80.8z M13.4,77.8c-1,0.6-0.8,1.6-0.8,2.5C13.2,79.6,12.9,78.6,13.4,77.8z M17.7,85.1
		c1.1,0.3,1.8-0.2,2.2-1.2C19.2,84.4,18.5,84.7,17.7,85.1z M16.1,82c-0.6-0.9,0.1-2-0.4-3C16.1,80,14.7,81.2,16.1,82z"/>
	<path class="st0" d="M75.9,49.3c0.7,0.4,1.5,0.3,2,0.9c-0.1,0.6-0.4,0.8-0.9,1c-2.9,0.7-5.7,2-8.5,3c-2,0.7-4,1.3-6,2
		c-2.6,0.9-5.2,1.8-7.8,2.7c-1.6,0.6-3.3,1.1-4.9,1.7c-0.3,0.1-0.6,0.2-0.7,0.4c-0.6,0.7-1.2,0.6-1.9,0.1c0.1-0.5,0.5-0.5,0.9-0.7
		c8.8-3.5,17.6-7.1,26.4-10.6C75,49.6,75.4,49.5,75.9,49.3z"/>
	<path class="st2" d="M16.6,20.4c0.4,1.9,0.5,2.1,1.9,2c-0.3-0.4-1-0.5-0.9-1.2c0.1-0.6,0-1.2,0.8-1.1c0-0.5-0.5-0.3-0.6-0.5
		c-0.2-0.2-0.2-0.4,0-0.5c0.3-0.2,1.6,0.6,1.5,0.9c-0.6,1.2,0.2,2.3,0.3,3.4c0.4,3,0.3,6-0.7,8.9c-0.6,1.7-1.1,3.5-1.2,5.3
		c-0.1,1.1,0.2,2.3,0.3,3.4c0.1,0.5,0.3,1.1-0.4,1.3c-0.7,0.1-0.8-0.5-0.9-1c-0.5-2.8-0.4-5.6,0.1-8.4c0.6-3.7,1-7.3,0-11
		c-0.1-0.2-0.1-0.4-0.1-0.6C16.6,21.1,16.6,20.8,16.6,20.4z"/>
	<path class="st0" d="M20.7,63c0.4-2.7,0.3-5.4-0.7-8c-0.2-0.6-1-1.6,0-2c0.8-0.4,1.2,0.8,1.5,1.4c1.3,2.8,1.4,5.7,0.8,8.7
		c0,0.2-0.1,0.4-0.1,0.6C21.6,63.5,21.4,62.9,20.7,63z"/>
	<path class="st0" d="M109.3,41.9c-1.3,0.4-1.4,1.1-0.4,2.3c-1.2,0.4-1.4,0.2-1.5-1c-0.1-0.5,0-1-0.8-0.9l0,0c0-1.1,0.6-1.6,1.6-1.7
		C108.4,41.1,109.3,41.2,109.3,41.9z"/>
	<path class="st2" d="M17.6,65.7c-0.5-0.2-0.8-0.6-0.7-1.2c0-0.3,0.1-0.8-0.3-0.9c-0.8-0.2-0.5-0.3-0.1-0.8c1.1-1.1,1.5,0,2.1,0.5
		c0,0.1,0,0.1,0,0.2c-1.1,0.2-1.2,0.4-0.7,1.7C17.8,65.4,17.8,65.6,17.6,65.7z"/>
	<path class="st2" d="M20.7,63c0.7-0.2,1,0.5,1.5,0.7c0,0.9-0.6,1.5-1.2,2.1c-0.8,0.1-1.4-0.3-2-0.8c0.2-0.1,0.3-0.3,0.5-0.4
		c1,0.6,1.7,0.5,1.9-0.3c0.1-0.6-0.5-0.7-0.6-1.2C20.7,63.2,20.7,63.1,20.7,63z"/>
	<path class="st0" d="M20.7,63.2c0.1,0.5,0.8,0.6,0.6,1.2c-0.2,0.8-0.8,0.9-1.9,0.3C19.7,64.1,19.9,63.4,20.7,63.2z"/>
	<path class="st0" d="M17.8,65.2c-0.5-1.3-0.4-1.6,0.7-1.7C18.5,64.1,18.2,64.7,17.8,65.2z"/>
	<path class="st0" d="M44.9,61.8c0,0.2,0,0.4-0.3,0.4c-0.1,0-0.1-0.2-0.2-0.3C44.5,61.8,44.7,61.8,44.9,61.8z"/>
	<path class="st3" d="M80.6,62.8c0.1-0.2,0.3-0.2,0.5-0.2C80.9,62.8,80.7,62.8,80.6,62.8z"/>
	<path class="st0" d="M47.1,61.1c-0.1,0.2-0.2,0.2-0.3,0C46.8,61.1,46.9,61.1,47.1,61.1z"/>
	<path class="st2" d="M14.8,61.6c0.2,0.1,0.8-0.2,0.8,0.4c0,0.6-0.5,0.1-0.7,0.1c-0.3,0-0.7,0-0.8,0.4c-0.1,0.3,0.2,0.5,0.4,0.6
		c0.2,0.1,0.4,0.1,0.5,0.2c0.7,0.4,1.1,1,0.7,1.8c-0.4,0.8-1.2,0.9-2,0.5c-0.2-0.1-0.5-0.2-0.4-0.5c0.1-0.2,0.3-0.2,0.5-0.1
		c0.5,0.2,1,0.3,1.2-0.3c0.2-0.6-0.5-0.8-0.9-1c-0.6-0.3-1.2-0.6-1-1.4C13.5,61.6,14.1,61.5,14.8,61.6z"/>
	<path class="st1" d="M15.6,73.9c-0.4-0.1-0.8,0-1.1,0.1c0.2-1.4,0.7-2.8,0.9-4.3c0.5,1.1,1.2,2.1,1.7,3.2
		C16.5,73,15.8,73.1,15.6,73.9z"/>
	<path class="st2" d="M15.6,73.9c0.2-0.8,0.9-0.9,1.5-1.1c0.8,0.5,0.9,1.4,1.2,2.2C17.4,74.5,16.6,74,15.6,73.9z"/>
	<path class="st2" d="M20.6,78.2c-0.4-0.6-0.9-1.3-1.3-1.9c0.4,0.1,0.7-0.3,1.2,0C21.4,76.9,21.5,77.5,20.6,78.2z"/>
	<path class="st2" d="M12.8,64.3c-0.1,0.4,0.2,1.2-0.3,1.2c-0.8,0-0.4-0.8-0.4-1.2c0-0.5-0.4-1.4,0.3-1.4
		C13.1,62.9,12.6,63.8,12.8,64.3z"/>
	<path class="st2" d="M20.9,78.6c-0.1-0.2-0.2-0.3-0.3-0.5C20.9,78.2,20.9,78.4,20.9,78.6z"/>
	<path class="st2" d="M21.4,79.4c-0.3-0.1-0.3-0.4-0.3-0.6C21.4,78.9,21.4,79.2,21.4,79.4z"/>
	<path class="st2" d="M21.4,80c0-0.2-0.1-0.3-0.1-0.5C21.5,79.6,21.7,79.7,21.4,80z"/>
	<path class="st2" d="M21.1,78.9c-0.1-0.1-0.1-0.2-0.2-0.3C21,78.6,21.1,78.7,21.1,78.9z"/>
	<path class="st0" d="M42.4,62.8c0,0,0.1,0.1,0.1,0.1C42.5,62.8,42.5,62.8,42.4,62.8C42.4,62.8,42.4,62.8,42.4,62.8z"/>
	<path class="st0" d="M106.6,42.2c0,0.7,0.2,1.6-0.7,2c-0.6,0.3-1.2,0.3-1.7,0c-0.2-0.1-0.5-0.3-0.4-0.6c0.1-0.3,0.4-0.2,0.6-0.1
		c0.5,0.2,1.1,0.4,1.3-0.2c0.2-0.6-0.5-0.7-0.9-0.9c-0.8-0.4-1.4-0.9-1-1.7c0.4-0.8,1.2-0.7,2-0.5c0.2,0,0.4,0.1,0.4,0.4
		c0,0.2-0.2,0.2-0.3,0.2c-0.4,0.1-1.1-0.3-1.1,0.4c0,0.6,0.7,0.5,1.1,0.7C106.1,42.1,106.4,42.1,106.6,42.2
		C106.6,42.2,106.6,42.2,106.6,42.2z"/>
	<path class="st0" d="M103.3,43c0,0.2,0,0.4,0,0.6c0,0.3,0.1,0.7-0.4,0.7c-0.4,0-0.4-0.4-0.4-0.6c0-0.4,0-0.9,0-1.3
		c0-0.3-0.2-0.8,0.4-0.8c0.5,0,0.3,0.6,0.3,0.9C103.3,42.6,103.3,42.8,103.3,43C103.3,43,103.3,43,103.3,43z"/>
	<path class="st3" d="M19.3,87c-0.2-0.2-0.8-0.1-0.6-0.3c0.5-0.4,0.4-1.3,1.2-1.4c0.6,0,0.1,0.7,0.5,0.8C20,86.4,19.7,86.7,19.3,87z
		"/>
	<path class="st0" d="M22.7,84.7c-0.1,0-0.2,0.1-0.2,0.1c0,0,0-0.1-0.1-0.1c0,0,0.1,0,0.1,0C22.5,84.6,22.6,84.7,22.7,84.7z"/>
	<path class="st3" d="M12.8,83c0.1,1.4,1.4,0.8,2.1,1.3c0.8,0.6,0.9,2,2.3,1.8c-0.8,0.3-1.5,0.4-2-0.5c-0.3-0.6-0.7-1.2-1.7-1.1
		C12.9,84.7,12.5,83.8,12.8,83z"/>
	<path class="st3" d="M15.7,77.6c-0.4-0.9-1.2-1-1.9-1c-0.4,0-0.6-0.2-0.6-0.5c0-0.5,0.5-0.7,0.8-0.9c0.3-0.2,0.4,0.1,0.5,0.4
		c0.1,0.3,0.2,0.5,0.7,0.5C16.3,76.1,16.3,76.3,15.7,77.6z"/>
	<path class="st3" d="M17.9,82.6c0.2,1.6-0.8,1.9-2.6,1.1C16,83,17.4,84,17.9,82.6z"/>
	<path class="st3" d="M18.3,80.5c-0.2-1.2-0.6-2.2-1.8-2.8C17.9,77.8,18.5,78.8,18.3,80.5z"/>
	<path class="st3" d="M17.7,75.5c0.8,0.3,0.8,1,0.9,1.6c0.1,0.2-0.1,0.3-0.3,0.3c-0.6-0.3-1.1-0.7-1.2-1.3
		C17.1,75.7,17.5,75.6,17.7,75.5z"/>
	<path class="st3" d="M20.5,80.2c0.1,0.4,0,0.7-0.2,0.7c-0.6-0.1-0.7-0.6-0.7-1.1c-0.1-0.3,0.1-0.7,0.5-0.7
		C20.8,79.2,20.2,80,20.5,80.2z"/>
	<path class="st3" d="M13.9,80.8c-0.1-1,0.3-1.8,1-2.5c-0.2,0.9-0.5,1.7-0.7,2.6C14.1,80.9,14,80.8,13.9,80.8z"/>
	<path class="st3" d="M13.4,77.8c-0.5,0.8-0.2,1.8-0.8,2.5C12.5,79.4,12.4,78.4,13.4,77.8z"/>
	<path class="st3" d="M17.7,85.1c0.8-0.4,1.5-0.7,2.2-1.2C19.5,84.8,18.9,85.4,17.7,85.1z"/>
	<path class="st3" d="M16.1,82c-1.4-0.8,0.1-2-0.4-3C16.1,80,15.4,81.1,16.1,82z"/>
</g>
</svg>
