<?xml version="1.0" encoding="utf-8"?>
<!-- Generator: Adobe Illustrator 23.1.0, SVG Export Plug-In . SVG Version: 6.00 Build 0)  -->
<svg version="1.1" id="Laag_1" xmlns="http://www.w3.org/2000/svg" xmlns:xlink="http://www.w3.org/1999/xlink" x="0px" y="0px"
	 viewBox="0 0 112 105.7" style="enable-background:new 0 0 112 105.7;" xml:space="preserve">
<style type="text/css">
	.st0{fill:#CEE8E8;}
	.st1{fill:#FDCE10;}
	.st2{fill:#D1D2D4;}
	.st3{fill:#FFFFFF;}
	.st4{fill:#E9EAEB;}
	.st5{fill:#D4A84C;}
	.st6{fill:#A6A8AC;}
	.st7{fill:#E52526;}
	.st8{fill:#63A230;}
	.st9{fill:#98C450;}
</style>
<g>
	<path class="st0" d="M990.4,92.7c0.8,0.2,1.6,0.1,2.4,0.1c1.1,0,1.8,0.5,2,1.5c0.2,1-0.2,1.8-1.2,2.2c-1.5,0.5-0.9,1.8-0.9,2.8
		c0.1,2,0.2,2,2.2,1.6c5.8-1.1,10.9,0.7,15.5,4.3c3.1,2.5,5.5,5.5,7.1,9.1c2.2,4.7,3.1,9.5,2.5,14.7c-0.4,3.6-1.6,7-3.4,10.1
		c-0.5,0.8-1.1,1.5-1.7,2.1c-0.6,0.6-0.8,1.3-0.6,2.1c0.7,3,1,6,0.9,9c-0.2,3.8-0.9,7.6-2.4,11.1c-2,4.7-4.9,8.7-8.8,12
		c-1.5,1.3-3,2-5.1,1.9c-8.5-0.1-17,0-25.5,0c-0.9,0-1.7-0.2-2.6,0c-2.7,0.5-4.5-0.9-6.3-2.6c-3.5-3.2-6.2-6.9-8-11.3
		c-1.3-3.4-2.1-6.9-2.4-10.5c-0.2-3.4,0.2-6.6,0.9-9.8c0.7-3,2-5.9,3.7-8.6c1.2-2,2.6-3.9,4.2-5.5c3.4-3.4,7.3-6.2,11.9-7.6
		c1.2-0.4,1.8-0.9,1.8-2.4c-0.1-4.8-0.2-9.7,0-14.5c0.1-1.9-0.3-3.8,0.1-5.7c0.2-0.9,0-1.7-1-2.2c-0.9-0.4-1.4-1.3-1-2.4
		c0.3-1,1.1-1.4,2.1-1.4c0.7,0,1.4,0.1,2.1-0.1C982.8,92.7,986.6,92.7,990.4,92.7z M984.7,134.3c-6.6,0-13.2,0-19.8,0
		c-0.9,0-1.5,0.3-1.9,1c-3.6,5.4-5.1,11.4-4.5,17.9c0.6,6.9,3.5,12.7,8.5,17.6c1.7,1.7,3.5,2.9,6.1,2.5c1.1-0.2,2.2-0.1,3.3-0.1
		c6.5,0.1,13-0.1,19.4,0.2c2.8,0.1,4.8-0.8,6.7-2.7c6.6-6.6,9.3-14.6,8.1-23.8c-0.5-4.1-2.1-7.9-4.4-11.4c-0.5-0.7-1-1-1.9-1
		C997.8,134.3,991.3,134.3,984.7,134.3z M1013.7,127.1c0-4.2-0.8-7.6-2.4-10.7c-2.4-4.5-5.8-8-11-9.1c-2.4-0.5-4.8-0.3-7,1
		c-0.4,0.2-0.6,0.5-0.6,1c0,3.5,0,7,0,10.5c0,0.5,0.2,0.8,0.8,1c1.7,0.6,3.4,1.2,5,2c5.2,2.7,9.3,6.7,12.4,11.6c0.4,0.7,0.6,0.6,1,0
		C1013.2,132.1,1013.6,129.3,1013.7,127.1z"/>
	<path class="st1" d="M990.4,92.7c-3.8,0-7.6,0-11.4,0c0-3.3,0-6.6,0-9.9c0-1.1,0.4-2,1.3-2.6c0.5,0.4,0.9-0.4,1.3-0.2
		c1.6,0.7,3.2,0.3,4.8,0.2c0.4,0,0.6,0.1,0.9,0.3c0.6,0.4,0.9,1.7,2.1,1c0.1,0,0.4,0.3,0.5,0.5c0.2,0.3,0.2,0.6,0.5,0.7
		C990.3,86,990.4,89.4,990.4,92.7z M989.6,82.3c-0.5,0.6-0.3,1-0.1,1.5C989.8,83.4,989.8,82.9,989.6,82.3z"/>
	<path class="st0" d="M990.5,82.7c-0.4-0.1-0.4-0.5-0.5-0.7c-0.1-0.2-0.4-0.5-0.5-0.5c-1.2,0.7-1.5-0.6-2.1-1
		c-0.3-0.2-0.5-0.3-0.9-0.3c-1.6,0.2-3.2,0.5-4.8-0.2c-0.4-0.2-0.8,0.6-1.3,0.2c0.3-0.5,0.9-0.8,1.4-0.8c2.2,0,4.3-0.4,6.5,0.2
		C989.6,80.1,990.5,81.1,990.5,82.7z"/>
	<path class="st1" d="M984.7,134.3c6.6,0,13.1,0,19.7,0c0.9,0,1.5,0.3,1.9,1c2.3,3.5,3.8,7.3,4.4,11.4c1.2,9.2-1.5,17.2-8.1,23.8
		c-1.9,1.9-3.9,2.9-6.7,2.7c-6.5-0.2-12.9-0.1-19.4-0.2c-1.1,0-2.2,0-3.3,0.1c-2.6,0.4-4.4-0.8-6.1-2.5c-5-4.8-7.9-10.6-8.5-17.6
		c-0.6-6.5,0.9-12.4,4.5-17.9c0.5-0.7,1-1,1.9-1C971.5,134.3,978.1,134.3,984.7,134.3z"/>
	<path class="st0" d="M989.6,82.3c0.2,0.6,0.2,1.1-0.1,1.5C989.3,83.3,989.1,82.8,989.6,82.3z"/>
</g>
<g>
	<path class="st2" d="M1082,155.3c-0.7,1-1.6,1.8-2,3c-0.5,1.2-0.2,1.9,0.5,2.8c0.1,2.1,1.5,3.3,3.2,4.4c-0.8,0.3-1-0.5-1.5-0.2
		c1,1.7,1,1.7,2.9,1.1c3.5-1.2,7.1-2.5,10.6-3.7c2.2-0.8,4.3-1.7,6.6-2.4c1.6-0.5,3.2-1.2,4.8-1.6c1.7-0.4,2.8-2,4.6-2
		c0,0,0.1,0,0.1-0.1c1.4-0.9,3.1-0.8,4.5-1.8c0.1-0.1,0.3,0,0.4,0.1c0.5,0.4,1.1,0.6,1.7,0.2c0.6-0.4,0.9-0.9,0.9-1.9
		c0.1,0.6,0.1,1,0.3,1.2c0.4,0.5,0.9,1,1.6,1c0.4,0,0.9-0.1,1-0.6c0.1-0.2-0.1-0.5,0.3-0.5c0.2,0,0.3,0.2,0.3,0.4
		c0.1,0.4,0.5,0.7,0.6,0.3c0.4-1.3,0.8-0.4,1.2-0.1c0.3,0.2,0.6,0.4,1,0.1c-0.2-0.2-0.3-0.4-0.5-0.5c-0.8-0.7-0.7-1.2,0.2-1.7
		c0.6-0.4,1.3-0.5,2-0.7c4.6-1.6,9.2-3.2,13.8-4.8c0.8-0.3,1.4-0.2,1.8,0.5c0.2,1.1-0.2,2.1-0.5,3.1c-0.2,0-0.2-0.3-0.5-0.2
		c-1.7,0.6-3.4,1.3-5.2,1.9c-3.2,1-6.3,2.1-9.4,3.3c-0.9,0.3-1.9,0.5-2.2,1.7c-0.1,0.2-0.3,0.3-0.5,0.2c-1.1-0.4-2.2,0.6-3.4,0.1
		c-0.1,0-0.3,0-0.3,0c-0.9,0.8-2.2,0.7-3.2,1.2c-1.7,0.7-3.4,1.3-5.1,1.9c-2.1,0.8-4.2,1.4-6.2,2.1c-2.1,0.8-4.2,1.4-6.3,2.3
		c-4.6,1.8-9.3,3.3-14,4.8c-1,0.3-1.2,0.8-1.2,1.7c0,0.7,0,1.4-0.8,2.1c0.5-1.1,0.3-2.1,0.3-3.3c-0.3,0.7-0.5,1-0.7,1.6
		c-0.3-0.6-0.4-1.2-1-1.1c-0.2-0.5-0.2-1.1-0.2-1.7c0.3-0.2,0.1-0.4-0.1-0.5l0-0.1l0.1,0c0-0.2,0-0.5-0.3-0.6l0,0
		c0-0.2-0.1-0.3-0.2-0.3l0,0c0-0.2,0-0.4-0.3-0.5l0,0c0.9-0.7,0.8-1.3-0.1-1.9c-0.5-0.4-0.8,0.1-1.2,0c-0.4-0.4-0.6-0.9-1.1-1.2
		c-0.3-0.8-0.4-1.7-1.2-2.2c-0.5-1.1-1.3-2-1.7-3.2c-0.1,1.5-0.7,2.9-0.9,4.3c-0.8,0.3-1.8,0.3-2.3,1.2c-1.4,2.6-1.3,5.3-0.3,8
		c0.5,1.3,1.4,2,2.3,2.9c1.2,1.2,2.4,2.1,4.1,1.7c-0.3,1.2-1.5,0.6-2.2,1.1c-0.2,0-0.3,0-0.5,0c0-0.3-0.1-0.4-0.4-0.5
		c-3.5-1.8-5.5-4.9-6.3-8.7c-0.4-1.9-1.5-3.4-2.3-5.1c-1.9-3.8-1.6-7.4,1.5-10.5c0.5-0.5,0.9-1.1,1.4-1.7c1.4-2,1.3-3.9-0.1-5.9
		c-0.6-0.8-1-1.7-1.3-2.7c0.5-0.1,0.8,0.5,1.3,0.5c3-0.2,6.1,0.5,9-0.5c0.2,2.4,0.5,4.7,0.7,7.1c0.1,0.8,0,1.7-0.7,2.3
		c-0.6-0.5-1-1.7-2.1-0.5c-0.4,0.4-0.7,0.6,0.1,0.8c0.5,0.1,0.4,0.6,0.3,0.9c0,0.6,0.2,1,0.7,1.2c-0.3,0.8-0.3,1.5-0.2,2.5
		c0.4-1.2,0.7-2.3,1.6-3C1080.6,155,1081.2,155.4,1082,155.3z M1075.8,151c-0.7-0.1-1.3,0-1.5,0.8c-0.2,0.8,0.3,1.1,1,1.4
		c0.4,0.2,1,0.3,0.9,1c-0.2,0.6-0.7,0.5-1.2,0.3c-0.2-0.1-0.4-0.1-0.5,0.1c-0.1,0.3,0.1,0.4,0.4,0.5c0.8,0.4,1.5,0.3,2-0.5
		c0.5-0.8,0-1.4-0.7-1.8c-0.2-0.1-0.4-0.1-0.5-0.2c-0.2-0.2-0.5-0.3-0.4-0.6c0.1-0.4,0.4-0.4,0.8-0.4c0.3,0,0.7,0.4,0.7-0.1
		C1076.6,150.8,1076.1,151,1075.8,151z M1073.8,153.7c-0.2-0.4,0.3-1.4-0.4-1.4c-0.7,0-0.3,0.9-0.3,1.4c0,0.4-0.4,1.2,0.4,1.2
		C1074,154.9,1073.7,154.1,1073.8,153.7z"/>
	<path class="st2" d="M1063,154.1c1.1-1.8,2.6-3.3,3.9-5c0.5-0.6,0.2-1.4,0-2.1c-0.8-2.2-1.5-4.5-1.8-6.9c-0.1-0.9-0.1-1.7-0.1-2.6
		c0-0.4,0.2-0.8,0.7-0.8c0.4,0,0.4,0.4,0.5,0.7c0.2,1.2,0.3,2.3,0.5,3.5c0.3,1.7,1.2,3.1,2,4.6c1.7,3.3,0.8,5.6-1.3,7.9
		c-2.4,2.6-2.9,6.2-1.3,9.5c1,2.1,2.3,4,3.1,6.2c0.2,0.6,0.5,1.1,0.4,1.7c0,0.4-0.2,0.6-0.5,0.7c-0.3,0.1-0.5-0.1-0.6-0.4
		c-1.3-3.4-4.3-6-4.8-9.8c0-0.2-0.2-0.3-0.4-0.3c0-0.2,0-0.5,0-0.7c0.3-0.2,0.3-0.5,0-0.7C1063,157.7,1063,155.9,1063,154.1z"/>
	<path class="st3" d="M1063,159.6c0.3,0.2,0.3,0.5,0,0.7C1063,160.1,1063,159.8,1063,159.6z"/>
	<path class="st4" d="M1143,147.6c-0.4-0.7-1-0.8-1.8-0.5c-4.6,1.6-9.2,3.2-13.8,4.8c-0.7,0.2-1.4,0.3-2,0.7c-0.9,0.6-1,1.1-0.2,1.7
		c0.2,0.1,0.3,0.3,0.5,0.5c-0.4,0.3-0.7,0.1-1-0.1c-0.4-0.3-0.8-1.2-1.2,0.1c-0.1,0.4-0.5,0.1-0.6-0.3c0-0.2-0.1-0.4-0.3-0.4
		c-0.4,0-0.3,0.3-0.3,0.5c-0.1,0.5-0.6,0.6-1,0.6c-0.7,0-1.2-0.4-1.6-1c-0.2-0.2-0.2-0.6-0.3-1.2c0,1-0.3,1.5-0.9,1.9
		c-0.7,0.4-1.2,0.2-1.7-0.2c-0.1-0.1-0.3-0.2-0.4-0.1c-1.4,1-3.1,0.9-4.5,1.8c0,0-0.1,0.1-0.1,0.1c-1.8,0-3,1.6-4.6,2
		c-1.7,0.4-3.2,1.1-4.8,1.6c-2.2,0.7-4.4,1.6-6.6,2.4c-3.5,1.3-7.1,2.5-10.6,3.7c-1.9,0.6-1.9,0.6-2.9-1.1c0.5-0.2,0.7,0.5,1.5,0.2
		c-1.7-1.1-3.1-2.3-3.2-4.4c2.7-0.7,5.1-1.9,7.7-2.9c4.9-1.9,9.7-3.9,14.6-5.8c0.2-0.1,0.5-0.1,0.7-0.1c0,0,0.1,0.1,0.1,0.1
		c0,0-0.1-0.1-0.1-0.1c0.5-0.5,1.3-0.6,1.9-0.9c0.1,0.1,0.1,0.3,0.2,0.3c0.3,0,0.2-0.2,0.3-0.4c0.5-0.5,1.2-0.6,1.9-0.7
		c0.1,0.2,0.2,0.2,0.3,0c0,0,0.1,0,0.1,0c0.6,0.5,1.3,0.6,1.9-0.1c0.2-0.2,0.5-0.3,0.7-0.4c1.6-0.6,3.3-1.1,4.9-1.7
		c2.6-0.9,5.2-1.8,7.8-2.7c2-0.7,4-1.3,6-2c2.9-1,5.6-2.2,8.5-3c0.5-0.1,0.9-0.4,0.9-1C1141.7,141.6,1142.8,144.4,1143,147.6z"/>
	<path class="st5" d="M1143,147.6c-0.2-3.2-1.3-6-4-7.9c-0.5-0.6-1.4-0.6-2-0.9c2.3-1.2,4.8-2,7.2-3c6.5-2.6,12.9-5.2,19.4-7.7
		c2.2-0.9,4.4-0.1,5.8,1.9c-1,0.1-1.6,0.6-1.6,1.7c-0.3-0.1-0.5-0.1-0.8-0.3c-0.4-0.2-1.1-0.1-1.1-0.7c0.1-0.7,0.7-0.3,1.1-0.4
		c0.2,0,0.3,0,0.3-0.2c0-0.3-0.2-0.3-0.4-0.4c-0.8-0.2-1.6-0.2-2,0.5c-0.4,0.8,0.2,1.4,1,1.7c0.4,0.2,1.1,0.2,0.9,0.9
		c-0.2,0.5-0.8,0.4-1.3,0.2c-0.2-0.1-0.5-0.2-0.6,0.1c-0.2,0.3,0.1,0.5,0.4,0.6c0.6,0.3,1.2,0.3,1.7,0c0.9-0.4,0.6-1.3,0.7-2
		c0.7-0.1,0.7,0.4,0.8,0.9c0.1,1.3,0.4,1.4,1.5,1c-1-1.2-0.9-1.9,0.4-2.3c0.9,1.6,1.6,3.1,1.7,5c0.1,2.4-1.1,4.3-3.3,5.2
		c-4.9,1.9-9.7,3.9-14.6,5.9c-3.7,1.5-7.4,3-11.1,4.4c-0.3,0.1-0.6,0.2-0.9,0.2c-0.2-0.5,0.4-0.8,0.4-1.3
		C1142.7,149.7,1143.1,148.7,1143,147.6z M1164.3,132.4C1164.3,132.4,1164.3,132.4,1164.3,132.4c0-0.2,0-0.4,0-0.6
		c0-0.3,0.2-0.8-0.3-0.9c-0.6,0-0.4,0.5-0.4,0.8c0,0.4,0,0.9,0,1.3c0,0.3,0,0.6,0.4,0.6c0.5,0,0.4-0.4,0.4-0.7
		C1164.3,132.8,1164.3,132.6,1164.3,132.4z"/>
	<path class="st4" d="M1079.5,143.3c-3,1-6,0.2-9,0.5c-0.5,0-0.8-0.6-1.3-0.5c-1.3-2.1-1.7-4.5-1.9-6.9c-0.4-4,0.4-7.7,2.7-11.1
		c2-3,1.9-6.3,1.5-9.7c-0.3-2.8-1-5.5-0.8-8.4c0-0.8,0.1-1.4,1.1-1c0.2,0.1,0.4,0.1,0.6,0.1c2.3,0.1,2.7,0.7,2.7,3
		c0,1.3,0.7,2.6,1,3.9c0.5,2.1,1,4.3,1.2,6.4c0.1,1.9-0.4,3.8-0.8,5.6c-0.3,1.7-0.7,3.4-0.8,5.2c-0.2,2.2,0.7,4.1,1.7,6
		C1078.6,138.5,1079.1,140.9,1079.5,143.3z"/>
	<path class="st6" d="M1142.5,150.7c-0.1,0.5-0.6,0.7-0.4,1.3c0,0,0,0,0,0c-0.2,0-0.4,0-0.5,0.2c-3.3,1.6-6.8,2.8-10.3,4.2
		c-16.4,6.6-32.8,13.1-49.2,19.7c-0.6,0.2-1.1,0.3-1.7,0.4c0,0-0.1,0-0.1,0c0.4-0.3,0.7-0.6,1.1-0.9c0.7-0.5,0.8-1.2,1-1.9
		c0.2-0.8-0.3-1.7,0.2-2.5c0.7-0.1,0.8,0.5,1,1.1c0.2-0.5,0.4-0.9,0.7-1.6c0,1.3,0.1,2.2-0.3,3.3c0.8-0.7,0.8-1.4,0.8-2.1
		c0-0.9,0.3-1.4,1.2-1.7c4.7-1.5,9.4-3.1,14-4.8c2.1-0.8,4.2-1.5,6.3-2.3c2-0.8,4.2-1.4,6.2-2.1c1.7-0.6,3.5-1.2,5.1-1.9
		c1.1-0.5,2.3-0.4,3.2-1.2c0.1-0.1,0.3-0.1,0.3,0c1.1,0.5,2.2-0.6,3.4-0.1c0.2,0.1,0.4-0.1,0.5-0.2c0.3-1.1,1.3-1.3,2.2-1.7
		c3.1-1.1,6.2-2.3,9.4-3.3c1.8-0.6,3.5-1.3,5.2-1.9C1142.3,150.4,1142.3,150.7,1142.5,150.7z M1083.7,174.1c-0.1,0-0.1-0.1-0.2-0.1
		c0,0-0.1,0-0.1,0c0,0,0,0.1,0.1,0.1C1083.5,174.1,1083.6,174.1,1083.7,174.1z"/>
	<path class="st7" d="M1082.6,171c-0.4,0.8,0.1,1.7-0.2,2.5c-0.2,0.7-0.3,1.5-1,1.9c-0.4-0.1,0.1-0.8-0.5-0.8
		c-0.8,0.1-0.7,1-1.2,1.4c-0.2,0.2,0.4,0.1,0.6,0.3c0,0,0.1,0,0.1,0c-0.3,0.3-0.7,0.5-1,0.8c-1.8,0.4-3-0.5-4.1-1.7
		c-0.9-0.9-1.8-1.6-2.3-2.9c-1-2.7-1.1-5.4,0.3-8c0.5-0.9,1.5-0.9,2.3-1.2c0.4-0.1,0.8-0.2,1.1-0.1c1,0.1,1.8,0.6,2.6,1.2
		c0.5,0.2,0.7,0.8,1.1,1.2c0.4,0.6,0.9,1.3,1.3,1.9c0,0,0,0,0,0c0.1,0.2,0.2,0.3,0.3,0.5c0,0,0,0,0,0c0.1,0.1,0.1,0.2,0.2,0.3
		c0,0,0,0,0,0c0,0.2,0,0.5,0.3,0.6l-0.1,0c0,0,0,0.1,0,0.1c0,0.2,0.1,0.3,0.1,0.5C1082.4,169.9,1082.4,170.5,1082.6,171z
		 M1073.9,172.4c-0.3,0.8,0.1,1.6,0.6,1.6c1-0.1,1.4,0.5,1.7,1.1c0.5,0.9,1.2,0.8,2,0.5c-1.4,0.1-1.5-1.3-2.3-1.8
		C1075.3,173.3,1074,173.8,1073.9,172.4z M1076.7,167c0.7-1.3,0.6-1.5-0.5-1.5c-0.4,0-0.6-0.3-0.7-0.5c-0.1-0.3-0.2-0.6-0.5-0.4
		c-0.3,0.2-0.8,0.4-0.8,0.9c0,0.3,0.2,0.5,0.6,0.5C1075.5,166,1076.3,166.1,1076.7,167z M1078.9,171.9c-0.4,1.5-1.8,0.5-2.6,1.1
		C1078.2,173.8,1079.1,173.5,1078.9,171.9z M1079.4,169.9c0.2-1.8-0.4-2.7-1.8-2.8C1078.7,167.7,1079.1,168.7,1079.4,169.9z
		 M1078.7,164.9c-0.2,0.1-0.5,0.2-0.5,0.5c0.1,0.7,0.6,1.1,1.2,1.3c0.1,0.1,0.3-0.1,0.3-0.3C1079.5,165.9,1079.5,165.2,1078.7,164.9
		z M1081.6,169.6c-0.3-0.2,0.2-1-0.5-1.1c-0.4,0-0.5,0.3-0.5,0.7c0.1,0.5,0.2,1,0.7,1.1C1081.5,170.3,1081.7,169.9,1081.6,169.6z
		 M1074.9,170.2c0.1,0,0.2,0,0.3,0.1c0.2-0.9,0.5-1.7,0.7-2.6C1075.2,168.4,1074.8,169.2,1074.9,170.2z M1074.4,167.2
		c-1,0.6-0.8,1.6-0.8,2.5C1074.2,169,1073.9,168,1074.4,167.2z M1078.7,174.4c1.1,0.3,1.8-0.2,2.2-1.2
		C1080.3,173.8,1079.5,174.1,1078.7,174.4z M1077.1,171.4c-0.6-0.9,0.1-2-0.4-3C1077.2,169.3,1075.7,170.6,1077.1,171.4z"/>
	<path class="st2" d="M1136.9,138.7c0.7,0.4,1.5,0.3,2,0.9c-0.1,0.6-0.4,0.8-0.9,1c-2.9,0.7-5.7,2-8.5,3c-2,0.7-4,1.3-6,2
		c-2.6,0.9-5.2,1.8-7.8,2.7c-1.6,0.6-3.3,1.1-4.9,1.7c-0.3,0.1-0.6,0.2-0.7,0.4c-0.6,0.7-1.2,0.6-1.9,0.1c0.1-0.5,0.5-0.5,0.9-0.7
		c8.8-3.5,17.6-7.1,26.4-10.6C1136,139,1136.5,138.9,1136.9,138.7z"/>
	<path class="st4" d="M1077.6,109.8c0.4,1.9,0.5,2.1,1.9,2c-0.3-0.4-1-0.5-0.9-1.2c0.1-0.6,0-1.2,0.8-1.1c0-0.5-0.5-0.3-0.6-0.5
		c-0.2-0.2-0.2-0.4,0-0.5c0.3-0.2,1.6,0.6,1.5,0.9c-0.6,1.2,0.2,2.3,0.3,3.4c0.4,3,0.3,6-0.7,8.9c-0.6,1.7-1.1,3.5-1.2,5.3
		c-0.1,1.1,0.2,2.3,0.3,3.4c0.1,0.5,0.3,1.1-0.4,1.3c-0.7,0.1-0.8-0.5-0.9-1c-0.5-2.8-0.4-5.6,0.1-8.4c0.6-3.7,1-7.3,0-11
		c-0.1-0.2-0.1-0.4-0.1-0.6C1077.6,110.5,1077.6,110.1,1077.6,109.8z"/>
	<path class="st2" d="M1081.7,152.4c0.4-2.7,0.3-5.4-0.7-8c-0.2-0.6-1-1.6,0-2c0.8-0.4,1.2,0.8,1.5,1.4c1.3,2.8,1.4,5.7,0.8,8.7
		c0,0.2-0.1,0.4-0.1,0.6C1082.7,152.9,1082.4,152.3,1081.7,152.4z"/>
	<path class="st2" d="M1170.3,131.2c-1.3,0.4-1.4,1.1-0.4,2.3c-1.2,0.4-1.4,0.2-1.5-1c-0.1-0.5,0-1-0.8-0.9l0,0
		c0-1.1,0.6-1.6,1.6-1.7C1169.4,130.5,1170.3,130.5,1170.3,131.2z"/>
	<path class="st4" d="M1078.6,155c-0.5-0.2-0.8-0.6-0.7-1.2c0-0.3,0.1-0.8-0.3-0.9c-0.8-0.2-0.5-0.3-0.1-0.8c1.1-1.1,1.5,0,2.1,0.5
		c0,0.1,0,0.1,0,0.2c-1.1,0.2-1.2,0.4-0.7,1.7C1078.8,154.8,1078.8,154.9,1078.6,155z"/>
	<path class="st4" d="M1081.7,152.4c0.7-0.2,1,0.5,1.5,0.7c0,0.9-0.6,1.5-1.2,2.1c-0.8,0.1-1.4-0.3-2-0.8c0.2-0.1,0.3-0.3,0.5-0.4
		c1,0.6,1.7,0.5,1.9-0.3c0.1-0.6-0.5-0.7-0.6-1.2C1081.7,152.5,1081.7,152.5,1081.7,152.4z"/>
	<path class="st2" d="M1081.7,152.6c0.1,0.5,0.8,0.6,0.6,1.2c-0.2,0.8-0.8,0.9-1.9,0.3C1080.7,153.5,1081,152.8,1081.7,152.6z"/>
	<path class="st2" d="M1078.8,154.6c-0.5-1.3-0.4-1.6,0.7-1.7C1079.5,153.5,1079.3,154.1,1078.8,154.6z"/>
	<path class="st2" d="M1105.9,151.2c0,0.2,0,0.4-0.3,0.4c-0.1,0-0.1-0.2-0.2-0.3C1105.6,151.2,1105.7,151.2,1105.9,151.2z"/>
	<path class="st5" d="M1141.6,152.2c0.1-0.2,0.3-0.2,0.5-0.2C1142,152.2,1141.8,152.2,1141.6,152.2z"/>
	<path class="st2" d="M1108.1,150.5c-0.1,0.2-0.2,0.2-0.3,0C1107.9,150.5,1108,150.5,1108.1,150.5z"/>
	<path class="st4" d="M1075.8,151c0.2,0.1,0.8-0.2,0.8,0.4c0,0.6-0.5,0.1-0.7,0.1c-0.3,0-0.7,0-0.8,0.4c-0.1,0.3,0.2,0.5,0.4,0.6
		c0.2,0.1,0.4,0.1,0.5,0.2c0.7,0.4,1.1,1,0.7,1.8c-0.4,0.8-1.2,0.9-2,0.5c-0.2-0.1-0.5-0.2-0.4-0.5c0.1-0.2,0.3-0.2,0.5-0.1
		c0.5,0.2,1,0.3,1.2-0.3c0.2-0.6-0.5-0.8-0.9-1c-0.6-0.3-1.2-0.6-1-1.4C1074.5,151,1075.1,150.9,1075.8,151z"/>
	<path class="st3" d="M1076.7,163.3c-0.4-0.1-0.8,0-1.1,0.1c0.2-1.4,0.7-2.8,0.9-4.3c0.5,1.1,1.2,2.1,1.7,3.2
		C1077.5,162.4,1076.8,162.5,1076.7,163.3z"/>
	<path class="st4" d="M1076.7,163.3c0.2-0.8,0.9-0.9,1.5-1.1c0.8,0.5,0.9,1.4,1.2,2.2C1078.5,163.8,1077.7,163.3,1076.7,163.3z"/>
	<path class="st4" d="M1081.6,167.5c-0.4-0.6-0.9-1.3-1.3-1.9c0.4,0.1,0.7-0.3,1.2,0C1082.4,166.3,1082.5,166.8,1081.6,167.5z"/>
	<path class="st4" d="M1073.8,153.7c-0.1,0.4,0.2,1.2-0.3,1.2c-0.8,0-0.4-0.8-0.4-1.2c0-0.5-0.4-1.4,0.3-1.4
		C1074.2,152.3,1073.6,153.2,1073.8,153.7z"/>
	<path class="st4" d="M1081.9,168c-0.1-0.2-0.2-0.3-0.3-0.5C1081.9,167.6,1081.9,167.8,1081.9,168z"/>
	<path class="st4" d="M1082.4,168.8c-0.3-0.1-0.3-0.4-0.3-0.6C1082.4,168.3,1082.4,168.6,1082.4,168.8z"/>
	<path class="st4" d="M1082.4,169.4c0-0.2-0.1-0.3-0.1-0.5C1082.6,169,1082.8,169.1,1082.4,169.4z"/>
	<path class="st4" d="M1082.1,168.3c-0.1-0.1-0.1-0.2-0.2-0.3C1082.1,168,1082.1,168.1,1082.1,168.3z"/>
	<path class="st2" d="M1103.5,152.1c0,0,0.1,0.1,0.1,0.1C1103.5,152.2,1103.5,152.2,1103.5,152.1
		C1103.5,152.2,1103.5,152.1,1103.5,152.1z"/>
	<path class="st2" d="M1167.6,131.6c0,0.7,0.2,1.6-0.7,2c-0.6,0.3-1.2,0.3-1.7,0c-0.2-0.1-0.5-0.3-0.4-0.6c0.1-0.3,0.4-0.2,0.6-0.1
		c0.5,0.2,1.1,0.4,1.3-0.2c0.2-0.6-0.5-0.7-0.9-0.9c-0.8-0.4-1.4-0.9-1-1.7c0.4-0.8,1.2-0.7,2-0.5c0.2,0,0.4,0.1,0.4,0.4
		c0,0.2-0.2,0.2-0.3,0.2c-0.4,0.1-1.1-0.3-1.1,0.4c0,0.6,0.7,0.5,1.1,0.7C1167.1,131.4,1167.4,131.5,1167.6,131.6
		C1167.7,131.6,1167.6,131.6,1167.6,131.6z"/>
	<path class="st2" d="M1164.3,132.4c0,0.2,0,0.4,0,0.6c0,0.3,0.1,0.7-0.4,0.7c-0.4,0-0.4-0.4-0.4-0.6c0-0.4,0-0.9,0-1.3
		c0-0.3-0.2-0.8,0.4-0.8c0.5,0,0.3,0.6,0.3,0.9C1164.3,132,1164.3,132.2,1164.3,132.4C1164.3,132.4,1164.3,132.4,1164.3,132.4z"/>
	<path class="st5" d="M1080.3,176.4c-0.2-0.2-0.8-0.1-0.6-0.3c0.5-0.4,0.4-1.3,1.2-1.4c0.6,0,0.1,0.7,0.5,0.8
		C1081.1,175.8,1080.7,176.1,1080.3,176.4z"/>
	<path class="st2" d="M1083.7,174.1c-0.1,0-0.2,0.1-0.2,0.1c0,0,0-0.1-0.1-0.1c0,0,0.1,0,0.1,0C1083.6,174,1083.6,174,1083.7,174.1z
		"/>
	<path class="st5" d="M1073.9,172.4c0.1,1.4,1.4,0.8,2.1,1.3c0.8,0.6,0.9,2,2.3,1.8c-0.8,0.3-1.5,0.4-2-0.5
		c-0.3-0.6-0.7-1.2-1.7-1.1C1074,174,1073.6,173.2,1073.9,172.4z"/>
	<path class="st5" d="M1076.7,167c-0.4-0.9-1.2-1-1.9-1c-0.4,0-0.6-0.2-0.6-0.5c0-0.5,0.5-0.7,0.8-0.9c0.3-0.2,0.4,0.1,0.5,0.4
		c0.1,0.3,0.2,0.5,0.7,0.5C1077.3,165.5,1077.4,165.7,1076.7,167z"/>
	<path class="st5" d="M1078.9,171.9c0.2,1.6-0.8,1.9-2.6,1.1C1077.1,172.4,1078.5,173.4,1078.9,171.9z"/>
	<path class="st5" d="M1079.4,169.9c-0.2-1.2-0.6-2.2-1.8-2.8C1079,167.2,1079.6,168.1,1079.4,169.9z"/>
	<path class="st5" d="M1078.7,164.9c0.8,0.3,0.8,1,0.9,1.6c0.1,0.2-0.1,0.3-0.3,0.3c-0.6-0.3-1.1-0.7-1.2-1.3
		C1078.2,165.1,1078.5,165,1078.7,164.9z"/>
	<path class="st5" d="M1081.6,169.6c0.1,0.4,0,0.7-0.2,0.7c-0.6-0.1-0.7-0.6-0.7-1.1c-0.1-0.3,0.1-0.7,0.5-0.7
		C1081.8,168.6,1081.2,169.4,1081.6,169.6z"/>
	<path class="st5" d="M1074.9,170.2c-0.1-1,0.3-1.8,1-2.5c-0.2,0.9-0.5,1.7-0.7,2.6C1075.1,170.2,1075,170.2,1074.9,170.2z"/>
	<path class="st5" d="M1074.4,167.2c-0.5,0.8-0.2,1.8-0.8,2.5C1073.6,168.8,1073.4,167.8,1074.4,167.2z"/>
	<path class="st5" d="M1078.7,174.4c0.8-0.4,1.5-0.7,2.2-1.2C1080.5,174.2,1079.9,174.8,1078.7,174.4z"/>
	<path class="st5" d="M1077.1,171.4c-1.4-0.8,0.1-2-0.4-3C1077.2,169.3,1076.5,170.5,1077.1,171.4z"/>
</g>
<g>
	<path class="st8" d="M69.1,63.3c-1.8,2.7-3.5,5.4-5.3,8.1c-0.4,0.6-0.6,1.1-0.6,1.8c0,5.6,0,11.2,0,16.7c0,0.6,0,1.1,0,1.7
		c-0.2,0-0.4,0-0.4-0.1c-3.2-3.4-6.6-6.7-10-9.9c-3.1-4.6-6.1-9.2-9.2-13.9c-1.1-1.6-2.2-3.3-3.2-4.9c-0.2-0.3-0.5-0.6-0.9-0.7
		c-2.7-0.8-4.3-2.7-5.5-5c-0.3-0.6-0.2-1.2-0.3-1.8c-0.1-0.6-0.2-0.8-0.9-0.8c-4.6,0.2-7.6-1.7-9.2-6c-0.2-0.6-0.6-0.8-1-1.1
		c-2.1-1.3-4.3-5.4-3.3-8.2c0.7-1.9,1.8-3.6,3.5-4.8c0.5-0.4,0.6-0.5,0.3-1.1c-1.3-3-1.2-6,0.9-8.5c2.1-2.6,4.9-3.3,8.1-2.5
		c1.1,0.3,2.2,0.8,2.9,1.8c-0.4,1-0.8,2-2.2,1.6c-2.4-0.6-4.3,0.3-5.7,2.1c-1.3,1.7-1.4,3.6-0.7,5.6c0.3,0.8,0.3,1.2-0.5,1.7
		c-3,2.1-3,6.6-0.2,8.9c1.3,1.1,2.8,1.4,4.5,1.3c0.7,0,1.2,0,1.4,0.9c0.1,0.6,0.5,1.3,1,1.7c3.7,2.6,8.1,1.7,9.6-2.5
		c0.2-0.6,0.5-1,1.2-1.2c1.1-0.3,2.1-0.9,2.7-1.9c0.7-1.3,1.4-2,3.2-2c3.1,0,5.3-1.8,6.3-4.9c0.2-0.6,0.5-0.9,1.1-1
		c1.8-0.5,3.1-1.7,4-3.2c1.6-2.7,1-6.6-1.7-8.4c-0.2-0.1-0.5-0.2-0.4-0.5c0.1-0.4,0.5-0.1,0.7-0.1c0.8,0.2,1.6,0.2,2.1-0.7
		c1.1,0.6,1.6,0.2,2.3-0.7c1.8-2.3,4.4-2.9,7.1-2.2c2.8,0.7,4.5,2.8,5,5.7c0.1,0.8,0.1,1.1,1,0.6c3-1.4,5.9-1.2,8.6,0.7
		c2.8,1.9,3.9,4.7,3.5,8c-0.1,0.8,0.1,1.2,0.7,1.7c2.8,2.2,3.8,5.1,3.1,8.5c-0.7,3.4-2.8,5.5-6.2,6.5c-0.3-2.4-1-4.6-3.2-6
		c-0.3-0.2-0.4-0.4-0.2-0.9c1.4-2.9,0.8-6-1.4-8.4c-2.5-2.6-7-2.9-10-0.6c-0.4,0.3-0.7,0.6-1.2,0.2c-1.6-1.4-3.4-1.7-5.4-1.7
		c-2.8,0.1-4.7,1.7-6,4c-1.2,2.2-1.1,4.6,0.1,6.9c0.4,0.7,0.5,0.8-0.3,1.3c-3.4,1.7-4.3,6.7-2.9,9.4c0.9,1.8,2.4,3,4.1,4
		c0.6,0.3,0.7,0.5,0.1,1c-1.4,1.2-2.6,2.6-4,3.8c-1.1,1-2,2.4-3.4,3.1c0-3.5-0.1-7.1,0-10.6c0-0.9-0.4-1-1.1-1
		c-0.6,0-1.2-0.2-1.3,0.8c-0.2,2.4-1.4,4.4-3.5,5.7c-0.7,0.5-0.6,0.8-0.2,1.4c1.4,2.2,3,4.3,4.2,6.6c0.4,0.8,1.1,1.4,1.9,2.4
		c0-1.1,0-2,0-2.8c0,0,0.1,0,0.1-0.1c0-0.1-0.1-0.1-0.1-0.2c0-0.6,0-1.3,0-1.9c0.6,0.1,1-0.3,1.4-0.7c2-2,4-4,6-6
		c0.9-0.9,1.8-1.4,3-1.2c0,1-0.1,2-0.1,3c0,0.1,0,0.4,0,0.4c0.2,0.1,0.3,0,0.3-0.2c0.6-1,1.3-1.9,1.9-2.9c0.2,0.1,0.4,0.2,0.4,0.4
		c0.7,1.4,1.7,2.6,3.1,3.5C69,62.9,69.1,63.1,69.1,63.3z M32.2,49.5c0-0.4,0-0.8-0.4-1.1c-0.7-0.8-1.4-1.5-2.1-2.3
		c-0.3-0.3-0.6-0.8-1-0.4c-0.5,0.5,0.1,0.7,0.4,1c0.7,0.8,1.6,1.4,2.1,2.4c0.3,0.7,0.1,1-0.6,1.3c-0.7,0.2-1.1-0.1-1.3-0.7
		c-0.1-0.3-0.1-0.7,0.1-1.1c0.1-0.3,0.3-0.6-0.1-0.7c-0.3-0.1-0.7,0.1-0.8,0.4c-0.3,0.7-0.2,1.5,0.3,2.2c0.7,0.9,1.6,1.1,2.6,0.7
		C32,51,32.2,50.4,32.2,49.5z"/>
	<path class="st9" d="M61.4,21.2c-0.5,0.9-1.2,0.9-2.1,0.7c-0.2-0.1-0.6-0.3-0.7,0.1c-0.1,0.3,0.2,0.4,0.4,0.5
		c2.6,1.9,3.3,5.8,1.7,8.4c-0.9,1.5-2.2,2.7-4,3.2c-0.6,0.2-0.9,0.4-1.1,1c-0.9,3.1-3.2,4.9-6.3,4.9c-1.8,0-2.5,0.6-3.2,2
		c-0.5,1-1.6,1.6-2.7,1.9c-0.6,0.2-1,0.5-1.2,1.2c-1.5,4.2-5.9,5.2-9.6,2.5c-0.5-0.4-0.9-1.1-1-1.7C31.6,45,31,45,30.3,45.1
		c-1.6,0.1-3.1-0.2-4.5-1.3C23,41.5,23,37,26,34.9c0.7-0.5,0.8-0.9,0.5-1.7c-0.7-1.9-0.7-3.9,0.7-5.6c1.4-1.8,3.3-2.7,5.7-2.1
		c1.4,0.4,1.8-0.6,2.2-1.6c0.6-0.4,1.2-0.8,1.8-1.1c0.6-0.4,0.2-0.7,0-1.1c-1.8-4-0.1-8.1,4-9.5c2.1-0.7,4.2-0.3,6,1
		c0.6,0.4,0.9,0.6,1.6,0.1c3.9-3,9.5-0.9,10.7,3.9c0,0.2,0.1,0.3,0.1,0.5C58.9,19.5,59.4,20.9,61.4,21.2z"/>
	<path class="st9" d="M63.3,58.5c-1.3-0.2-2.2,0.3-3,1.2c-1.9,2.1-4,4-6,6c-0.4,0.4-0.8,0.7-1.4,0.7c0-0.2,0-0.3,0-0.5
		c1.5-0.7,2.3-2,3.4-3.1c1.4-1.2,2.6-2.6,4-3.8c0.6-0.5,0.5-0.7-0.1-1c-1.7-1-3.2-2.2-4.1-4c-1.4-2.7-0.4-7.6,2.9-9.4
		c0.8-0.4,0.7-0.6,0.3-1.3c-1.2-2.2-1.3-4.7-0.1-6.9c1.3-2.2,3.2-3.9,6-4c2-0.1,3.9,0.3,5.4,1.7c0.5,0.5,0.8,0.1,1.2-0.2
		c2.9-2.3,7.4-2,10,0.6c2.3,2.3,2.8,5.5,1.4,8.4c-0.2,0.4-0.1,0.7,0.2,0.9c2.2,1.4,2.9,3.6,3.2,6c-0.2,3.7-2.1,6.2-5.5,7.2
		c-0.6,0.2-0.9,0.4-1,1c-1.2,4.7-6,6.8-10,5.2c-0.3-0.1-0.6-0.2-0.9,0c-0.1-0.2-0.1-0.4-0.2-0.5c-1.3-0.9-2.3-2.1-3.1-3.5
		c-0.1-0.2-0.3-0.2-0.4-0.4c0.2-0.5,0.4-1-0.5-0.7C64.4,58.3,63.8,58.4,63.3,58.5z"/>
	<path class="st8" d="M52.8,93.5c0-3.6,0-7.2,0-10.8c0.5,0,0.8,0.4,1.1,0.7c3.1,3.1,6.2,6.1,9.3,9.2c0,0.2,0,0.4,0,0.7
		c-0.3,0.1-0.3,0.3-0.3,0.5c-3.3,0-6.6,0-9.9,0C52.9,93.7,52.9,93.6,52.8,93.5z"/>
	<path class="st9" d="M63.2,92.6c-3.1-3.1-6.2-6.1-9.3-9.2c-0.3-0.3-0.5-0.7-1.1-0.7c0-0.4-0.1-0.8-0.1-1.2c3.5,3.2,6.8,6.5,10,9.9
		c0.1,0.1,0.3,0.1,0.4,0.1C63.4,91.9,63.3,92.3,63.2,92.6z"/>
	<path class="st9" d="M62.9,93.8c0-0.2,0.1-0.5,0.3-0.5C63.4,93.6,63.3,93.8,62.9,93.8z"/>
	<path class="st9" d="M52.8,93.5c0.1,0.1,0.1,0.2,0.2,0.3C52.9,93.8,52.8,93.7,52.8,93.5z"/>
	<path class="st9" d="M32.2,49.5c0,0.8-0.2,1.5-0.9,1.7c-1,0.3-1.9,0.1-2.6-0.7c-0.5-0.6-0.5-1.4-0.3-2.2c0.1-0.3,0.5-0.5,0.8-0.4
		c0.4,0.1,0.2,0.4,0.1,0.7c-0.1,0.3-0.2,0.7-0.1,1.1c0.2,0.6,0.7,0.9,1.3,0.7c0.7-0.2,0.9-0.6,0.6-1.3c-0.5-1-1.4-1.6-2.1-2.4
		c-0.3-0.3-0.9-0.6-0.4-1c0.4-0.4,0.7,0.2,1,0.4c0.7,0.7,1.4,1.5,2.1,2.3C32.2,48.8,32.2,49.2,32.2,49.5z"/>
	<path class="st9" d="M63.2,61.5c0.1,0.1,0.2,0.2,0.3,0.2c0,0.2-0.1,0.3-0.3,0.2C63.2,61.9,63.2,61.7,63.2,61.5z"/>
	<path class="st9" d="M52.8,68.6c0-0.1,0-0.2,0-0.2C52.8,68.4,52.9,68.5,52.8,68.6C52.9,68.5,52.8,68.6,52.8,68.6z"/>
</g>
</svg>
