<?xml version="1.0" encoding="utf-8"?>
<!-- Generator: Adobe Illustrator 24.0.0, SVG Export Plug-In . SVG Version: 6.00 Build 0)  -->
<svg version="1.1" xmlns="http://www.w3.org/2000/svg" xmlns:xlink="http://www.w3.org/1999/xlink" x="0px" y="0px"
	 viewBox="0 0 342.72 199.92" style="enable-background:new 0 0 342.72 199.92;" xml:space="preserve">
<style type="text/css">
	.st0{fill:url(#SVGID_1_);}
	.st1{fill:#FFFFFF;}
</style>
<g id="Achtergrond_xA0_Afbeelding_1_">
	<radialGradient id="SVGID_1_" cx="171.127" cy="100.96" r="139.0471" gradientUnits="userSpaceOnUse">
		<stop  offset="0" style="stop-color:#CEE4F7"/>
		<stop  offset="0.8927" style="stop-color:#14A0DB"/>
	</radialGradient>
	<path class="st0" d="M0.6,59.33c0,0,6.7-45.63,72.63-53.54S236.6,17.93,236.6,17.93s52.9,6.78,91.67,37.54s-15.84,83.7-15.84,83.7
		s-45.08,43.59-92.82,54.67c-47.74,11.08-94.22-3.59-94.22-3.59S-9.27,147.68,0.6,59.33z"/>
</g>
<g id="vitanalise">
	<g>
		<path class="st1" d="M52.94,72.13l-15.67,35.11h-4.38L17.37,72.13h7.64l10.06,23.4l10.22-23.4H52.94z"/>
		<path class="st1" d="M64.45,62.12c0.93,0.91,1.4,1.93,1.4,3.05c0,1.18-0.47,2.22-1.4,3.13c-0.94,0.91-2.11,1.36-3.52,1.36
			c-1.46,0-2.65-0.45-3.57-1.36c-0.92-0.91-1.38-1.95-1.38-3.13c0-1.13,0.46-2.14,1.38-3.05c0.92-0.91,2.11-1.36,3.57-1.36
			C62.34,60.76,63.52,61.22,64.45,62.12z M64.35,72.13v35.11h-6.91V72.13H64.35z"/>
		<path class="st1" d="M76.65,72.13V58.49h6.91v13.64h6.53v5.99h-6.53v29.12h-6.91V78.12h-6.53v-5.99H76.65z"/>
		<path class="st1" d="M133.54,107.24h-6.95v-6.15c-2.74,4.71-6.91,7.07-12.52,7.07c-5.56,0-10.26-1.93-14.12-5.78
			c-3.85-3.85-5.78-8.41-5.78-13.66c0-5.3,1.93-9.87,5.78-13.71c3.85-3.84,8.56-5.76,14.12-5.76c5.61,0,9.78,2.33,12.52,6.99v-4.11
			h6.95V107.24z M126.59,91.49v-5.61c-0.49-2.54-1.65-4.72-3.5-6.57c-2.59-2.61-5.6-3.92-9.03-3.92c-3.46,0-6.45,1.28-8.99,3.84
			c-2.54,2.56-3.8,5.72-3.8,9.49c0,3.74,1.27,6.88,3.8,9.41c2.54,2.54,5.53,3.8,8.99,3.8c3.43,0,6.44-1.29,9.03-3.88
			C124.93,96.22,126.1,94.03,126.59,91.49z"/>
		<path class="st1" d="M147.71,81.04v26.2h-6.95V72.13h6.95c1.18-1.28,3.61-1.92,7.3-1.92c4.43,0,8,1.36,10.72,4.07
			c2.71,2.71,4.1,6.03,4.15,9.95v23.01h-6.91v-22.7c0-2.38-0.81-4.36-2.42-5.94c-1.61-1.58-3.46-2.36-5.53-2.36
			c-2.05,0-3.85,0.74-5.42,2.23C148.7,79.37,148.07,80.22,147.71,81.04z"/>
		<path class="st1" d="M215.9,107.24h-6.95v-6.15c-2.74,4.71-6.91,7.07-12.52,7.07c-5.56,0-10.26-1.93-14.12-5.78
			c-3.85-3.85-5.78-8.41-5.78-13.66c0-5.3,1.93-9.87,5.78-13.71c3.85-3.84,8.56-5.76,14.12-5.76c5.61,0,9.78,2.33,12.52,6.99v-4.11
			h6.95V107.24z M208.95,91.49v-5.61c-0.49-2.54-1.65-4.72-3.5-6.57c-2.59-2.61-5.6-3.92-9.03-3.92c-3.46,0-6.45,1.28-8.99,3.84
			c-2.54,2.56-3.8,5.72-3.8,9.49c0,3.74,1.27,6.88,3.8,9.41c2.54,2.54,5.53,3.8,8.99,3.8c3.43,0,6.44-1.29,9.03-3.88
			C207.3,96.22,208.46,94.03,208.95,91.49z"/>
		<path class="st1" d="M230.5,51.96v55.28h-6.95V51.96H230.5z"/>
		<path class="st1" d="M246.23,62.12c0.93,0.91,1.4,1.93,1.4,3.05c0,1.18-0.47,2.22-1.4,3.13c-0.93,0.91-2.11,1.36-3.51,1.36
			c-1.46,0-2.65-0.45-3.57-1.36c-0.92-0.91-1.38-1.95-1.38-3.13c0-1.13,0.46-2.14,1.38-3.05c0.92-0.91,2.11-1.36,3.57-1.36
			C244.12,60.76,245.29,61.22,246.23,62.12z M246.13,72.13v35.11h-6.92V72.13H246.13z"/>
		<path class="st1" d="M263.5,89.73c-2.61-1.43-4.41-2.64-5.38-3.61c-1.9-1.89-2.84-4.07-2.84-6.53c0-2.43,0.92-4.58,2.77-6.45
			c1.84-1.87,4.15-2.8,6.91-2.8c2.77,0,4.99,0.86,6.68,2.57c1.74,1.74,2.61,3.65,2.61,5.72v1.08l-6.22,2.54
			c-0.38-2.89-0.83-4.6-1.33-5.11c-0.5-0.51-1.08-0.77-1.75-0.77s-1.29,0.29-1.88,0.88c-0.59,0.59-0.88,1.37-0.88,2.34
			c0,0.97,0.33,1.79,1,2.46c0.43,0.46,1.45,1.19,3.03,2.19c2.89,1.59,5.01,3.04,6.34,4.34c2.1,2.15,3.15,4.69,3.15,7.61
			c0,3-1.09,5.6-3.27,7.8c-2.18,2.2-4.9,3.3-8.18,3.3s-6.01-1.1-8.2-3.3c-2.19-2.2-3.28-4.96-3.28-8.26l6.91-1.73
			c0,2.97,0.47,4.93,1.42,5.88c0.95,0.95,2,1.42,3.15,1.42s2.21-0.47,3.17-1.42c0.96-0.95,1.44-2.18,1.44-3.69
			c0-1.46-0.51-2.69-1.54-3.69C266.72,91.9,265.44,90.98,263.5,89.73z"/>
		<path class="st1" d="M287.7,88.61v0.12c0,3.74,1.27,6.88,3.8,9.41s5.53,3.8,8.99,3.8c3.43,0,6.44-1.29,9.03-3.88
			c0.36-0.36,1.05-1.17,2.07-2.42l6.53,2.3c-0.97,1.64-2.1,3.09-3.38,4.34c-3.89,3.92-8.64,5.88-14.25,5.88
			c-5.56,0-10.26-1.93-14.12-5.78c-3.85-3.85-5.78-8.41-5.78-13.66c0-5.3,1.93-9.87,5.78-13.71c3.85-3.84,8.56-5.76,14.12-5.76
			c5.61,0,10.36,1.95,14.25,5.84c3.35,3.38,5.03,7.89,5.03,13.52H287.7z M288.93,82.54h23.01c-1.64-4.76-5.45-7.15-11.45-7.15
			C294.47,75.4,290.62,77.78,288.93,82.54z"/>
	</g>
</g>
<g id="Check_your_vitals">
	<g>
		<path class="st1" d="M123.69,128.96l1.75,1.55c-2.24,2.04-4.71,3.06-7.41,3.06c-2.9,0-5.35-1-7.35-3c-2-2-3-4.4-3-7.2
			c0-2.77,1-5.16,3-7.17c2-2.01,4.45-3.02,7.35-3.02c2.7,0,5.17,1.03,7.41,3.08l-1.75,1.55c-1.83-1.62-3.72-2.42-5.67-2.42
			c-2.12,0-3.96,0.77-5.51,2.32c-1.55,1.55-2.32,3.44-2.32,5.67c0,2.25,0.77,4.15,2.32,5.69c1.55,1.54,3.38,2.31,5.51,2.31
			C119.97,131.38,121.86,130.58,123.69,128.96z"/>
		<path class="st1" d="M127.61,113.42h2.51v7.27c0.42-0.46,1.3-0.69,2.63-0.69c1.6,0,2.89,0.49,3.86,1.47
			c0.98,0.98,1.48,2.17,1.5,3.59v8.3h-2.49v-8.19c0-0.86-0.29-1.57-0.87-2.14c-0.58-0.57-1.25-0.85-1.99-0.85
			c-0.74,0-1.39,0.27-1.95,0.8c-0.32,0.32-0.55,0.63-0.68,0.93v9.45h-2.51V113.42z"/>
		<path class="st1" d="M142.56,126.63v0.04c0,1.35,0.46,2.48,1.37,3.39c0.91,0.92,1.99,1.37,3.24,1.37c1.24,0,2.32-0.47,3.25-1.4
			c0.13-0.13,0.38-0.42,0.75-0.87l2.35,0.83c-0.35,0.59-0.76,1.11-1.22,1.57c-1.4,1.41-3.12,2.12-5.14,2.12c-2,0-3.7-0.69-5.09-2.08
			c-1.39-1.39-2.08-3.03-2.08-4.92c0-1.91,0.69-3.56,2.08-4.94c1.39-1.39,3.09-2.08,5.09-2.08c2.02,0,3.74,0.7,5.14,2.11
			c1.21,1.22,1.81,2.84,1.81,4.88H142.56z M143,124.45h8.3c-0.59-1.72-1.97-2.58-4.13-2.58C145,121.87,143.61,122.73,143,124.45z"/>
		<path class="st1" d="M166.39,129.31l2.38,0.87c-0.47,0.64-0.84,1.1-1.12,1.38c-1.4,1.41-3.12,2.12-5.14,2.12
			c-2,0-3.7-0.69-5.09-2.08c-1.39-1.39-2.08-3.04-2.08-4.94c0-1.9,0.69-3.55,2.08-4.93c1.39-1.39,3.09-2.08,5.09-2.08
			c2.02,0,3.72,0.68,5.08,2.05c0.31,0.31,0.71,0.79,1.18,1.43l-2.38,0.89c-0.33-0.42-0.56-0.69-0.68-0.82
			c-0.9-0.89-1.96-1.33-3.2-1.33c-1.24,0-2.31,0.46-3.23,1.38s-1.37,2.06-1.37,3.41c0,1.35,0.46,2.48,1.37,3.4s1.99,1.38,3.23,1.38
			c1.24,0,2.32-0.47,3.25-1.4C165.85,129.96,166.06,129.71,166.39,129.31z"/>
		<path class="st1" d="M178.5,120.69l-3.33,4.13l4.82,8.53h-2.87l-3.57-6.54l-0.18,0.24v6.3h-2.51v-17.58h2.51v7.49l2.09-2.58H178.5
			z"/>
		<path class="st1" d="M191.09,137.74h-2.7l3.3-7.09l-4.64-9.96h2.7l3.3,7l3.3-7h2.7L191.09,137.74z"/>
		<path class="st1" d="M207.42,119.65c2.02,0,3.72,0.69,5.1,2.08c1.38,1.38,2.06,3.03,2.06,4.94c0,1.89-0.69,3.54-2.06,4.92
			s-3.07,2.08-5.1,2.08c-2,0-3.7-0.69-5.09-2.08s-2.08-3.03-2.08-4.92c0-1.91,0.7-3.56,2.08-4.94
			C203.72,120.34,205.42,119.65,207.42,119.65z M204.18,123.25c-0.92,0.92-1.37,2.06-1.37,3.42c0,1.35,0.46,2.48,1.37,3.39
			c0.91,0.92,1.99,1.37,3.24,1.37c1.24,0,2.32-0.46,3.23-1.37c0.92-0.91,1.38-2.04,1.38-3.39c0-1.36-0.46-2.5-1.38-3.42
			c-0.92-0.92-2-1.39-3.23-1.39C206.18,121.87,205.1,122.33,204.18,123.25z"/>
		<path class="st1" d="M222.27,133.52c-1.68,0-3.01-0.49-3.98-1.47c-0.97-0.98-1.48-2.18-1.5-3.6v-7.77h2.51v7.67
			c0,0.85,0.3,1.57,0.9,2.16c0.56,0.56,1.25,0.84,2.06,0.84c0.74,0,1.4-0.29,1.98-0.87s0.87-1.29,0.87-2.14v-7.67h2.51v7.77
			c-0.03,1.42-0.54,2.63-1.52,3.63C225.13,133.04,223.86,133.52,222.27,133.52z"/>
		<path class="st1" d="M236,122.58c-1.14,0.17-2.03,0.63-2.66,1.36s-0.94,1.66-0.94,2.76v6.65h-2.51v-12.66h2.51v1.8
			c0.37-0.99,1.16-1.68,2.38-2.06L236,122.58z"/>
		<path class="st1" d="M256.58,120.69l-5.65,12.66h-1.58l-5.6-12.66h2.76l3.63,8.44l3.68-8.44H256.58z"/>
		<path class="st1" d="M260.73,117.08c0.34,0.33,0.51,0.69,0.51,1.1c0,0.42-0.17,0.8-0.51,1.13c-0.34,0.33-0.76,0.49-1.27,0.49
			c-0.53,0-0.96-0.16-1.29-0.49c-0.33-0.33-0.5-0.7-0.5-1.13c0-0.41,0.17-0.77,0.5-1.1c0.33-0.33,0.76-0.49,1.29-0.49
			C259.97,116.59,260.39,116.75,260.73,117.08z M260.7,120.69v12.66h-2.49v-12.66H260.7z"/>
		<path class="st1" d="M265.13,120.69v-4.92h2.49v4.92h2.36v2.16h-2.36v10.5h-2.49v-10.5h-2.35v-2.16H265.13z"/>
		<path class="st1" d="M285.64,133.35h-2.51v-2.22c-0.99,1.7-2.49,2.55-4.52,2.55c-2,0-3.7-0.69-5.09-2.08s-2.08-3.03-2.08-4.92
			c0-1.91,0.69-3.56,2.08-4.94c1.39-1.39,3.09-2.08,5.09-2.08c2.02,0,3.53,0.84,4.52,2.52v-1.48h2.51V133.35z M283.14,127.67v-2.02
			c-0.18-0.92-0.6-1.7-1.26-2.37c-0.93-0.94-2.02-1.41-3.25-1.41c-1.25,0-2.33,0.46-3.24,1.39c-0.91,0.92-1.37,2.06-1.37,3.42
			c0,1.35,0.46,2.48,1.37,3.39c0.91,0.92,1.99,1.37,3.24,1.37c1.24,0,2.32-0.47,3.25-1.4C282.54,129.38,282.96,128.59,283.14,127.67
			z"/>
		<path class="st1" d="M290.91,113.42v19.93h-2.51v-19.93H290.91z"/>
		<path class="st1" d="M297.06,127.04c-0.94-0.52-1.59-0.95-1.94-1.3c-0.68-0.68-1.03-1.47-1.03-2.36c0-0.88,0.33-1.65,1-2.33
			c0.67-0.67,1.5-1.01,2.49-1.01c1,0,1.8,0.31,2.41,0.93c0.63,0.63,0.94,1.32,0.94,2.06v0.39l-2.24,0.91
			c-0.14-1.04-0.3-1.66-0.48-1.84c-0.18-0.18-0.39-0.28-0.63-0.28s-0.47,0.11-0.68,0.32c-0.21,0.21-0.32,0.49-0.32,0.84
			c0,0.35,0.12,0.65,0.36,0.89c0.16,0.17,0.52,0.43,1.09,0.79c1.04,0.57,1.8,1.09,2.29,1.57c0.76,0.78,1.14,1.69,1.14,2.74
			c0,1.08-0.39,2.02-1.18,2.81c-0.78,0.79-1.77,1.19-2.95,1.19s-2.17-0.4-2.96-1.19c-0.79-0.79-1.18-1.79-1.18-2.98l2.49-0.62
			c0,1.07,0.17,1.78,0.51,2.12s0.72,0.51,1.14,0.51c0.42,0,0.8-0.17,1.14-0.51c0.35-0.34,0.52-0.79,0.52-1.33
			c0-0.53-0.18-0.97-0.55-1.33C298.22,127.82,297.76,127.49,297.06,127.04z"/>
	</g>
</g>
</svg>
