<?xml version="1.0" encoding="utf-8"?>
<!-- Generator: Adobe Illustrator 24.0.0, SVG Export Plug-In . SVG Version: 6.00 Build 0)  -->
<svg version="1.1" id="Laag_1" xmlns="http://www.w3.org/2000/svg" xmlns:xlink="http://www.w3.org/1999/xlink" x="0px" y="0px"
	 viewBox="0 0 562.9 182.3" style="enable-background:new 0 0 362.9 182.3;" xml:space="preserve">
<style type="text/css">
	.stee01{fill:#6AC463;
  
}
</style>
<g>
	<g>
		<path class="stee01" d="M92.5,181.4c-10.1-1.8-20.3-3.4-30.4-5.4c-4.7-0.9-6.7-4.2-6.8-9.1c-0.2-12.8-4.4-16-17.3-14
			c-2.1,0.3-4.3,0.5-6.5,0.5c-9.4-0.1-13.4-4-13.6-13.4c-0.2-6.8-0.2-13.7-0.4-20.5c-0.2-5.7-2.7-9.6-8.5-11.4
			c-7.9-2.5-8.6-4.8-4.3-12c3.9-6.4,8.5-12.3,12.4-18.7c1.4-2.4,2.7-5.8,2.1-8.3C15.2,50.4,22,35.2,34.4,21.8
			c12.4-13.4,28-19.9,46-21.4c15.3-1.2,30.3,0.3,44.7,6c24.9,9.9,37.8,30.5,37.7,59c-0.1,12.4-3.5,23.7-10.3,33.9
			c-3.5,5.3-7.3,10.3-11,15.5c-11.4,15.6-12.3,32.2-4.6,49.6c2.8,6.3,2.5,7.2-3.9,9.3C119.9,178,106.5,180.4,92.5,181.4z M42.4,68.2
			c4.7,7,13.1,6.8,21.2,7.1c-0.5,7,1.3,12.4,7.7,15.3c6.6,3.1,12.9,1.4,19.8-5.3c1.7-1.6,3.3-4.9,5.9-1.9c0.7,0.8-0.7,4.9-2.2,5.9
			c-5.3,3.7-11,6.8-16.9,10.4c1.1,0.7,2.7,2.4,4.5,2.8c5.1,1.2,10.3,2,15.4,2.9c0.8,0.1,1.7,0.2,2.5-0.1c3-0.9,5.2-0.1,7.7,1.8
			c5.1,4,10.7,4.2,15.7,0.2c3.2-2.6,5.5-6.3,8.7-10.2c8-0.3,12.3-3.6,12.9-10.6c0.2-2.1,1.1-4.3,2.3-6c5.4-7.1,6.7-14.8,3.9-23.1
			c-1.7-5-6.4-6.9-11.2-4.6c-1.6,0.8-2.7,2.5-4.3,3.3c-1.2,0.7-2.8,0.7-4.2,1c0.1-1.6-0.5-4.1,0.3-4.7c3.6-2.4,7.4-5,11.5-6
			c3.5-0.9,4.3-2.5,3.4-5c-0.8-2.1-2.8-3.8-4.4-5.6c-0.8-0.9-2.5-1.6-2.6-2.4c-0.1-5.4-3.5-6.7-7.9-6.8c-2.9-7.7-4.9-8.8-13.4-7.6
			c-2.8-4.6-6.9-6.4-12.3-5.1c-0.8,0.2-1.9,0-2.7-0.4C95,8.8,93.2,8.9,85.9,14.6c-8.4-3.5-11.8-2.6-18,5c-6.3-2-10.6-1.3-13.9,1.9
			c-2.6,2.6-1.7,5.1,0.6,6.7c1,0.7,3.3-0.5,5-0.5c1.4,0,2.8,0.6,4.2,0.9c-0.4,1.3-0.5,3-1.4,3.8c-4.3,3.8-10.2,2.9-13.5-1.8
			c-0.9-1.3-1.7-2.7-2.5-4.1c-5.6,1.3-6.2,5.3-5.8,9.5c-6.8,2.8-9.4,5.2-10.7,10c-1.5,5.5,1.3,12.4,6,14.6c3.8,1.8,7.4,0.2,11.7-4.9
			c0.8-1,2.7-1,4.1-1.5c0.2,1.5,1.1,3.6,0.4,4.4C49.4,61.9,46.1,64.7,42.4,68.2z"/>
		<path class="stee01" d="M116.3,76.3c-5.4-1.1-8.1-3.8-9.9-7.9c-0.7-1.7-2.4-3.4-4.1-4.2C97,62,93.6,58.2,92,52.9
			c-0.4-1.4,0.9-3.3,1.4-5c1.3,1,3.2,1.7,3.7,3c1.9,5,5.1,7.8,10.4,8.8c1.4,0.3,3.4,2.2,3.6,3.6c0.6,3.8,1.8,6.5,5.9,7.6
			c1,0.3,2.4,2.5,2.2,3.1C118.6,75.2,117,75.8,116.3,76.3z"/>
		<path class="stee01" d="M111,28.9c-0.5-1.3-1.3-2.8-1.5-4.4c-0.1-1.2,0.6-2.6,0.9-3.9c1.3,0.4,3.5,0.6,3.7,1.2c1.3,6,6,7.1,10.8,8.8
			c2.5,0.9,4.5,3.7,6.3,6c0.6,0.7-0.3,2.6-0.5,4c-1.4-0.4-3.4-0.4-4.1-1.4c-3.9-5.4-8.9-5.5-14.7-4.1c-1.9,0.4-4-0.4-6.1-0.6
			c1.4-1.5,2.8-3.1,4.2-4.6C110.2,29.7,110.4,29.5,111,28.9z"/>
		<path class="stee01" d="M91.2,26.4c0.1,7.6-7.7,15-15.1,14.6c-1.2-0.1-2.2-1.4-3.3-2.2c0.8-1.1,1.5-2.5,2.6-3.1
			c1.7-0.9,3.8-1.1,5.6-2c3.4-1.7,5.2-4.6,4.6-8.5c-0.4-2.4-2-5.5,1.8-5.8c1.1-0.1,2.5,3.4,3.7,5.3C91.3,25.2,91.2,26,91.2,26.4z"/>
		<path class="stee01" d="M117.4,103.9c-6.9,0.1-12.5-3.7-14.1-9.1c-0.4-1.2,0.6-2.9,0.9-4.3c1.3,0.6,3.2,0.8,3.9,1.8
			c4.4,6.3,5.2,6.6,13.3,4.9c1.4-0.3,3,0.8,4.6,1.3c-0.9,1.3-1.6,3.1-2.9,3.8C120.9,103.4,118.5,103.6,117.4,103.9z"/>
		<path class="stee01" d="M73.4,58c1.1-2.7,2.4-6.5,4.3-9.9c0.6-1.1,2.9-1.2,4.5-1.8c0.1,1.6,0.3,3.2,0.1,4.7c-0.6,4-1.4,7.9-2.3,11.8
			c-0.4,1.5-1.3,2.8-2,4.3c-1.1-1-2.7-1.8-3.3-3C73.9,62.7,73.9,60.8,73.4,58z"/>
	</g>
</g>
</svg>
