<?xml version="1.0" encoding="utf-8"?>
<!-- Generator: Adobe Illustrator 24.0.0, SVG Export Plug-In . SVG Version: 6.00 Build 0)  -->
<svg version="1.1" id="Laag_1" xmlns="http://www.w3.org/2000/svg" xmlns:xlink="http://www.w3.org/1999/xlink" x="0px" y="0px"
	 viewBox="0 0 512.5 182.3" style="enable-background:new 0 0 312.5 182.3;" xml:space="preserve">
<style type="text/css">
	.stee05{fill:#FF8634;}
</style>
<g>
	<g>
		<path class="stee05" d="M61.1,25.7c8.9-4.4,17.1-9.4,23.4-17c0.6-0.8,1.3-1.5,1.9-2.3c1.4-1.8,1.4-1.8,3.3-0.2
			c-2.3,5.9-6.3,10.6-9.8,15.7c0.1,0.2,0.1,0.4,0.2,0.6c1.5,0,2.9,0,4.4,0c0.9,0,1.9,0,2.8,0.2c1,0.3,2.6-0.7,2.8,1.2
			c0.2,2.3,0,2.6-2.5,3.1c-17.5,3.6-32.2,12-44.2,25.3c-2.2,2.5-4.4,5-6.6,7.5c0.1,0.1,0.3,0.3,0.4,0.4c0.8-0.7,1.5-1.5,2.3-2.2
			c9.7-8.8,20.6-15.9,32.9-20.7c9.2-3.6,18.7-5.7,28.6-5.8c1.1,0,1.4,0.3,1.5,1.3c0.3,4.9,0.7,9.8,1.2,14.6c0.1,1.2-0.6,1.5-1.5,1.8
			c-10.6,3.3-19.4,9.3-26.2,18c-3,4-5.2,8.6-7.8,12.9c-0.3,0.5-0.4,1.1-0.1,1.8c1-1.6,2-3.2,3.1-4.8c6.3-9.6,15.2-15.8,25.8-19.7
			c1.4-0.5,1.6,0.1,2.2,1.2c2,3.7,0.4,5.8-2.5,8.2C90.5,72.4,85.6,78.7,82.1,86c-0.2,0.4-0.3,0.8-0.7,1.7c3.6-3.8,6.8-7.1,10.1-10.6
			c4.2,4.8,7.5,9.8,9.9,15.3c5.4,11.9,6.5,24.5,5.6,37.3c-0.5,7.3-1.1,14.6-2,21.9c-0.9,7.3-2.4,14.6-6,21.2
			c-3.8,6.9-8.7,10.2-17,9.2c-6.6-0.7-12.7-3.4-18.4-6.5c-12.2-6.7-23.8-14.4-34.4-23.4c-10.4-8.9-18.2-19.7-23-32.6
			c-2-5.4-3.2-11-3.8-16.8C1.6,96.7,2,90.7,3.1,84.7c2.8-15.6,10.5-28.6,22-39.2c4.3-4,9.4-6.9,13.8-10.8c4.4-3.9,8.5-8.1,12.4-12.5
			c5.1-5.9,8.9-12.8,11.7-20c0.4-1.1,1-1.3,2-1.1c0.8,0.2,1.8,0.4,2.5,0.8C67.8,2.1,68.1,3,68,3.5c-0.9,6.4-3.1,12.5-5.5,18.5
			C62,23.2,61.6,24.4,61.1,25.7z"/>
		<path class="stee05" d="M26.8,37.4c0.3-3.8,0.7-7.3,1-10.9c0.1-2.2,0.2-4.4,0.1-6.6c0-1.1,0.4-1.5,1.5-1.6c4.3-0.4,4.3-0.5,5.1,3.6
			c0.5,2.6,0.8,5.3,1.2,8c0.1,0.5,0,1.3-0.4,1.5C32.6,33.5,29.8,35.4,26.8,37.4z"/>
		<path class="stee05" d="M95.4,74.4c1.9-1.2,3.7-2.3,5.7-3.5c2.2,4,4.3,7.8,6.3,11.6c1.3,2.3-1.2,2.2-2.1,3c-0.8,0.7-1.4,0.4-2.1-0.7
			c-2.1-3.1-4.5-5.9-6.7-8.9C96.1,75.6,95.9,75.1,95.4,74.4z"/>
	</g>
</g>
</svg>
